<?xml version="1.0" encoding="UTF-8" standalone="no"?>
<!-- Created with Inkscape (http://www.inkscape.org/) -->

<svg
   xmlns:dc="http://purl.org/dc/elements/1.1/"
   xmlns:cc="http://creativecommons.org/ns#"
   xmlns:rdf="http://www.w3.org/1999/02/22-rdf-syntax-ns#"
   xmlns:svg="http://www.w3.org/2000/svg"
   xmlns="http://www.w3.org/2000/svg"
   xmlns:sodipodi="http://sodipodi.sourceforge.net/DTD/sodipodi-0.dtd"
   xmlns:inkscape="http://www.inkscape.org/namespaces/inkscape"
   sodipodi:docname="interface.svg"
   inkscape:version="0.48.3.1 r9886"
   version="1.1"
   id="svg2"
   height="1052.3622047"
   width="744.09448819"
   enable-background="new">
  <sodipodi:namedview
     id="base"
     pagecolor="#ffffff"
     bordercolor="#666666"
     borderopacity="1.0"
     inkscape:pageopacity="0.0"
     inkscape:pageshadow="2"
     inkscape:zoom="1.4142136"
     inkscape:cx="165.82324"
     inkscape:cy="421.3514"
     inkscape:document-units="px"
     inkscape:current-layer="layer1"
     showgrid="false"
     inkscape:window-width="1680"
     inkscape:window-height="974"
     inkscape:window-x="0"
     inkscape:window-y="24"
     inkscape:window-maximized="1"
     showborder="true"
     inkscape:snap-object-midpoints="true"
     showguides="true"
     inkscape:guide-bbox="true" />
  <defs
     id="defs4">
    <inkscape:perspective
       sodipodi:type="inkscape:persp3d"
       inkscape:vp_x="-106.94622 : 4.3291645e-14 : 0"
       inkscape:vp_y="0 : 419.5178 : 0"
       inkscape:vp_z="566.5369 : 530.90093 : 1"
       inkscape:persp3d-origin="294.85891 : 492.65175 : 1"
       id="perspective8110" />
    <inkscape:perspective
       id="perspective7953"
       inkscape:persp3d-origin="293.58825 : 493.0106 : 1"
       inkscape:vp_z="565.26624 : 531.25978 : 1"
       inkscape:vp_y="0 : 419.5178 : 0"
       inkscape:vp_x="-106.94622 : 4.3291645e-14 : 0"
       sodipodi:type="inkscape:persp3d" />
    <inkscape:perspective
       id="perspective7641"
       inkscape:persp3d-origin="372.04724 : 350.78739 : 1"
       inkscape:vp_z="734.54432 : 478.75417 : 1"
       inkscape:vp_y="0 : 1000 : 0"
       inkscape:vp_x="-325.50355 : 3.9861371e-14 : 0"
       sodipodi:type="inkscape:persp3d" />
    <marker
       style="overflow:visible;"
       id="Arrow2Lend"
       refX="0.0"
       refY="0.0"
       orient="auto"
       inkscape:stockid="Arrow2Lend">
      <path
         transform="scale(1.1) rotate(180) translate(1,0)"
         d="M 8.7185878,4.0337352 L -2.2072895,0.016013256 L 8.7185884,-4.0017078 C 6.9730900,-1.6296469 6.9831476,1.6157441 8.7185878,4.0337352 z "
         style="fill-rule:evenodd;stroke-width:0.62500000;stroke-linejoin:round;"
         id="path6465" />
    </marker>
    <filter
       id="filter7753"
       inkscape:collect="always">
      <feBlend
         id="feBlend7755"
         in2="BackgroundImage"
         mode="multiply"
         inkscape:collect="always" />
    </filter>
    <filter
       color-interpolation-filters="sRGB"
       id="filter7753-5"
       inkscape:collect="always">
      <feBlend
         id="feBlend7755-6"
         in2="BackgroundImage"
         mode="multiply"
         inkscape:collect="always" />
    </filter>
    <filter
       color-interpolation-filters="sRGB"
       id="filter7753-4"
       inkscape:collect="always">
      <feBlend
         id="feBlend7755-0"
         in2="BackgroundImage"
         mode="multiply"
         inkscape:collect="always" />
    </filter>
  </defs>
  <metadata
     id="metadata7">
    <rdf:RDF>
      <cc:Work
         rdf:about="">
        <dc:format>image/svg+xml</dc:format>
        <dc:type
           rdf:resource="http://purl.org/dc/dcmitype/StillImage" />
        <dc:title></dc:title>
      </cc:Work>
    </rdf:RDF>
  </metadata>
  <g
     style="filter:url(#filter7753)"
     inkscape:label="Layer 1"
     inkscape:groupmode="layer"
     id="layer1">
    <g
       inkscape:corner7="0.32640309 : -0.32645682 : 0.56175274 : 1"
       inkscape:corner0="2.2066192 : -0.072130994 : 0 : 1"
       inkscape:perspectiveID="#perspective7953"
       id="g7911"
       style="fill:#fa0000;fill-opacity:1;fill-rule:nonzero;stroke:#000000;stroke-width:0.60000002;stroke-miterlimit:4;stroke-opacity:1;stroke-dasharray:none;stroke-dashoffset:0"
       sodipodi:type="inkscape:box3d">
      <path
         d="m 57.598668,696.30603 201.082002,0 110.27692,-63.01965 -128.75406,0 z"
         inkscape:box3dsidetype="13"
         style="fill:#afafde;fill-rule:evenodd;stroke:none"
         id="path7921"
         sodipodi:type="inkscape:box3dside" />
      <path
         d="m 57.598668,589.61182 0,106.69421 182.604862,-63.01965 0,-68.31697 z"
         inkscape:box3dsidetype="6"
         style="fill:#353564;fill-rule:evenodd;stroke:none"
         id="path7913"
         sodipodi:type="inkscape:box3dside" />
      <path
         d="m 240.20353,564.96941 128.75406,0 0,68.31697 -128.75406,0 z"
         inkscape:box3dsidetype="11"
         style="fill:#e9e9ff;fill-rule:evenodd;stroke:none"
         id="path7923"
         sodipodi:type="inkscape:box3dside" />
      <path
         d="m 57.598668,589.61182 201.082002,0 110.27692,-24.64241 -128.75406,0 z"
         inkscape:box3dsidetype="5"
         style="fill:#4d4d9f;fill-rule:evenodd;stroke:none"
         id="path7915"
         sodipodi:type="inkscape:box3dside" />
      <path
         d="m 258.68067,589.61182 0,106.69421 110.27692,-63.01965 0,-68.31697 z"
         inkscape:box3dsidetype="14"
         style="fill:#d7d7ff;fill-rule:evenodd;stroke:none"
         id="path7919"
         sodipodi:type="inkscape:box3dside" />
      <path
         d="m 57.598668,589.61182 201.082002,0 0,106.69421 -201.082002,0 z"
         inkscape:box3dsidetype="3"
         style="fill:#8686bf;fill-rule:evenodd;stroke:none"
         id="path7917"
         sodipodi:type="inkscape:box3dside" />
    </g>
    <g
       inkscape:corner7="-1.4963956 : -0.32486579 : 0.551374 : 1"
       inkscape:corner0="0.33975619 : -0.071405559 : 0 : 1"
       inkscape:perspectiveID="#perspective8110"
       id="g7955"
       style="fill:#fa0000;fill-opacity:1;fill-rule:nonzero;stroke:#000000;stroke-width:0.60000002;stroke-miterlimit:4;stroke-opacity:1;stroke-dasharray:none;stroke-dashoffset:0"
       sodipodi:type="inkscape:box3d">
      <path
         d="m 258.52327,695.99741 196.36949,0 39.67946,-62.03191 -126.57779,0 z"
         inkscape:box3dsidetype="13"
         style="fill:#afafde;fill-rule:evenodd;stroke:none"
         id="path7965"
         sodipodi:type="inkscape:box3dside" />
      <path
         d="m 258.52327,589.66634 0,106.33107 109.47116,-62.03191 0,-68.53994 z"
         inkscape:box3dsidetype="6"
         style="fill:#353564;fill-rule:evenodd;stroke:none"
         id="path7957"
         sodipodi:type="inkscape:box3dside" />
      <path
         d="m 367.99443,565.42556 126.57779,0 0,68.53994 -126.57779,0 z"
         inkscape:box3dsidetype="11"
         style="fill:#e9e9ff;fill-rule:evenodd;stroke:none"
         id="path7967"
         sodipodi:type="inkscape:box3dside" />
      <path
         d="m 258.52327,589.66634 196.36949,0 39.67946,-24.24078 -126.57779,0 z"
         inkscape:box3dsidetype="5"
         style="fill:#4dc89f;fill-opacity:1;fill-rule:evenodd;stroke:none"
         id="path7959"
         sodipodi:type="inkscape:box3dside" />
      <path
         d="m 454.89276,589.66634 0,106.33107 39.67946,-62.03191 0,-68.53994 z"
         inkscape:box3dsidetype="14"
         style="fill:#86e3a9;fill-opacity:1;fill-rule:evenodd;stroke:none"
         id="path7963"
         sodipodi:type="inkscape:box3dside" />
      <path
         d="m 258.52327,589.66634 196.36949,0 0,106.33107 -196.36949,0 z"
         inkscape:box3dsidetype="3"
         style="fill:#86e9bf;fill-opacity:1;fill-rule:evenodd;stroke:none"
         id="path7961"
         sodipodi:type="inkscape:box3dside" />
    </g>
    <path
       id="path7997"
       title="t 0.3*sin(2*pi*4*t)"
       d="m 226.95664,657.47771 c 0.35765,-1.96937 0.7153,-3.92022 1.07295,-5.19581 0.35765,-1.27559 0.71529,-1.84934 1.07295,-1.53158 0.35764,0.31777 0.71529,1.52573 1.07294,3.21276 0.35765,1.68702 0.7153,3.82482 1.07295,5.69137 0.35765,1.86655 0.7153,3.42654 1.07295,4.15627 0.35764,0.72973 0.71529,0.61177 1.07294,-0.30994 0.35765,-0.92171 0.7153,-2.63444 1.07295,-4.55758 0.35765,-1.92313 0.7153,-4.02277 1.07295,-5.59108 0.35764,-1.56832 0.7153,-2.57414 1.07294,-2.68161 0.35765,-0.10747 0.7153,0.68985 1.07295,2.11902 0.35765,1.42916 0.7153,3.46733 1.07294,5.42525 0.35766,1.95791 0.7153,3.79956 1.07295,4.90545 0.35766,1.10588 0.7153,1.45222 1.07295,0.92619 0.35765,-0.52604 0.7153,-1.91926 1.07295,-3.70625 0.35765,-1.78698 0.71529,-3.93722 1.07295,-5.72493 0.35764,-1.7877 0.71529,-3.17856 1.07294,-3.70624 0.35765,-0.52768 0.7153,-0.17828 1.07295,0.92619 0.35765,1.10448 0.7153,2.94772 1.07295,4.90545 0.35764,1.95773 0.7153,3.99491 1.07294,5.42525 0.35765,1.43034 0.7153,2.22478 1.07295,2.11901 0.35765,-0.10576 0.7153,-1.11432 1.07294,-2.6816 0.35766,-1.56728 0.7153,-3.66758 1.07295,-5.59109 0.35765,-1.9235 0.7153,-3.63435 1.07295,-4.55757 0.35765,-0.92323 0.7153,-1.03809 1.07295,-0.30995 0.35765,0.72815 0.71529,2.29028 1.07294,4.15628 0.35765,1.866 0.7153,4.00346 1.07295,5.69137 0.35765,1.6879 0.7153,2.89331 1.07295,3.21276 0.35765,0.31945 0.71529,-0.2573 1.07295,-1.53158 0.35764,-1.27429 0.71529,-3.22645 1.07294,-5.19581"
       style="fill:none;stroke:#000000;stroke-width:0.46659973;stroke-miterlimit:4;stroke-opacity:1;stroke-dasharray:none;stroke-dashoffset:0"
       inkscape:connector-curvature="0" />
    <path
       id="path7997-2"
       title="t 0.3*sin(2*pi*4*t)"
       d="m 263.25517,641.61564 c 0.59138,-1.96937 1.18277,-3.92022 1.77415,-5.19581 0.59139,-1.27558 1.18277,-1.84933 1.77416,-1.53157 0.59138,0.31777 1.18277,1.52572 1.77416,3.21275 0.59138,1.68702 1.18277,3.82482 1.77415,5.69137 0.59139,1.86656 1.18277,3.42655 1.77416,4.15628 0.59138,0.72973 1.18277,0.61177 1.77415,-0.30994 0.59139,-0.92171 1.18277,-2.63444 1.77416,-4.55759 0.59139,-1.92313 1.18277,-4.02277 1.77416,-5.59108 0.59138,-1.56832 1.18277,-2.57413 1.77415,-2.6816 0.59139,-0.10747 1.18277,0.68985 1.77416,2.11901 0.59138,1.42916 1.18277,3.46733 1.77415,5.42525 0.59139,1.95791 1.18277,3.79957 1.77416,4.90546 0.59139,1.10588 1.18277,1.45222 1.77416,0.92619 0.59138,-0.52604 1.18277,-1.91926 1.77415,-3.70626 0.59139,-1.78698 1.18277,-3.93722 1.77416,-5.72493 0.59138,-1.7877 1.18277,-3.17856 1.77415,-3.70623 0.59139,-0.52768 1.18277,-0.17828 1.77416,0.92618 0.59139,1.10448 1.18277,2.94772 1.77416,4.90545 0.59138,1.95773 1.18277,3.99492 1.77415,5.42526 0.59139,1.43034 1.18277,2.22478 1.77416,2.11901 0.59138,-0.10576 1.18277,-1.11432 1.77415,-2.6816 0.59139,-1.56729 1.18277,-3.66759 1.77416,-5.5911 0.59139,-1.9235 1.18277,-3.63435 1.77416,-4.55757 0.59138,-0.92322 1.18277,-1.03808 1.77415,-0.30994 0.59139,0.72814 1.18277,2.29027 1.77416,4.15627 0.59138,1.866 1.18277,4.00346 1.77415,5.69138 0.59139,1.6879 1.18278,2.89331 1.77416,3.21276 0.59139,0.31945 1.18277,-0.2573 1.77416,-1.53158 0.59138,-1.27429 1.18277,-3.22646 1.77415,-5.19582"
       style="fill:none;stroke:#000000;stroke-width:0.60000002;stroke-miterlimit:4;stroke-opacity:1;stroke-dasharray:none;stroke-dashoffset:0;filter:url(#filter7753)"
       inkscape:connector-curvature="0"
       transform="matrix(0.71990299,-0.46293698,0.4284173,0.74533894,-206.12155,301.31016)" />
    <path
       id="path7997-2-3"
       title="t 0.3*sin(2*pi*4*t)"
       d="m 263.25517,641.61564 c 0.59138,-1.96937 1.18277,-3.92022 1.77415,-5.19581 0.59139,-1.27558 1.18277,-1.84933 1.77416,-1.53157 0.59138,0.31777 1.18277,1.52572 1.77416,3.21275 0.59138,1.68702 1.18277,3.82482 1.77415,5.69137 0.59139,1.86656 1.18277,3.42655 1.77416,4.15628 0.59138,0.72973 1.18277,0.61177 1.77415,-0.30994 0.59139,-0.92171 1.18277,-2.63444 1.77416,-4.55759 0.59139,-1.92313 1.18277,-4.02277 1.77416,-5.59108 0.59138,-1.56832 1.18277,-2.57413 1.77415,-2.6816 0.59139,-0.10747 1.18277,0.68985 1.77416,2.11901 0.59138,1.42916 1.18277,3.46733 1.77415,5.42525 0.59139,1.95791 1.18277,3.79957 1.77416,4.90546 0.59139,1.10588 1.18277,1.45222 1.77416,0.92619 0.59138,-0.52604 1.18277,-1.91926 1.77415,-3.70626 0.59139,-1.78698 1.18277,-3.93722 1.77416,-5.72493 0.59138,-1.7877 1.18277,-3.17856 1.77415,-3.70623 0.59139,-0.52768 1.18277,-0.17828 1.77416,0.92618 0.59139,1.10448 1.18277,2.94772 1.77416,4.90545 0.59138,1.95773 1.18277,3.99492 1.77415,5.42526 0.59139,1.43034 1.18277,2.22478 1.77416,2.11901 0.59138,-0.10576 1.18277,-1.11432 1.77415,-2.6816 0.59139,-1.56729 1.18277,-3.66759 1.77416,-5.5911 0.59139,-1.9235 1.18277,-3.63435 1.77416,-4.55757 0.59138,-0.92322 1.18277,-1.03808 1.77415,-0.30994 0.59139,0.72814 1.18277,2.29027 1.77416,4.15627 0.59138,1.866 1.18277,4.00346 1.77415,5.69138 0.59139,1.6879 1.18278,2.89331 1.77416,3.21276 0.59139,0.31945 1.18277,-0.2573 1.77416,-1.53158 0.59138,-1.27429 1.18277,-3.22646 1.77415,-5.19582"
       style="fill:none;stroke:#000000;stroke-width:0.60000002;stroke-miterlimit:4;stroke-opacity:1;stroke-dasharray:none;stroke-dashoffset:0;filter:url(#filter7753-5)"
       inkscape:connector-curvature="0"
       transform="matrix(-0.58741344,-0.36144631,0.65183105,-0.6825186,26.570202,1214.6619)"
       inkscape:transform-center-x="-17.756636"
       inkscape:transform-center-y="-16.983526" />
    <path
       id="path7997-9"
       title="t 0.3*sin(2*pi*4*t)"
       d="m 203.22956,610.74533 c 0.59138,-1.96937 1.18277,-3.92022 1.77415,-5.19581 0.59139,-1.27559 1.18277,-1.84934 1.77416,-1.53158 0.59138,0.31777 1.18277,1.52573 1.77416,3.21276 0.59138,1.68702 1.18277,3.82482 1.77415,5.69137 0.59139,1.86655 1.18277,3.42654 1.77416,4.15627 0.59138,0.72973 1.18277,0.61177 1.77415,-0.30994 0.59139,-0.92171 1.18277,-2.63444 1.77416,-4.55758 0.59139,-1.92313 1.18277,-4.02277 1.77416,-5.59108 0.59138,-1.56832 1.18277,-2.57414 1.77415,-2.68161 0.59139,-0.10747 1.18277,0.68985 1.77416,2.11902 0.59138,1.42916 1.18277,3.46733 1.77415,5.42525 0.59139,1.95791 1.18277,3.79956 1.77416,4.90545 0.59139,1.10588 1.18277,1.45222 1.77416,0.92619 0.59138,-0.52604 1.18277,-1.91926 1.77415,-3.70625 0.59139,-1.78698 1.18277,-3.93722 1.77416,-5.72493 0.59138,-1.7877 1.18277,-3.17856 1.77415,-3.70624 0.59139,-0.52768 1.18277,-0.17828 1.77416,0.92619 0.59139,1.10448 1.18277,2.94772 1.77416,4.90545 0.59138,1.95773 1.18277,3.99491 1.77415,5.42525 0.59139,1.43034 1.18277,2.22478 1.77416,2.11901 0.59138,-0.10576 1.18277,-1.11432 1.77415,-2.6816 0.59139,-1.56728 1.18277,-3.66758 1.77416,-5.59109 0.59139,-1.9235 1.18277,-3.63435 1.77416,-4.55757 0.59138,-0.92323 1.18277,-1.03809 1.77415,-0.30995 0.59139,0.72815 1.18277,2.29028 1.77416,4.15628 0.59138,1.866 1.18277,4.00346 1.77415,5.69137 0.59139,1.6879 1.18278,2.89331 1.77416,3.21276 0.59139,0.31945 1.18277,-0.2573 1.77416,-1.53158 0.59138,-1.27429 1.18277,-3.22645 1.77415,-5.19581"
       style="fill:none;stroke:#000000;stroke-width:0.60000002;stroke-miterlimit:4;stroke-opacity:1;stroke-dasharray:none;stroke-dashoffset:0;filter:url(#filter7753)"
       inkscape:connector-curvature="0"
       transform="matrix(0.48586317,0,0,1,134.7301,0)" />
    <path
       id="path7997-9-7"
       title="t 0.3*sin(2*pi*4*t)"
       d="m 261.54015,610.74534 c 0.59138,-1.96937 1.18277,-3.92022 1.77415,-5.19581 0.59139,-1.27559 1.18277,-1.84934 1.77416,-1.53158 0.59138,0.31777 1.18277,1.52573 1.77416,3.21276 0.59138,1.68702 1.18277,3.82482 1.77415,5.69137 0.59139,1.86655 1.18277,3.42654 1.77416,4.15627 0.59138,0.72973 1.18277,0.61177 1.77415,-0.30994 0.59139,-0.92171 1.18277,-2.63444 1.77416,-4.55758 0.59139,-1.92313 1.18277,-4.02277 1.77416,-5.59108 0.59138,-1.56832 1.18277,-2.57414 1.77415,-2.68161 0.59139,-0.10747 1.18277,0.68985 1.77416,2.11902 0.59138,1.42916 1.18277,3.46733 1.77415,5.42525 0.59139,1.95791 1.18277,3.79956 1.77416,4.90545 0.59139,1.10588 1.18277,1.45222 1.77416,0.92619 0.59138,-0.52604 1.18277,-1.91926 1.77415,-3.70625 0.59139,-1.78698 1.18277,-3.93722 1.77416,-5.72493 0.59138,-1.7877 1.18277,-3.17856 1.77415,-3.70624 0.59139,-0.52768 1.18277,-0.17828 1.77416,0.92619 0.59139,1.10448 1.18277,2.94772 1.77416,4.90545 0.59138,1.95773 1.18277,3.99491 1.77415,5.42525 0.59139,1.43034 1.18277,2.22478 1.77416,2.11901 0.59138,-0.10576 1.18277,-1.11432 1.77415,-2.6816 0.59139,-1.56728 1.18277,-3.66758 1.77416,-5.59109 0.59139,-1.9235 1.18277,-3.63435 1.77416,-4.55757 0.59138,-0.92323 1.18277,-1.03809 1.77415,-0.30995 0.59139,0.72815 1.18277,2.29028 1.77416,4.15628 0.59138,1.866 1.18277,4.00346 1.77415,5.69137 0.59139,1.6879 1.18278,2.89331 1.77416,3.21276 0.59139,0.31945 1.18277,-0.2573 1.77416,-1.53158 0.59138,-1.27429 1.18277,-3.22645 1.77415,-5.19581"
       style="fill:none;stroke:#000000;stroke-width:0.60000002;stroke-miterlimit:4;stroke-opacity:1;stroke-dasharray:none;stroke-dashoffset:0;filter:url(#filter7753-4)"
       inkscape:connector-curvature="0"
       transform="matrix(1.0134757,0,0,1,-6.4001352,0)" />
  </g>
</svg>
