<?xml version="1.0" encoding="UTF-8" standalone="no"?>
<!-- Created with Inkscape (http://www.inkscape.org/) -->

<svg
   xmlns:dc="http://purl.org/dc/elements/1.1/"
   xmlns:cc="http://creativecommons.org/ns#"
   xmlns:rdf="http://www.w3.org/1999/02/22-rdf-syntax-ns#"
   xmlns:svg="http://www.w3.org/2000/svg"
   xmlns="http://www.w3.org/2000/svg"
   xmlns:xlink="http://www.w3.org/1999/xlink"
   xmlns:sodipodi="http://sodipodi.sourceforge.net/DTD/sodipodi-0.dtd"
   xmlns:inkscape="http://www.inkscape.org/namespaces/inkscape"
   sodipodi:docname="scattering.svg"
   inkscape:version="0.48.3.1 r9886"
   version="1.1"
   id="svg2"
   height="1052.3622047"
   width="744.09448819"
   enable-background="new">
  <sodipodi:namedview
     id="base"
     pagecolor="#ffffff"
     bordercolor="#666666"
     borderopacity="1.0"
     inkscape:pageopacity="0.0"
     inkscape:pageshadow="2"
     inkscape:zoom="1.3676997"
     inkscape:cx="320.84541"
     inkscape:cy="542.22059"
     inkscape:document-units="px"
     inkscape:current-layer="layer1"
     showgrid="false"
     inkscape:window-width="1680"
     inkscape:window-height="974"
     inkscape:window-x="0"
     inkscape:window-y="24"
     inkscape:window-maximized="1"
     showborder="true"
     inkscape:snap-object-midpoints="true"
     showguides="true"
     inkscape:guide-bbox="true" />
  <defs
     id="defs4">
    <linearGradient
       id="linearGradient5487">
      <stop
         style="stop-color:#ff3f08;stop-opacity:1;"
         offset="0"
         id="stop5489" />
      <stop
         id="stop6009"
         offset="0.5"
         style="stop-color:#c29463;stop-opacity:0.49803922;" />
      <stop
         style="stop-color:#86e9bf;stop-opacity:0;"
         offset="1"
         id="stop5491" />
    </linearGradient>
    <inkscape:perspective
       sodipodi:type="inkscape:persp3d"
       inkscape:vp_x="-68.626729 : 3.6424866e-14 : 0"
       inkscape:vp_y="0 : 352.97527 : 0"
       inkscape:vp_z="657.63603 : 811.43841 : 1"
       inkscape:persp3d-origin="277.84748 : 774.87767 : 1"
       id="perspective9821" />
    <inkscape:perspective
       sodipodi:type="inkscape:persp3d"
       inkscape:vp_x="-106.94622 : 4.3291645e-14 : 0"
       inkscape:vp_y="0 : 419.5178 : 0"
       inkscape:vp_z="566.5369 : 530.90093 : 1"
       inkscape:persp3d-origin="294.85891 : 492.65175 : 1"
       id="perspective8110" />
    <inkscape:perspective
       id="perspective7953"
       inkscape:persp3d-origin="391.98472 : 832.78817 : 1"
       inkscape:vp_z="1036.0304 : 885.2814 : 1"
       inkscape:vp_y="0 : 496.35524 : 0"
       inkscape:vp_x="-115.26771 : 0 : 0"
       sodipodi:type="inkscape:persp3d" />
    <inkscape:perspective
       id="perspective7641"
       inkscape:persp3d-origin="372.04724 : 350.78739 : 1"
       inkscape:vp_z="734.54432 : 478.75417 : 1"
       inkscape:vp_y="0 : 1000 : 0"
       inkscape:vp_x="-325.50355 : 3.9861371e-14 : 0"
       sodipodi:type="inkscape:persp3d" />
    <marker
       style="overflow:visible;"
       id="Arrow2Lend"
       refX="0.0"
       refY="0.0"
       orient="auto"
       inkscape:stockid="Arrow2Lend">
      <path
         transform="scale(1.1) rotate(180) translate(1,0)"
         d="M 8.7185878,4.0337352 L -2.2072895,0.016013256 L 8.7185884,-4.0017078 C 6.9730900,-1.6296469 6.9831476,1.6157441 8.7185878,4.0337352 z "
         style="fill-rule:evenodd;stroke-width:0.62500000;stroke-linejoin:round;"
         id="path6465" />
    </marker>
    <filter
       id="filter7753"
       inkscape:collect="always">
      <feBlend
         id="feBlend7755"
         in2="BackgroundImage"
         mode="multiply"
         inkscape:collect="always" />
    </filter>
    <linearGradient
       inkscape:collect="always"
       xlink:href="#linearGradient5487"
       id="linearGradient5493"
       x1="114.06013"
       y1="498.14694"
       x2="351.30087"
       y2="497.2016"
       gradientUnits="userSpaceOnUse"
       gradientTransform="matrix(1.6796328,0,0,1.4142928,-66.368887,-173.46989)" />
    <linearGradient
       inkscape:collect="always"
       xlink:href="#linearGradient5487"
       id="linearGradient6017"
       x1="170.35904"
       y1="441.11688"
       x2="382.39389"
       y2="439.65457"
       gradientUnits="userSpaceOnUse"
       gradientTransform="matrix(1.6796328,0,0,1.4142928,-66.368887,-173.46989)" />
  </defs>
  <metadata
     id="metadata7">
    <rdf:RDF>
      <cc:Work
         rdf:about="">
        <dc:format>image/svg+xml</dc:format>
        <dc:type
           rdf:resource="http://purl.org/dc/dcmitype/StillImage" />
        <dc:title></dc:title>
      </cc:Work>
    </rdf:RDF>
  </metadata>
  <g
     style="filter:url(#filter7753)"
     inkscape:label="Layer 1"
     inkscape:groupmode="layer"
     id="layer1">
    <g
       sodipodi:type="inkscape:box3d"
       style="fill:#faf500;fill-opacity:1;fill-rule:nonzero;stroke:#000000;stroke-opacity:1"
       id="g8365"
       inkscape:perspectiveID="#perspective7953"
       inkscape:corner0="2.5534531 : -0.52794326 : 0 : 1"
       inkscape:corner7="-2.456935 : -0.84636371 : 0.20674981 : 1">
      <path
         sodipodi:type="inkscape:box3dside"
         id="path8375"
         style="fill:#afafde;fill-rule:evenodd;stroke:#000000;stroke-opacity:1"
         inkscape:box3dsidetype="13"
         d="m 97.654029,639.67108 577.535961,0 61.822,-80.96787 -478.58799,0 z" />
      <path
         sodipodi:type="inkscape:box3dside"
         id="path8367"
         style="fill:#353564;fill-rule:evenodd;stroke:#000000;stroke-opacity:1"
         inkscape:box3dsidetype="6"
         d="m 97.654029,481.62142 0,158.04966 160.769971,-80.96787 0,-130.97135 z" />
      <path
         sodipodi:type="inkscape:box3dside"
         id="path8377"
         style="fill:#e9e9ff;fill-rule:evenodd;stroke:#000000;stroke-opacity:1"
         inkscape:box3dsidetype="11"
         d="m 258.424,427.73186 478.58799,0 0,130.97135 -478.58799,0 z" />
      <path
         sodipodi:type="inkscape:box3dside"
         id="path8369"
         style="fill:url(#linearGradient6017);fill-opacity:1;stroke:#000000;stroke-opacity:1"
         inkscape:box3dsidetype="5"
         d="m 97.654029,481.62142 577.535961,0 61.822,-53.88956 -478.58799,0 z" />
      <path
         sodipodi:type="inkscape:box3dside"
         id="path8373"
         style="fill:#8693ff;fill-opacity:1;stroke:#000000;stroke-opacity:1"
         inkscape:box3dsidetype="14"
         d="m 675.18999,481.62142 0,158.04966 61.822,-80.96787 0,-130.97135 z" />
      <path
         sodipodi:type="inkscape:box3dside"
         id="path8371"
         style="fill:url(#linearGradient5493);fill-opacity:1;stroke:#000000;stroke-opacity:1"
         inkscape:box3dsidetype="3"
         d="m 97.654029,481.62142 577.535961,0 0,158.04966 -577.535961,0 z" />
    </g>
    <path
       style="fill:none;stroke:#000000;stroke-width:1.09002769;stroke-opacity:1"
       d="m 218.50044,514.58153 c 0.57853,-1.56923 1.15707,-3.12371 1.7356,-4.14013 0.57854,-1.01642 1.15707,-1.4736 1.73561,-1.2204 0.57854,0.25321 1.15706,1.21574 1.7356,2.56 0.57855,1.34425 1.15707,3.0477 1.73561,4.535 0.57853,1.4873 1.15707,2.73034 1.7356,3.31181 0.57853,0.58146 1.15707,0.48747 1.73561,-0.24697 0.57852,-0.73444 1.15707,-2.09918 1.73561,-3.63158 0.57852,-1.53239 1.15706,-3.20542 1.73559,-4.45509 0.57854,-1.24966 1.15707,-2.05112 1.73561,-2.13676 0.57853,-0.0856 1.15707,0.54969 1.7356,1.68848 0.57854,1.13878 1.15708,2.76284 1.7356,4.32295 0.57854,1.5601 1.15707,3.02757 1.73561,3.90876 0.57854,0.8812 1.15707,1.15717 1.73561,0.73801 0.57853,-0.41916 1.15706,-1.5293 1.7356,-2.95321 0.57854,-1.42391 1.15706,-3.13726 1.7356,-4.56174 0.57853,-1.42449 1.15707,-2.53275 1.73561,-2.95322 0.57853,-0.42046 1.15707,-0.14206 1.7356,0.73801 0.57853,0.88007 1.15707,2.34881 1.7356,3.90877 0.57853,1.55995 1.15707,3.18322 1.7356,4.32295 0.57854,1.13972 1.15708,1.77275 1.73561,1.68847 0.57854,-0.0843 1.15708,-0.88791 1.73561,-2.13676 0.57854,-1.24884 1.15706,-2.9224 1.7356,-4.45509 0.57854,-1.53269 1.15706,-2.89593 1.7356,-3.63157 0.57854,-0.73564 1.15707,-0.82717 1.73561,-0.24697 0.57854,0.5802 1.15707,1.82494 1.73561,3.3118 0.57852,1.48687 1.15706,3.19005 1.7356,4.53501 0.57853,1.34496 1.15706,2.30545 1.7356,2.55999 0.57853,0.25454 1.15707,-0.20502 1.7356,-1.2204 0.57854,-1.01538 1.15708,-2.57089 1.7356,-4.14012"
       title="t 0.5*sin(2*pi*4*t)"
       id="path10528"
       inkscape:connector-curvature="0" />
  </g>
  <g
     inkscape:groupmode="layer"
     id="layer2"
     inkscape:label="Layer" />
</svg>
