<?xml version="1.0" encoding="UTF-8" standalone="no"?>
<!-- Created with Inkscape (http://www.inkscape.org/) -->

<svg
   xmlns:dc="http://purl.org/dc/elements/1.1/"
   xmlns:cc="http://creativecommons.org/ns#"
   xmlns:rdf="http://www.w3.org/1999/02/22-rdf-syntax-ns#"
   xmlns:svg="http://www.w3.org/2000/svg"
   xmlns="http://www.w3.org/2000/svg"
   xmlns:xlink="http://www.w3.org/1999/xlink"
   xmlns:sodipodi="http://sodipodi.sourceforge.net/DTD/sodipodi-0.dtd"
   xmlns:inkscape="http://www.inkscape.org/namespaces/inkscape"
   sodipodi:docname="scattering.svg"
   inkscape:version="0.48.3.1 r9886"
   version="1.1"
   id="svg2"
   height="1052.3622047"
   width="744.09448819"
   enable-background="new">
  <sodipodi:namedview
     id="base"
     pagecolor="#ffffff"
     bordercolor="#666666"
     borderopacity="1.0"
     inkscape:pageopacity="0.0"
     inkscape:pageshadow="2"
     inkscape:zoom="0.68384985"
     inkscape:cx="801.50627"
     inkscape:cy="846.84943"
     inkscape:document-units="px"
     inkscape:current-layer="layer1"
     showgrid="false"
     inkscape:window-width="1680"
     inkscape:window-height="974"
     inkscape:window-x="0"
     inkscape:window-y="24"
     inkscape:window-maximized="1"
     showborder="true"
     inkscape:snap-object-midpoints="true"
     showguides="true"
     inkscape:guide-bbox="true"
     gridtolerance="1"
     guidetolerance="1"
     objecttolerance="1" />
  <defs
     id="defs4">
    <linearGradient
       id="linearGradient9751">
      <stop
         style="stop-color:#ff0000;stop-opacity:0.64197531"
         offset="0"
         id="stop9753" />
      <stop
         style="stop-color:#21acff;stop-opacity:0.58436214"
         offset="1"
         id="stop9755" />
    </linearGradient>
    <marker
       inkscape:stockid="Arrow2Mend"
       orient="auto"
       refY="0.0"
       refX="0.0"
       id="Arrow2Mend"
       style="overflow:visible;">
      <path
         id="path8272"
         style="fill-rule:evenodd;stroke-width:0.62500000;stroke-linejoin:round;"
         d="M 8.7185878,4.0337352 L -2.2072895,0.016013256 L 8.7185884,-4.0017078 C 6.9730900,-1.6296469 6.9831476,1.6157441 8.7185878,4.0337352 z "
         transform="scale(0.6) rotate(180) translate(0,0)" />
    </marker>
    <marker
       inkscape:stockid="Arrow2Sstart"
       orient="auto"
       refY="0.0"
       refX="0.0"
       id="Arrow2Sstart"
       style="overflow:visible">
      <path
         id="path8275"
         style="fill-rule:evenodd;stroke-width:0.62500000;stroke-linejoin:round"
         d="M 8.7185878,4.0337352 L -2.2072895,0.016013256 L 8.7185884,-4.0017078 C 6.9730900,-1.6296469 6.9831476,1.6157441 8.7185878,4.0337352 z "
         transform="scale(0.3) translate(-2.3,0)" />
    </marker>
    <linearGradient
       id="linearGradient8022">
      <stop
         style="stop-color:#ff03ac;stop-opacity:1"
         offset="0"
         id="stop8024" />
      <stop
         style="stop-color:#00b0ee;stop-opacity:1"
         offset="1"
         id="stop8026" />
    </linearGradient>
    <linearGradient
       id="linearGradient8014">
      <stop
         style="stop-color:#ff0000;stop-opacity:0.63374486"
         offset="0"
         id="stop8016" />
      <stop
         style="stop-color:#21acfe;stop-opacity:1"
         offset="1"
         id="stop8018" />
    </linearGradient>
    <linearGradient
       id="linearGradient7996">
      <stop
         style="stop-color:#ff4100;stop-opacity:0.46118721"
         offset="0"
         id="stop7998" />
      <stop
         id="stop8006"
         offset="0.5"
         style="stop-color:#b88275;stop-opacity:1" />
      <stop
         style="stop-color:#00b1ea;stop-opacity:0.50684929"
         offset="1"
         id="stop8000" />
    </linearGradient>
    <linearGradient
       id="linearGradient7972">
      <stop
         id="stop7974"
         offset="0"
         style="stop-color:#2f83f3;stop-opacity:0.60000002;" />
      <stop
         style="stop-color:#17c179;stop-opacity:0.8;"
         offset="0.2530674"
         id="stop8004" />
      <stop
         style="stop-opacity:1;stop-color:#00ff00"
         offset="0.50613481"
         id="stop7976" />
      <stop
         style="stop-color:#e85c91;stop-opacity:0.49803922;"
         offset="1"
         id="stop7978" />
      <stop
         id="stop7980"
         offset="1"
         style="stop-color:#eca08f;stop-opacity:1" />
    </linearGradient>
    <linearGradient
       id="linearGradient7958">
      <stop
         id="stop7966"
         offset="0"
         style="stop-color:#e85c91;stop-opacity:0.49803922;" />
      <stop
         style="stop-color:#1e2dff;stop-opacity:1"
         offset="1"
         id="stop7962" />
    </linearGradient>
    <linearGradient
       id="linearGradient7934">
      <stop
         id="stop7936"
         offset="0"
         style="stop-color:#ff3a00;stop-opacity:1;" />
      <stop
         style="stop-color:#842b00;stop-opacity:0.74901961;"
         offset="0.11061519"
         id="stop7938" />
      <stop
         style="stop-color:#0a1d00;stop-opacity:0.49803922;"
         offset="0.5"
         id="stop7940" />
      <stop
         id="stop7942"
         offset="1"
         style="stop-color:#000000;stop-opacity:0;" />
    </linearGradient>
    <linearGradient
       id="linearGradient7906">
      <stop
         style="stop-color:#ff3a00;stop-opacity:1;"
         offset="0"
         id="stop7908" />
      <stop
         id="stop7932"
         offset="0.25"
         style="stop-color:#842b00;stop-opacity:0.74901961;" />
      <stop
         id="stop7930"
         offset="0.5"
         style="stop-color:#0a1d00;stop-opacity:0.49803922;" />
      <stop
         style="stop-color:#000000;stop-opacity:0;"
         offset="1"
         id="stop7910" />
    </linearGradient>
    <linearGradient
       id="linearGradient5487">
      <stop
         id="stop7896"
         offset="0"
         style="stop-color:#e06935;stop-opacity:0.74901961;" />
      <stop
         style="stop-color:#d1c6de;stop-opacity:0.62352943;"
         offset="0.25"
         id="stop7898" />
      <stop
         id="stop7900"
         offset="0.375"
         style="stop-color:#c9ada0;stop-opacity:0.56078431;" />
      <stop
         id="stop6009"
         offset="0.5"
         style="stop-color:#c29463;stop-opacity:0.49803922;" />
      <stop
         style="stop-color:#86e9bf;stop-opacity:0;"
         offset="1"
         id="stop5491" />
    </linearGradient>
    <inkscape:perspective
       sodipodi:type="inkscape:persp3d"
       inkscape:vp_x="-68.626729 : 3.6424866e-14 : 0"
       inkscape:vp_y="0 : 352.97527 : 0"
       inkscape:vp_z="657.63603 : 811.43841 : 1"
       inkscape:persp3d-origin="277.84748 : 774.87767 : 1"
       id="perspective9821" />
    <inkscape:perspective
       sodipodi:type="inkscape:persp3d"
       inkscape:vp_x="-106.94622 : 4.3291645e-14 : 0"
       inkscape:vp_y="0 : 419.5178 : 0"
       inkscape:vp_z="566.5369 : 530.90093 : 1"
       inkscape:persp3d-origin="294.85891 : 492.65175 : 1"
       id="perspective8110" />
    <inkscape:perspective
       id="perspective7953"
       inkscape:persp3d-origin="391.98472 : 832.78817 : 1"
       inkscape:vp_z="1036.0304 : 885.2814 : 1"
       inkscape:vp_y="0 : 496.35524 : 0"
       inkscape:vp_x="-115.26771 : 0 : 0"
       sodipodi:type="inkscape:persp3d" />
    <inkscape:perspective
       id="perspective7641"
       inkscape:persp3d-origin="372.04724 : 350.78739 : 1"
       inkscape:vp_z="734.54432 : 478.75417 : 1"
       inkscape:vp_y="0 : 1000 : 0"
       inkscape:vp_x="-325.50355 : 3.9861371e-14 : 0"
       sodipodi:type="inkscape:persp3d" />
    <marker
       style="overflow:visible;"
       id="Arrow2Lend"
       refX="0.0"
       refY="0.0"
       orient="auto"
       inkscape:stockid="Arrow2Lend">
      <path
         transform="scale(1.1) rotate(180) translate(1,0)"
         d="M 8.7185878,4.0337352 L -2.2072895,0.016013256 L 8.7185884,-4.0017078 C 6.9730900,-1.6296469 6.9831476,1.6157441 8.7185878,4.0337352 z "
         style="fill-rule:evenodd;stroke-width:0.62500000;stroke-linejoin:round;"
         id="path6465" />
    </marker>
    <filter
       id="filter7753"
       inkscape:collect="always">
      <feBlend
         id="feBlend7755"
         in2="BackgroundImage"
         mode="multiply"
         inkscape:collect="always" />
    </filter>
    <linearGradient
       inkscape:collect="always"
       xlink:href="#linearGradient8022"
       id="linearGradient8028"
       x1="109.26427"
       y1="171.668"
       x2="664.86768"
       y2="171.38666"
       gradientUnits="userSpaceOnUse"
       gradientTransform="matrix(1.0019541,0,0,0.99032353,-27.875926,4.2565734)" />
    <linearGradient
       inkscape:collect="always"
       xlink:href="#linearGradient8014"
       id="linearGradient8883"
       gradientUnits="userSpaceOnUse"
       x1="123.17249"
       y1="218.91171"
       x2="659.91742"
       y2="219.92421"
       gradientTransform="matrix(0.99665019,0,0,0.99729534,-25.971502,3.5164851)" />
    <marker
       inkscape:stockid="Arrow2Mend"
       orient="auto"
       refY="0"
       refX="0"
       id="Arrow2Mend-1"
       style="overflow:visible">
      <path
         inkscape:connector-curvature="0"
         id="path8272-6"
         style="fill-rule:evenodd;stroke-width:0.625;stroke-linejoin:round"
         d="M 8.7185878,4.0337352 -2.2072895,0.01601326 8.7185884,-4.0017078 c -1.7454984,2.3720609 -1.7354408,5.6174519 -6e-7,8.035443 z"
         transform="scale(-0.6,-0.6)" />
    </marker>
    <marker
       inkscape:stockid="Arrow2Mend"
       orient="auto"
       refY="0"
       refX="0"
       id="Arrow2Mend-9"
       style="overflow:visible">
      <path
         inkscape:connector-curvature="0"
         id="path8272-7"
         style="fill-rule:evenodd;stroke-width:0.625;stroke-linejoin:round"
         d="M 8.7185878,4.0337352 -2.2072895,0.01601326 8.7185884,-4.0017078 c -1.7454984,2.3720609 -1.7354408,5.6174519 -6e-7,8.035443 z"
         transform="scale(-0.6,-0.6)" />
    </marker>
    <marker
       inkscape:stockid="Arrow2Mend"
       orient="auto"
       refY="0"
       refX="0"
       id="Arrow2Mend-5"
       style="overflow:visible">
      <path
         inkscape:connector-curvature="0"
         id="path8272-60"
         style="fill-rule:evenodd;stroke-width:0.625;stroke-linejoin:round"
         d="M 8.7185878,4.0337352 -2.2072895,0.01601326 8.7185884,-4.0017078 c -1.7454984,2.3720609 -1.7354408,5.6174519 -6e-7,8.035443 z"
         transform="scale(-0.6,-0.6)" />
    </marker>
    <marker
       inkscape:stockid="Arrow2Mend"
       orient="auto"
       refY="0"
       refX="0"
       id="Arrow2Mend-5-0"
       style="overflow:visible">
      <path
         inkscape:connector-curvature="0"
         id="path8272-60-2"
         style="fill-rule:evenodd;stroke-width:0.625;stroke-linejoin:round"
         d="M 8.7185878,4.0337352 -2.2072895,0.01601326 8.7185884,-4.0017078 c -1.7454984,2.3720609 -1.7354408,5.6174519 -6e-7,8.035443 z"
         transform="scale(-0.6,-0.6)" />
    </marker>
    <filter
       color-interpolation-filters="sRGB"
       id="filter7753-8"
       inkscape:collect="always">
      <feBlend
         id="feBlend7755-5"
         in2="BackgroundImage"
         mode="multiply"
         inkscape:collect="always" />
    </filter>
    <marker
       inkscape:stockid="Arrow2Mend"
       orient="auto"
       refY="0"
       refX="0"
       id="Arrow2Mend-5-7"
       style="overflow:visible">
      <path
         inkscape:connector-curvature="0"
         id="path8272-60-5"
         style="fill-rule:evenodd;stroke-width:0.625;stroke-linejoin:round"
         d="M 8.7185878,4.0337352 -2.2072895,0.01601326 8.7185884,-4.0017078 c -1.7454984,2.3720609 -1.7354408,5.6174519 -6e-7,8.035443 z"
         transform="scale(-0.6,-0.6)" />
    </marker>
    <filter
       color-interpolation-filters="sRGB"
       id="filter7753-8-6"
       inkscape:collect="always">
      <feBlend
         id="feBlend7755-5-3"
         in2="BackgroundImage"
         mode="multiply"
         inkscape:collect="always" />
    </filter>
    <marker
       inkscape:stockid="Arrow2Mend"
       orient="auto"
       refY="0"
       refX="0"
       id="Arrow2Mend-5-9"
       style="overflow:visible">
      <path
         inkscape:connector-curvature="0"
         id="path8272-60-1"
         style="fill-rule:evenodd;stroke-width:0.625;stroke-linejoin:round"
         d="M 8.7185878,4.0337352 -2.2072895,0.01601326 8.7185884,-4.0017078 c -1.7454984,2.3720609 -1.7354408,5.6174519 -6e-7,8.035443 z"
         transform="scale(-0.6,-0.6)" />
    </marker>
    <filter
       color-interpolation-filters="sRGB"
       id="filter7753-8-2"
       inkscape:collect="always">
      <feBlend
         id="feBlend7755-5-5"
         in2="BackgroundImage"
         mode="multiply"
         inkscape:collect="always" />
    </filter>
    <marker
       inkscape:stockid="Arrow2Mend"
       orient="auto"
       refY="0"
       refX="0"
       id="Arrow2Mend-5-1"
       style="overflow:visible">
      <path
         inkscape:connector-curvature="0"
         id="path8272-60-7"
         style="fill-rule:evenodd;stroke-width:0.625;stroke-linejoin:round"
         d="M 8.7185878,4.0337352 -2.2072895,0.01601326 8.7185884,-4.0017078 c -1.7454984,2.3720609 -1.7354408,5.6174519 -6e-7,8.035443 z"
         transform="scale(-0.6,-0.6)" />
    </marker>
    <filter
       color-interpolation-filters="sRGB"
       id="filter7753-8-7"
       inkscape:collect="always">
      <feBlend
         id="feBlend7755-5-6"
         in2="BackgroundImage"
         mode="multiply"
         inkscape:collect="always" />
    </filter>
    <marker
       inkscape:stockid="Arrow2Mend"
       orient="auto"
       refY="0"
       refX="0"
       id="Arrow2Mend-5-5"
       style="overflow:visible">
      <path
         inkscape:connector-curvature="0"
         id="path8272-60-0"
         style="fill-rule:evenodd;stroke-width:0.625;stroke-linejoin:round"
         d="M 8.7185878,4.0337352 -2.2072895,0.01601326 8.7185884,-4.0017078 c -1.7454984,2.3720609 -1.7354408,5.6174519 -6e-7,8.035443 z"
         transform="scale(-0.6,-0.6)" />
    </marker>
    <filter
       color-interpolation-filters="sRGB"
       id="filter7753-8-7-7"
       inkscape:collect="always">
      <feBlend
         id="feBlend7755-5-6-4"
         in2="BackgroundImage"
         mode="multiply"
         inkscape:collect="always" />
    </filter>
    <marker
       inkscape:stockid="Arrow2Mend"
       orient="auto"
       refY="0"
       refX="0"
       id="Arrow2Mend-5-4"
       style="overflow:visible">
      <path
         inkscape:connector-curvature="0"
         id="path8272-60-9"
         style="fill-rule:evenodd;stroke-width:0.625;stroke-linejoin:round"
         d="M 8.7185878,4.0337352 -2.2072895,0.01601326 8.7185884,-4.0017078 c -1.7454984,2.3720609 -1.7354408,5.6174519 -6e-7,8.035443 z"
         transform="scale(-0.6,-0.6)" />
    </marker>
    <filter
       color-interpolation-filters="sRGB"
       id="filter7753-8-7-7-3"
       inkscape:collect="always">
      <feBlend
         id="feBlend7755-5-6-4-9"
         in2="BackgroundImage"
         mode="multiply"
         inkscape:collect="always" />
    </filter>
    <marker
       inkscape:stockid="Arrow2Mend"
       orient="auto"
       refY="0"
       refX="0"
       id="Arrow2Mend-5-12"
       style="overflow:visible">
      <path
         inkscape:connector-curvature="0"
         id="path8272-60-6"
         style="fill-rule:evenodd;stroke-width:0.625;stroke-linejoin:round"
         d="M 8.7185878,4.0337352 -2.2072895,0.01601326 8.7185884,-4.0017078 c -1.7454984,2.3720609 -1.7354408,5.6174519 -6e-7,8.035443 z"
         transform="scale(-0.6,-0.6)" />
    </marker>
    <linearGradient
       inkscape:collect="always"
       xlink:href="#linearGradient9751"
       id="linearGradient9757"
       x1="95.050102"
       y1="348.99139"
       x2="628.73474"
       y2="344.60449"
       gradientUnits="userSpaceOnUse" />
    <marker
       inkscape:stockid="Arrow2Mend"
       orient="auto"
       refY="0"
       refX="0"
       id="Arrow2Mend-5-8"
       style="overflow:visible">
      <path
         inkscape:connector-curvature="0"
         id="path8272-60-60"
         style="fill-rule:evenodd;stroke-width:0.625;stroke-linejoin:round"
         d="M 8.7185878,4.0337352 -2.2072895,0.01601326 8.7185884,-4.0017078 c -1.7454984,2.3720609 -1.7354408,5.6174519 -6e-7,8.035443 z"
         transform="scale(-0.6,-0.6)" />
    </marker>
    <filter
       color-interpolation-filters="sRGB"
       id="filter7753-87"
       inkscape:collect="always">
      <feBlend
         id="feBlend7755-6"
         in2="BackgroundImage"
         mode="multiply"
         inkscape:collect="always" />
    </filter>
    <filter
       color-interpolation-filters="sRGB"
       id="filter7753-5"
       inkscape:collect="always">
      <feBlend
         id="feBlend7755-1"
         in2="BackgroundImage"
         mode="multiply"
         inkscape:collect="always" />
    </filter>
    <marker
       inkscape:stockid="Arrow2Mend"
       orient="auto"
       refY="0"
       refX="0"
       id="Arrow2Mend-5-6"
       style="overflow:visible">
      <path
         inkscape:connector-curvature="0"
         id="path8272-60-08"
         style="fill-rule:evenodd;stroke-width:0.625;stroke-linejoin:round"
         d="M 8.7185878,4.0337352 -2.2072895,0.01601326 8.7185884,-4.0017078 c -1.7454984,2.3720609 -1.7354408,5.6174519 -6e-7,8.035443 z"
         transform="scale(-0.6,-0.6)" />
    </marker>
    <filter
       color-interpolation-filters="sRGB"
       id="filter7753-5-9"
       inkscape:collect="always">
      <feBlend
         id="feBlend7755-1-6"
         in2="BackgroundImage"
         mode="multiply"
         inkscape:collect="always" />
    </filter>
    <marker
       inkscape:stockid="Arrow2Mend"
       orient="auto"
       refY="0"
       refX="0"
       id="Arrow2Mend-5-94"
       style="overflow:visible">
      <path
         inkscape:connector-curvature="0"
         id="path8272-60-53"
         style="fill-rule:evenodd;stroke-width:0.625;stroke-linejoin:round"
         d="M 8.7185878,4.0337352 -2.2072895,0.01601326 8.7185884,-4.0017078 c -1.7454984,2.3720609 -1.7354408,5.6174519 -6e-7,8.035443 z"
         transform="scale(-0.6,-0.6)" />
    </marker>
    <filter
       color-interpolation-filters="sRGB"
       id="filter7753-5-9-2"
       inkscape:collect="always">
      <feBlend
         id="feBlend7755-1-6-5"
         in2="BackgroundImage"
         mode="multiply"
         inkscape:collect="always" />
    </filter>
    <marker
       inkscape:stockid="Arrow2Mend"
       orient="auto"
       refY="0"
       refX="0"
       id="Arrow2Mend-5-93"
       style="overflow:visible">
      <path
         inkscape:connector-curvature="0"
         id="path8272-60-58"
         style="fill-rule:evenodd;stroke-width:0.625;stroke-linejoin:round"
         d="M 8.7185878,4.0337352 -2.2072895,0.01601326 8.7185884,-4.0017078 c -1.7454984,2.3720609 -1.7354408,5.6174519 -6e-7,8.035443 z"
         transform="scale(-0.6,-0.6)" />
    </marker>
    <filter
       color-interpolation-filters="sRGB"
       id="filter7753-5-9-2-9"
       inkscape:collect="always">
      <feBlend
         id="feBlend7755-1-6-5-8"
         in2="BackgroundImage"
         mode="multiply"
         inkscape:collect="always" />
    </filter>
    <marker
       inkscape:stockid="Arrow2Mend"
       orient="auto"
       refY="0"
       refX="0"
       id="Arrow2Mend-5-2"
       style="overflow:visible">
      <path
         inkscape:connector-curvature="0"
         id="path8272-60-73"
         style="fill-rule:evenodd;stroke-width:0.625;stroke-linejoin:round"
         d="M 8.7185878,4.0337352 -2.2072895,0.01601326 8.7185884,-4.0017078 c -1.7454984,2.3720609 -1.7354408,5.6174519 -6e-7,8.035443 z"
         transform="scale(-0.6,-0.6)" />
    </marker>
    <filter
       color-interpolation-filters="sRGB"
       id="filter7753-5-9-2-9-0"
       inkscape:collect="always">
      <feBlend
         id="feBlend7755-1-6-5-8-1"
         in2="BackgroundImage"
         mode="multiply"
         inkscape:collect="always" />
    </filter>
    <marker
       inkscape:stockid="Arrow2Mend"
       orient="auto"
       refY="0"
       refX="0"
       id="Arrow2Mend-5-42"
       style="overflow:visible">
      <path
         inkscape:connector-curvature="0"
         id="path8272-60-62"
         style="fill-rule:evenodd;stroke-width:0.625;stroke-linejoin:round"
         d="M 8.7185878,4.0337352 -2.2072895,0.01601326 8.7185884,-4.0017078 c -1.7454984,2.3720609 -1.7354408,5.6174519 -6e-7,8.035443 z"
         transform="scale(-0.6,-0.6)" />
    </marker>
    <filter
       color-interpolation-filters="sRGB"
       id="filter7753-5-9-2-9-0-1"
       inkscape:collect="always">
      <feBlend
         id="feBlend7755-1-6-5-8-1-1"
         in2="BackgroundImage"
         mode="multiply"
         inkscape:collect="always" />
    </filter>
    <marker
       inkscape:stockid="Arrow2Mend"
       orient="auto"
       refY="0"
       refX="0"
       id="Arrow2Mend-5-50"
       style="overflow:visible">
      <path
         inkscape:connector-curvature="0"
         id="path8272-60-4"
         style="fill-rule:evenodd;stroke-width:0.625;stroke-linejoin:round"
         d="M 8.7185878,4.0337352 -2.2072895,0.01601326 8.7185884,-4.0017078 c -1.7454984,2.3720609 -1.7354408,5.6174519 -6e-7,8.035443 z"
         transform="scale(-0.6,-0.6)" />
    </marker>
    <marker
       inkscape:stockid="Arrow2Mend"
       orient="auto"
       refY="0"
       refX="0"
       id="Arrow2Mend-5-56"
       style="overflow:visible">
      <path
         inkscape:connector-curvature="0"
         id="path8272-60-07"
         style="fill-rule:evenodd;stroke-width:0.625;stroke-linejoin:round"
         d="M 8.7185878,4.0337352 -2.2072895,0.01601326 8.7185884,-4.0017078 c -1.7454984,2.3720609 -1.7354408,5.6174519 -6e-7,8.035443 z"
         transform="scale(-0.6,-0.6)" />
    </marker>
    <marker
       inkscape:stockid="Arrow2Mend"
       orient="auto"
       refY="0"
       refX="0"
       id="Arrow2Mend-5-84"
       style="overflow:visible">
      <path
         inkscape:connector-curvature="0"
         id="path8272-60-95"
         style="fill-rule:evenodd;stroke-width:0.625;stroke-linejoin:round"
         d="M 8.7185878,4.0337352 -2.2072895,0.01601326 8.7185884,-4.0017078 c -1.7454984,2.3720609 -1.7354408,5.6174519 -6e-7,8.035443 z"
         transform="scale(-0.6,-0.6)" />
    </marker>
  </defs>
  <metadata
     id="metadata7">
    <rdf:RDF>
      <cc:Work
         rdf:about="">
        <dc:format>image/svg+xml</dc:format>
        <dc:type
           rdf:resource="http://purl.org/dc/dcmitype/StillImage" />
        <dc:title></dc:title>
      </cc:Work>
    </rdf:RDF>
  </metadata>
  <g
     style="filter:url(#filter7753)"
     inkscape:label="Layer 1"
     inkscape:groupmode="layer"
     id="layer1">
    <rect
       style="opacity:0.58436213000000004;fill:url(#linearGradient8028);fill-opacity:1;fill-rule:evenodd;stroke:#000003;stroke-width:1.098;stroke-miterlimit:4;stroke-opacity:1;stroke-dasharray:none;stroke-dashoffset:0"
       id="rect8010"
       width="277.65585"
       height="142.33646"
       x="362.70724"
       y="116.64062" />
    <rect
       style="fill:url(#linearGradient8883);fill-opacity:1;fill-rule:evenodd;stroke:#000003;stroke-width:1.098;stroke-miterlimit:4;stroke-opacity:1;stroke-dasharray:none;stroke-dashoffset:0"
       id="rect8008"
       width="307.10245"
       height="142.30728"
       x="55.441563"
       y="116.69173"
       ry="0" />
    <g
       id="g9423"
       transform="matrix(0.61239185,0.79055437,-0.79055437,0.61239185,334.03701,-107.81065)">
      <g
         transform="matrix(0.99999908,-6.6009879e-4,0.00135843,0.48592727,-6.4338801,175.39135)"
         id="g8875">
        <path
           style="fill:none;stroke:#000000;stroke-width:1.58099997;stroke-miterlimit:4;stroke-opacity:1;stroke-dasharray:none"
           d="m 136.81374,330.23396 c 0.57853,3.30215 1.15707,6.57325 1.7356,8.71211 0.57854,2.13886 1.15707,3.10091 1.73561,2.5681 0.57854,-0.53283 1.15706,-2.55829 1.7356,-5.38703 0.57855,-2.82872 1.15707,-6.4133 1.73561,-9.54303 0.57853,-3.12974 1.15707,-5.74548 1.7356,-6.96907 0.57853,-1.22357 1.15707,-1.02579 1.73561,0.5197 0.57852,1.54549 1.15707,4.41732 1.73561,7.64196 0.57852,3.22462 1.15706,6.74519 1.73559,9.37488 0.57854,2.62967 1.15707,4.31619 1.73561,4.4964 0.57853,0.18013 1.15707,-1.15672 1.7356,-3.55308 0.57854,-2.39634 1.15708,-5.81387 1.7356,-9.09682 0.57854,-3.28293 1.15707,-6.37094 1.73561,-8.22523 0.57854,-1.85432 1.15707,-2.43504 1.73561,-1.553 0.57853,0.88204 1.15706,3.21812 1.7356,6.21446 0.57854,2.99635 1.15706,6.60176 1.7356,9.59931 0.57853,2.99756 1.15707,5.32968 1.73561,6.21448 0.57853,0.88478 1.15707,0.29894 1.7356,-1.553 0.57853,-1.85194 1.15707,-4.94262 1.7356,-8.22526 0.57853,-3.28261 1.15707,-6.69847 1.7356,-9.09681 0.57854,-2.39832 1.15708,-3.73041 1.73561,-3.55306 0.57854,0.17739 1.15708,1.86843 1.73561,4.4964 0.57854,2.62794 1.15706,6.14963 1.7356,9.37488 0.57854,3.22525 1.15706,6.09392 1.7356,7.64194 0.57854,1.54801 1.15707,1.74062 1.73561,0.5197 0.57854,-1.22092 1.15707,-3.84024 1.73561,-6.96905 0.57852,-3.12883 1.15706,-6.71284 1.7356,-9.54305 0.57853,-2.83021 1.15706,-4.85138 1.7356,-5.38701 0.57853,-0.53563 1.15707,0.43143 1.7356,2.5681 0.57854,2.13667 1.15708,5.40994 1.7356,8.71208"
           title="t 0.5*sin(2*pi*4*t)"
           id="path10528"
           inkscape:connector-curvature="0" />
      </g>
      <path
         inkscape:connector-curvature="0"
         id="path8057"
         d="m 180.95981,335.03906 c 0,0 0.5659,2.74121 1.23944,2.74046 0.67357,-7.4e-4 12.79746,-0.10555 12.79746,-0.10555"
         style="fill:none;stroke:#000000;stroke-width:1.54226148;stroke-linecap:butt;stroke-linejoin:miter;stroke-miterlimit:4;stroke-opacity:1;stroke-dasharray:none;marker-end:url(#Arrow2Mend-5)" />
    </g>
    <flowRoot
       xml:space="preserve"
       id="flowRoot9714"
       style="font-size:24px;font-style:normal;font-weight:normal;line-height:125%;letter-spacing:0px;word-spacing:0px;fill:#000000;fill-opacity:1;stroke:none;font-family:Bitstream Vera Sans"><flowRegion
         id="flowRegion9716"><rect
           id="rect9718"
           width="48.598415"
           height="40.326344"
           x="65.142555"
           y="123.82226"
           style="font-size:24px" /></flowRegion><flowPara
         id="flowPara9720">(a)</flowPara></flowRoot>    <rect
       style="opacity:1;fill:url(#linearGradient9757);fill-opacity:1;fill-rule:evenodd;stroke:#000003;stroke-width:1.06346988999999992;stroke-linejoin:miter;stroke-miterlimit:4;stroke-opacity:1;stroke-dasharray:none;stroke-dashoffset:0"
       id="rect9749"
       width="585.63049"
       height="136.48917"
       x="55.45496"
       y="278.92358" />
    <flowRoot
       xml:space="preserve"
       id="flowRoot9792"
       style="font-size:16px;font-style:normal;font-weight:normal;line-height:125%;letter-spacing:0px;word-spacing:0px;fill:#000000;fill-opacity:1;stroke:none;font-family:Bitstream Vera Sans"><flowRegion
         id="flowRegion9794"><rect
           id="rect9796"
           width="17.57815"
           height="17.061146"
           x="187.67261"
           y="208.61098" /></flowRegion><flowPara
         id="flowPara9798">(1)</flowPara></flowRoot>    <text
       xml:space="preserve"
       style="font-size:16px;font-style:normal;font-weight:normal;line-height:125%;letter-spacing:0px;word-spacing:0px;fill:#000000;fill-opacity:1;stroke:none;font-family:Bitstream Vera Sans"
       x="215.59084"
       y="251.00534"
       id="text9800"
       sodipodi:linespacing="125%"><tspan
         sodipodi:role="line"
         id="tspan9802"
         x="215.59084"
         y="251.00534">(1)</tspan></text>
    <flowRoot
       xml:space="preserve"
       id="flowRoot10086"
       style="fill:black;stroke:none;stroke-opacity:1;stroke-width:1px;stroke-linejoin:miter;stroke-linecap:butt;fill-opacity:1;font-family:Bitstream Vera Sans;font-style:normal;font-weight:normal;font-size:16px;line-height:125%;letter-spacing:0px;word-spacing:0px"><flowRegion
         id="flowRegion10088"><rect
           id="rect10090"
           width="45.496387"
           height="35.1563"
           x="381.54926"
           y="313.04587" /></flowRegion><flowPara
         id="flowPara10092" /></flowRoot>    <g
       id="g10732"
       transform="matrix(0.7586572,0,0,0.5372064,92.235565,111.29413)">
      <g
         word-spacing="normal"
         letter-spacing="normal"
         font-size-adjust="none"
         font-stretch="normal"
         font-weight="normal"
         font-variant="normal"
         font-style="normal"
         stroke-miterlimit="10.433"
         xml:space="preserve"
         transform="matrix(1.0629921,0,0,-1.0629921,-186.02362,789.27165)"
         id="content"
         style="font-style:normal;font-variant:normal;font-weight:normal;font-stretch:normal;letter-spacing:normal;word-spacing:normal;text-anchor:start;fill:none;stroke:#000000;stroke-linecap:butt;stroke-linejoin:miter;stroke-miterlimit:10.43299961;stroke-opacity:1;stroke-dasharray:none;stroke-dashoffset:0"><path
           id="path10735"
           d="m 473.96,440.82 -0.02,0.05 -0.01,0.04 -0.01,0.04 -0.02,0.04 -0.01,0.04 -0.02,0.04 -0.02,0.07 -0.03,0.07 -0.03,0.06 -0.03,0.06 -0.03,0.06 -0.03,0.05 -0.03,0.05 -0.03,0.04 -0.03,0.04 -0.03,0.04 -0.04,0.04 -0.03,0.03 -0.03,0.02 -0.04,0.03 -0.03,0.02 -0.04,0.02 -0.03,0.02 -0.04,0.02 -0.04,0.01 -0.04,0.01 -0.04,0.01 -0.05,0.01 -0.04,0.01 -0.04,0 -0.05,0.01 -0.05,0 -0.05,0 -0.05,0 -0.05,0 c -0.8,0 -0.89,-0.2 -1.14,-1.05 l -9.56,-29.64 c -0.5,-1.5 -1.5,-3.43 -4.99,-3.43 v -1.55 c 1.64,0.09 4.19,0.16 4.64,0.16 1.44,0 4.08,-0.11 5.63,-0.16 v 1.55 c -2.69,0.04 -3.84,1.39 -3.84,2.59 0,0.25 0,0.39 0.25,1.09 l 7.48,23.22 7.86,-24.51 c 0.25,-0.71 0.25,-0.8 0.25,-0.89 0,-1.5 -2.94,-1.5 -4.24,-1.5 v -1.55 c 1.75,0.16 5.29,0.16 7.18,0.16 1.95,0 4.18,-0.11 6.14,-0.16 v 1.55 c -3.8,0 -3.94,0.29 -4.55,2.14 z"
           inkscape:connector-curvature="0"
           style="fill:#000000;stroke-width:0" /></g>    </g>
    <g
       id="g10986"
       transform="matrix(-0.00472316,1.1159861,-1.1158807,0.00988361,647.37385,-199.46588)"
       style="stroke-width:2;stroke-miterlimit:4;stroke-dasharray:none">
      <g
         id="g12285">
        <path
           style="fill:none;stroke:#000000;stroke-width:2;stroke-linecap:butt;stroke-linejoin:miter;stroke-miterlimit:4;stroke-opacity:1;stroke-dasharray:none"
           d="m 437.75326,332.37557 c 0,0 -8.28562,-7.12882 -5.14578,-10.23415 3.13982,-3.10532 16.35184,-15.91674 16.2261,-16.68624 -0.12574,-0.76951 -3.20811,-7.8089 -3.20811,-7.8089"
           id="path10966"
           inkscape:connector-curvature="0" />
        <path
           inkscape:transform-center-x="5.6870485"
           inkscape:connector-curvature="0"
           id="path12283"
           d="m 480.37512,290.03365 c 0,0 -7.16936,-8.25057 -10.25926,-5.09555 -3.08989,3.15501 -15.83638,16.42967 -16.60649,16.30771 -0.77012,-0.12197 -7.82453,-3.16979 -7.82453,-3.16979"
           style="fill:none;stroke:#000000;stroke-width:2;stroke-linecap:butt;stroke-linejoin:miter;stroke-miterlimit:4;stroke-opacity:1;stroke-dasharray:none" />
      </g>
    </g>
    <g
       transform="matrix(0.86354575,0.50427049,-0.50427049,0.86354575,361.06144,-210.26398)"
       id="g12026">
      <g
         id="g12028"
         transform="matrix(0.99999908,-6.6009879e-4,0.00135843,0.48592727,-6.4338801,175.39135)">
        <path
           inkscape:connector-curvature="0"
           id="path12030"
           title="t 0.5*sin(2*pi*4*t)"
           d="m 136.81374,330.23396 c 0.57853,3.30215 1.15707,6.57325 1.7356,8.71211 0.57854,2.13886 1.15707,3.10091 1.73561,2.5681 0.57854,-0.53283 1.15706,-2.55829 1.7356,-5.38703 0.57855,-2.82872 1.15707,-6.4133 1.73561,-9.54303 0.57853,-3.12974 1.15707,-5.74548 1.7356,-6.96907 0.57853,-1.22357 1.15707,-1.02579 1.73561,0.5197 0.57852,1.54549 1.15707,4.41732 1.73561,7.64196 0.57852,3.22462 1.15706,6.74519 1.73559,9.37488 0.57854,2.62967 1.15707,4.31619 1.73561,4.4964 0.57853,0.18013 1.15707,-1.15672 1.7356,-3.55308 0.57854,-2.39634 1.15708,-5.81387 1.7356,-9.09682 0.57854,-3.28293 1.15707,-6.37094 1.73561,-8.22523 0.57854,-1.85432 1.15707,-2.43504 1.73561,-1.553 0.57853,0.88204 1.15706,3.21812 1.7356,6.21446 0.57854,2.99635 1.15706,6.60176 1.7356,9.59931 0.57853,2.99756 1.15707,5.32968 1.73561,6.21448 0.57853,0.88478 1.15707,0.29894 1.7356,-1.553 0.57853,-1.85194 1.15707,-4.94262 1.7356,-8.22526 0.57853,-3.28261 1.15707,-6.69847 1.7356,-9.09681 0.57854,-2.39832 1.15708,-3.73041 1.73561,-3.55306 0.57854,0.17739 1.15708,1.86843 1.73561,4.4964 0.57854,2.62794 1.15706,6.14963 1.7356,9.37488 0.57854,3.22525 1.15706,6.09392 1.7356,7.64194 0.57854,1.54801 1.15707,1.74062 1.73561,0.5197 0.57854,-1.22092 1.15707,-3.84024 1.73561,-6.96905 0.57852,-3.12883 1.15706,-6.71284 1.7356,-9.54305 0.57853,-2.83021 1.15706,-4.85138 1.7356,-5.38701 0.57853,-0.53563 1.15707,0.43143 1.7356,2.5681 0.57854,2.13667 1.15708,5.40994 1.7356,8.71208"
           style="fill:none;stroke:#000000;stroke-width:1.58099997;stroke-miterlimit:4;stroke-opacity:1;stroke-dasharray:none" />
      </g>
      <path
         style="fill:none;stroke:#000000;stroke-width:1.54226148;stroke-linecap:butt;stroke-linejoin:miter;stroke-miterlimit:4;stroke-opacity:1;stroke-dasharray:none;marker-end:url(#Arrow2Mend-5)"
         d="m 180.95981,335.03906 c 0,0 0.5659,2.74121 1.23944,2.74046 0.67357,-7.4e-4 12.79746,-0.10555 12.79746,-0.10555"
         id="path12032"
         inkscape:connector-curvature="0" />
    </g>
    <g
       id="g12067"
       transform="matrix(0.98681052,0.16187955,-0.16187955,0.98681052,292.06746,-169.77374)"
       style="opacity:0.40094652">
      <g
         transform="matrix(0.99999908,-6.6009879e-4,0.00135843,0.48592727,-6.4338801,175.39135)"
         id="g12069">
        <path
           style="fill:none;stroke:#000000;stroke-width:1.58099997;stroke-miterlimit:4;stroke-opacity:1;stroke-dasharray:none"
           d="m 136.81374,330.23396 c 0.57853,3.30215 1.15707,6.57325 1.7356,8.71211 0.57854,2.13886 1.15707,3.10091 1.73561,2.5681 0.57854,-0.53283 1.15706,-2.55829 1.7356,-5.38703 0.57855,-2.82872 1.15707,-6.4133 1.73561,-9.54303 0.57853,-3.12974 1.15707,-5.74548 1.7356,-6.96907 0.57853,-1.22357 1.15707,-1.02579 1.73561,0.5197 0.57852,1.54549 1.15707,4.41732 1.73561,7.64196 0.57852,3.22462 1.15706,6.74519 1.73559,9.37488 0.57854,2.62967 1.15707,4.31619 1.73561,4.4964 0.57853,0.18013 1.15707,-1.15672 1.7356,-3.55308 0.57854,-2.39634 1.15708,-5.81387 1.7356,-9.09682 0.57854,-3.28293 1.15707,-6.37094 1.73561,-8.22523 0.57854,-1.85432 1.15707,-2.43504 1.73561,-1.553 0.57853,0.88204 1.15706,3.21812 1.7356,6.21446 0.57854,2.99635 1.15706,6.60176 1.7356,9.59931 0.57853,2.99756 1.15707,5.32968 1.73561,6.21448 0.57853,0.88478 1.15707,0.29894 1.7356,-1.553 0.57853,-1.85194 1.15707,-4.94262 1.7356,-8.22526 0.57853,-3.28261 1.15707,-6.69847 1.7356,-9.09681 0.57854,-2.39832 1.15708,-3.73041 1.73561,-3.55306 0.57854,0.17739 1.15708,1.86843 1.73561,4.4964 0.57854,2.62794 1.15706,6.14963 1.7356,9.37488 0.57854,3.22525 1.15706,6.09392 1.7356,7.64194 0.57854,1.54801 1.15707,1.74062 1.73561,0.5197 0.57854,-1.22092 1.15707,-3.84024 1.73561,-6.96905 0.57852,-3.12883 1.15706,-6.71284 1.7356,-9.54305 0.57853,-2.83021 1.15706,-4.85138 1.7356,-5.38701 0.57853,-0.53563 1.15707,0.43143 1.7356,2.5681 0.57854,2.13667 1.15708,5.40994 1.7356,8.71208"
           title="t 0.5*sin(2*pi*4*t)"
           id="path12071"
           inkscape:connector-curvature="0" />
      </g>
      <path
         inkscape:connector-curvature="0"
         id="path12073"
         d="m 180.95981,335.03906 c 0,0 0.5659,2.74121 1.23944,2.74046 0.67357,-7.4e-4 12.79746,-0.10555 12.79746,-0.10555"
         style="fill:none;stroke:#000000;stroke-width:1.54226148;stroke-linecap:butt;stroke-linejoin:miter;stroke-miterlimit:4;stroke-opacity:1;stroke-dasharray:none;marker-end:url(#Arrow2Mend-5)" />
    </g>
    <g
       id="g12075"
       transform="matrix(-0.90382208,0.42790843,-0.42790843,-0.90382208,622.7377,433.81221)"
       style="opacity:0.28806589"
       inkscape:transform-center-x="7.307396">
      <g
         transform="matrix(0.99999908,-6.6009879e-4,0.00135843,0.48592727,-6.4338801,175.39135)"
         id="g12077">
        <path
           style="fill:none;stroke:#000000;stroke-width:1.58099997;stroke-miterlimit:4;stroke-opacity:1;stroke-dasharray:none"
           d="m 136.81374,330.23396 c 0.57853,3.30215 1.15707,6.57325 1.7356,8.71211 0.57854,2.13886 1.15707,3.10091 1.73561,2.5681 0.57854,-0.53283 1.15706,-2.55829 1.7356,-5.38703 0.57855,-2.82872 1.15707,-6.4133 1.73561,-9.54303 0.57853,-3.12974 1.15707,-5.74548 1.7356,-6.96907 0.57853,-1.22357 1.15707,-1.02579 1.73561,0.5197 0.57852,1.54549 1.15707,4.41732 1.73561,7.64196 0.57852,3.22462 1.15706,6.74519 1.73559,9.37488 0.57854,2.62967 1.15707,4.31619 1.73561,4.4964 0.57853,0.18013 1.15707,-1.15672 1.7356,-3.55308 0.57854,-2.39634 1.15708,-5.81387 1.7356,-9.09682 0.57854,-3.28293 1.15707,-6.37094 1.73561,-8.22523 0.57854,-1.85432 1.15707,-2.43504 1.73561,-1.553 0.57853,0.88204 1.15706,3.21812 1.7356,6.21446 0.57854,2.99635 1.15706,6.60176 1.7356,9.59931 0.57853,2.99756 1.15707,5.32968 1.73561,6.21448 0.57853,0.88478 1.15707,0.29894 1.7356,-1.553 0.57853,-1.85194 1.15707,-4.94262 1.7356,-8.22526 0.57853,-3.28261 1.15707,-6.69847 1.7356,-9.09681 0.57854,-2.39832 1.15708,-3.73041 1.73561,-3.55306 0.57854,0.17739 1.15708,1.86843 1.73561,4.4964 0.57854,2.62794 1.15706,6.14963 1.7356,9.37488 0.57854,3.22525 1.15706,6.09392 1.7356,7.64194 0.57854,1.54801 1.15707,1.74062 1.73561,0.5197 0.57854,-1.22092 1.15707,-3.84024 1.73561,-6.96905 0.57852,-3.12883 1.15706,-6.71284 1.7356,-9.54305 0.57853,-2.83021 1.15706,-4.85138 1.7356,-5.38701 0.57853,-0.53563 1.15707,0.43143 1.7356,2.5681 0.57854,2.13667 1.15708,5.40994 1.7356,8.71208"
           title="t 0.5*sin(2*pi*4*t)"
           id="path12079"
           inkscape:connector-curvature="0" />
      </g>
      <path
         inkscape:connector-curvature="0"
         id="path12081"
         d="m 180.95981,335.03906 c 0,0 0.5659,2.74121 1.23944,2.74046 0.67357,-7.4e-4 12.79746,-0.10555 12.79746,-0.10555"
         style="fill:none;stroke:#000000;stroke-width:1.54226148;stroke-linecap:butt;stroke-linejoin:miter;stroke-miterlimit:4;stroke-opacity:1;stroke-dasharray:none;marker-end:url(#Arrow2Mend-5)" />
    </g>
    <g
       id="g12083"
       transform="matrix(0.89870107,0.43856171,-0.43856171,0.89870107,473.57073,-205.33619)">
      <g
         transform="matrix(0.99999908,-6.6009879e-4,0.00135843,0.48592727,-6.4338801,175.39135)"
         id="g12085">
        <path
           style="fill:none;stroke:#000000;stroke-width:1.58099997;stroke-miterlimit:4;stroke-opacity:1;stroke-dasharray:none"
           d="m 136.81374,330.23396 c 0.57853,3.30215 1.15707,6.57325 1.7356,8.71211 0.57854,2.13886 1.15707,3.10091 1.73561,2.5681 0.57854,-0.53283 1.15706,-2.55829 1.7356,-5.38703 0.57855,-2.82872 1.15707,-6.4133 1.73561,-9.54303 0.57853,-3.12974 1.15707,-5.74548 1.7356,-6.96907 0.57853,-1.22357 1.15707,-1.02579 1.73561,0.5197 0.57852,1.54549 1.15707,4.41732 1.73561,7.64196 0.57852,3.22462 1.15706,6.74519 1.73559,9.37488 0.57854,2.62967 1.15707,4.31619 1.73561,4.4964 0.57853,0.18013 1.15707,-1.15672 1.7356,-3.55308 0.57854,-2.39634 1.15708,-5.81387 1.7356,-9.09682 0.57854,-3.28293 1.15707,-6.37094 1.73561,-8.22523 0.57854,-1.85432 1.15707,-2.43504 1.73561,-1.553 0.57853,0.88204 1.15706,3.21812 1.7356,6.21446 0.57854,2.99635 1.15706,6.60176 1.7356,9.59931 0.57853,2.99756 1.15707,5.32968 1.73561,6.21448 0.57853,0.88478 1.15707,0.29894 1.7356,-1.553 0.57853,-1.85194 1.15707,-4.94262 1.7356,-8.22526 0.57853,-3.28261 1.15707,-6.69847 1.7356,-9.09681 0.57854,-2.39832 1.15708,-3.73041 1.73561,-3.55306 0.57854,0.17739 1.15708,1.86843 1.73561,4.4964 0.57854,2.62794 1.15706,6.14963 1.7356,9.37488 0.57854,3.22525 1.15706,6.09392 1.7356,7.64194 0.57854,1.54801 1.15707,1.74062 1.73561,0.5197 0.57854,-1.22092 1.15707,-3.84024 1.73561,-6.96905 0.57852,-3.12883 1.15706,-6.71284 1.7356,-9.54305 0.57853,-2.83021 1.15706,-4.85138 1.7356,-5.38701 0.57853,-0.53563 1.15707,0.43143 1.7356,2.5681 0.57854,2.13667 1.15708,5.40994 1.7356,8.71208"
           title="t 0.5*sin(2*pi*4*t)"
           id="path12087"
           inkscape:connector-curvature="0" />
      </g>
      <path
         inkscape:connector-curvature="0"
         id="path12089"
         d="m 180.95981,335.03906 c 0,0 0.5659,2.74121 1.23944,2.74046 0.67357,-7.4e-4 12.79746,-0.10555 12.79746,-0.10555"
         style="fill:none;stroke:#000000;stroke-width:1.54226148;stroke-linecap:butt;stroke-linejoin:miter;stroke-miterlimit:4;stroke-opacity:1;stroke-dasharray:none;marker-end:url(#Arrow2Mend-5)" />
    </g>
    <g
       transform="matrix(0.82047153,-0.57168738,0.57168738,0.82047153,146.57803,23.43334)"
       id="g12091"
       inkscape:transform-center-x="25.693896"
       inkscape:transform-center-y="-8.4889335">
      <g
         id="g12093"
         transform="matrix(0.99999908,-6.6009879e-4,0.00135843,0.48592727,-6.4338801,175.39135)">
        <path
           inkscape:connector-curvature="0"
           id="path12095"
           title="t 0.5*sin(2*pi*4*t)"
           d="m 136.81374,330.23396 c 0.57853,3.30215 1.15707,6.57325 1.7356,8.71211 0.57854,2.13886 1.15707,3.10091 1.73561,2.5681 0.57854,-0.53283 1.15706,-2.55829 1.7356,-5.38703 0.57855,-2.82872 1.15707,-6.4133 1.73561,-9.54303 0.57853,-3.12974 1.15707,-5.74548 1.7356,-6.96907 0.57853,-1.22357 1.15707,-1.02579 1.73561,0.5197 0.57852,1.54549 1.15707,4.41732 1.73561,7.64196 0.57852,3.22462 1.15706,6.74519 1.73559,9.37488 0.57854,2.62967 1.15707,4.31619 1.73561,4.4964 0.57853,0.18013 1.15707,-1.15672 1.7356,-3.55308 0.57854,-2.39634 1.15708,-5.81387 1.7356,-9.09682 0.57854,-3.28293 1.15707,-6.37094 1.73561,-8.22523 0.57854,-1.85432 1.15707,-2.43504 1.73561,-1.553 0.57853,0.88204 1.15706,3.21812 1.7356,6.21446 0.57854,2.99635 1.15706,6.60176 1.7356,9.59931 0.57853,2.99756 1.15707,5.32968 1.73561,6.21448 0.57853,0.88478 1.15707,0.29894 1.7356,-1.553 0.57853,-1.85194 1.15707,-4.94262 1.7356,-8.22526 0.57853,-3.28261 1.15707,-6.69847 1.7356,-9.09681 0.57854,-2.39832 1.15708,-3.73041 1.73561,-3.55306 0.57854,0.17739 1.15708,1.86843 1.73561,4.4964 0.57854,2.62794 1.15706,6.14963 1.7356,9.37488 0.57854,3.22525 1.15706,6.09392 1.7356,7.64194 0.57854,1.54801 1.15707,1.74062 1.73561,0.5197 0.57854,-1.22092 1.15707,-3.84024 1.73561,-6.96905 0.57852,-3.12883 1.15706,-6.71284 1.7356,-9.54305 0.57853,-2.83021 1.15706,-4.85138 1.7356,-5.38701 0.57853,-0.53563 1.15707,0.43143 1.7356,2.5681 0.57854,2.13667 1.15708,5.40994 1.7356,8.71208"
           style="fill:none;stroke:#000000;stroke-width:1.58099997;stroke-miterlimit:4;stroke-opacity:1;stroke-dasharray:none" />
      </g>
      <path
         style="fill:none;stroke:#000000;stroke-width:1.54226148;stroke-linecap:butt;stroke-linejoin:miter;stroke-miterlimit:4;stroke-opacity:1;stroke-dasharray:none;marker-end:url(#Arrow2Mend-5)"
         d="m 180.95981,335.03906 c 0,0 0.5659,2.74121 1.23944,2.74046 0.67357,-7.4e-4 12.79746,-0.10555 12.79746,-0.10555"
         id="path12097"
         inkscape:connector-curvature="0" />
    </g>
    <g
       transform="matrix(0.61310278,0.01498974,-0.00919128,0.99988764,431.15217,-149.90282)"
       id="g12115">
      <g
         id="g12117"
         transform="matrix(0.99999908,-6.6009879e-4,0.00135843,0.48592727,-6.4338801,175.39135)">
        <path
           inkscape:connector-curvature="0"
           id="path12119"
           title="t 0.5*sin(2*pi*4*t)"
           d="m 136.81374,330.23396 c 0.57853,3.30215 1.15707,6.57325 1.7356,8.71211 0.57854,2.13886 1.15707,3.10091 1.73561,2.5681 0.57854,-0.53283 1.15706,-2.55829 1.7356,-5.38703 0.57855,-2.82872 1.15707,-6.4133 1.73561,-9.54303 0.57853,-3.12974 1.15707,-5.74548 1.7356,-6.96907 0.57853,-1.22357 1.15707,-1.02579 1.73561,0.5197 0.57852,1.54549 1.15707,4.41732 1.73561,7.64196 0.57852,3.22462 1.15706,6.74519 1.73559,9.37488 0.57854,2.62967 1.15707,4.31619 1.73561,4.4964 0.57853,0.18013 1.15707,-1.15672 1.7356,-3.55308 0.57854,-2.39634 1.15708,-5.81387 1.7356,-9.09682 0.57854,-3.28293 1.15707,-6.37094 1.73561,-8.22523 0.57854,-1.85432 1.15707,-2.43504 1.73561,-1.553 0.57853,0.88204 1.15706,3.21812 1.7356,6.21446 0.57854,2.99635 1.15706,6.60176 1.7356,9.59931 0.57853,2.99756 1.15707,5.32968 1.73561,6.21448 0.57853,0.88478 1.15707,0.29894 1.7356,-1.553 0.57853,-1.85194 1.15707,-4.94262 1.7356,-8.22526 0.57853,-3.28261 1.15707,-6.69847 1.7356,-9.09681 0.57854,-2.39832 1.15708,-3.73041 1.73561,-3.55306 0.57854,0.17739 1.15708,1.86843 1.73561,4.4964 0.57854,2.62794 1.15706,6.14963 1.7356,9.37488 0.57854,3.22525 1.15706,6.09392 1.7356,7.64194 0.57854,1.54801 1.15707,1.74062 1.73561,0.5197 0.57854,-1.22092 1.15707,-3.84024 1.73561,-6.96905 0.57852,-3.12883 1.15706,-6.71284 1.7356,-9.54305 0.57853,-2.83021 1.15706,-4.85138 1.7356,-5.38701 0.57853,-0.53563 1.15707,0.43143 1.7356,2.5681 0.57854,2.13667 1.15708,5.40994 1.7356,8.71208"
           style="fill:none;stroke:#000000;stroke-width:1.58099997;stroke-miterlimit:4;stroke-opacity:1;stroke-dasharray:none" />
      </g>
      <path
         style="fill:none;stroke:#000000;stroke-width:1.54226148;stroke-linecap:butt;stroke-linejoin:miter;stroke-miterlimit:4;stroke-opacity:1;stroke-dasharray:none;marker-end:url(#Arrow2Mend-5)"
         d="m 180.95981,335.03906 c 0,0 0.5659,2.74121 1.23944,2.74046 0.67357,-7.4e-4 12.79746,-0.10555 12.79746,-0.10555"
         id="path12121"
         inkscape:connector-curvature="0" />
    </g>
    <g
       transform="matrix(0.62857147,-0.77775182,0.77775182,0.62857147,-148.20647,142.47464)"
       id="g12123">
      <g
         id="g12125"
         transform="matrix(0.99999908,-6.6009879e-4,0.00135843,0.48592727,-6.4338801,175.39135)">
        <path
           inkscape:connector-curvature="0"
           id="path12127"
           title="t 0.5*sin(2*pi*4*t)"
           d="m 136.81374,330.23396 c 0.57853,3.30215 1.15707,6.57325 1.7356,8.71211 0.57854,2.13886 1.15707,3.10091 1.73561,2.5681 0.57854,-0.53283 1.15706,-2.55829 1.7356,-5.38703 0.57855,-2.82872 1.15707,-6.4133 1.73561,-9.54303 0.57853,-3.12974 1.15707,-5.74548 1.7356,-6.96907 0.57853,-1.22357 1.15707,-1.02579 1.73561,0.5197 0.57852,1.54549 1.15707,4.41732 1.73561,7.64196 0.57852,3.22462 1.15706,6.74519 1.73559,9.37488 0.57854,2.62967 1.15707,4.31619 1.73561,4.4964 0.57853,0.18013 1.15707,-1.15672 1.7356,-3.55308 0.57854,-2.39634 1.15708,-5.81387 1.7356,-9.09682 0.57854,-3.28293 1.15707,-6.37094 1.73561,-8.22523 0.57854,-1.85432 1.15707,-2.43504 1.73561,-1.553 0.57853,0.88204 1.15706,3.21812 1.7356,6.21446 0.57854,2.99635 1.15706,6.60176 1.7356,9.59931 0.57853,2.99756 1.15707,5.32968 1.73561,6.21448 0.57853,0.88478 1.15707,0.29894 1.7356,-1.553 0.57853,-1.85194 1.15707,-4.94262 1.7356,-8.22526 0.57853,-3.28261 1.15707,-6.69847 1.7356,-9.09681 0.57854,-2.39832 1.15708,-3.73041 1.73561,-3.55306 0.57854,0.17739 1.15708,1.86843 1.73561,4.4964 0.57854,2.62794 1.15706,6.14963 1.7356,9.37488 0.57854,3.22525 1.15706,6.09392 1.7356,7.64194 0.57854,1.54801 1.15707,1.74062 1.73561,0.5197 0.57854,-1.22092 1.15707,-3.84024 1.73561,-6.96905 0.57852,-3.12883 1.15706,-6.71284 1.7356,-9.54305 0.57853,-2.83021 1.15706,-4.85138 1.7356,-5.38701 0.57853,-0.53563 1.15707,0.43143 1.7356,2.5681 0.57854,2.13667 1.15708,5.40994 1.7356,8.71208"
           style="fill:none;stroke:#000000;stroke-width:1.58099997;stroke-miterlimit:4;stroke-opacity:1;stroke-dasharray:none" />
      </g>
      <path
         style="fill:none;stroke:#000000;stroke-width:1.54226148;stroke-linecap:butt;stroke-linejoin:miter;stroke-miterlimit:4;stroke-opacity:1;stroke-dasharray:none;marker-end:url(#Arrow2Mend-5)"
         d="m 180.95981,335.03906 c 0,0 0.5659,2.74121 1.23944,2.74046 0.67357,-7.4e-4 12.79746,-0.10555 12.79746,-0.10555"
         id="path12129"
         inkscape:connector-curvature="0" />
    </g>
    <text
       sodipodi:linespacing="125%"
       id="text12150"
       y="170.7674"
       x="367.76047"
       style="font-size:16px;font-style:normal;font-weight:normal;line-height:125%;letter-spacing:0px;word-spacing:0px;fill:#000000;fill-opacity:1;stroke:none;font-family:Bitstream Vera Sans"
       xml:space="preserve"><tspan
         y="170.7674"
         x="367.76047"
         id="tspan12152"
         sodipodi:role="line">(2)</tspan></text>
    <text
       xml:space="preserve"
       style="font-size:16px;font-style:normal;font-weight:normal;line-height:125%;letter-spacing:0px;word-spacing:0px;fill:#000000;fill-opacity:1;stroke:none;font-family:Bitstream Vera Sans"
       x="498.48553"
       y="172.30724"
       id="text12154"
       sodipodi:linespacing="125%"><tspan
         sodipodi:role="line"
         id="tspan12156"
         x="498.48553"
         y="172.30724">(3)</tspan></text>
    <path
       sodipodi:type="star"
       style="fill:#f3f701;fill-opacity:1;stroke:#000000;stroke-width:2;stroke-linejoin:miter;stroke-miterlimit:4;stroke-opacity:1;stroke-dasharray:none;stroke-dashoffset:0"
       id="path12181"
       sodipodi:sides="5"
       sodipodi:cx="382.58328"
       sodipodi:cy="32.829479"
       sodipodi:r1="12.621686"
       sodipodi:r2="6.310843"
       sodipodi:arg1="0.96007036"
       sodipodi:arg2="1.5883889"
       inkscape:flatsided="false"
       inkscape:rounded="0"
       inkscape:randomized="0"
       d="m 389.82134,43.169567 -7.34908,-4.030221 -7.4863,3.769202 1.56198,-8.234797 -5.89812,-5.955153 8.31443,-1.059163 3.84107,-7.449689 3.57662,7.580199 8.27203,1.350991 -6.10395,5.743984 z"
       inkscape:transform-center-x="-0.025915156"
       inkscape:transform-center-y="-0.36984003"
       transform="matrix(0.37779537,0,0,0.32446636,360.39082,176.75227)" />
    <g
       transform="matrix(0.91129743,0.4117487,-0.4117487,0.91129743,171.39366,-47.347781)"
       id="g12259">
      <g
         id="g12261"
         transform="matrix(0.99999908,-6.6009879e-4,0.00135843,0.48592727,-6.4338801,175.39135)">
        <path
           inkscape:connector-curvature="0"
           id="path12263"
           title="t 0.5*sin(2*pi*4*t)"
           d="m 136.81374,330.23396 c 0.57853,3.30215 1.15707,6.57325 1.7356,8.71211 0.57854,2.13886 1.15707,3.10091 1.73561,2.5681 0.57854,-0.53283 1.15706,-2.55829 1.7356,-5.38703 0.57855,-2.82872 1.15707,-6.4133 1.73561,-9.54303 0.57853,-3.12974 1.15707,-5.74548 1.7356,-6.96907 0.57853,-1.22357 1.15707,-1.02579 1.73561,0.5197 0.57852,1.54549 1.15707,4.41732 1.73561,7.64196 0.57852,3.22462 1.15706,6.74519 1.73559,9.37488 0.57854,2.62967 1.15707,4.31619 1.73561,4.4964 0.57853,0.18013 1.15707,-1.15672 1.7356,-3.55308 0.57854,-2.39634 1.15708,-5.81387 1.7356,-9.09682 0.57854,-3.28293 1.15707,-6.37094 1.73561,-8.22523 0.57854,-1.85432 1.15707,-2.43504 1.73561,-1.553 0.57853,0.88204 1.15706,3.21812 1.7356,6.21446 0.57854,2.99635 1.15706,6.60176 1.7356,9.59931 0.57853,2.99756 1.15707,5.32968 1.73561,6.21448 0.57853,0.88478 1.15707,0.29894 1.7356,-1.553 0.57853,-1.85194 1.15707,-4.94262 1.7356,-8.22526 0.57853,-3.28261 1.15707,-6.69847 1.7356,-9.09681 0.57854,-2.39832 1.15708,-3.73041 1.73561,-3.55306 0.57854,0.17739 1.15708,1.86843 1.73561,4.4964 0.57854,2.62794 1.15706,6.14963 1.7356,9.37488 0.57854,3.22525 1.15706,6.09392 1.7356,7.64194 0.57854,1.54801 1.15707,1.74062 1.73561,0.5197 0.57854,-1.22092 1.15707,-3.84024 1.73561,-6.96905 0.57852,-3.12883 1.15706,-6.71284 1.7356,-9.54305 0.57853,-2.83021 1.15706,-4.85138 1.7356,-5.38701 0.57853,-0.53563 1.15707,0.43143 1.7356,2.5681 0.57854,2.13667 1.15708,5.40994 1.7356,8.71208"
           style="fill:none;stroke:#000000;stroke-width:1.58099997;stroke-miterlimit:4;stroke-opacity:1;stroke-dasharray:none" />
      </g>
      <path
         style="fill:none;stroke:#000000;stroke-width:1.54226148;stroke-linecap:butt;stroke-linejoin:miter;stroke-miterlimit:4;stroke-opacity:1;stroke-dasharray:none;marker-end:url(#Arrow2Mend-5)"
         d="m 180.95981,335.03906 c 0,0 0.5659,2.74121 1.23944,2.74046 0.67357,-7.4e-4 12.79746,-0.10555 12.79746,-0.10555"
         id="path12265"
         inkscape:connector-curvature="0" />
    </g>
    <g
       id="g12267"
       transform="matrix(0.76194835,-0.64763778,0.64763778,0.76194835,-102.51792,168.76386)"
       inkscape:transform-center-x="10.831538"
       inkscape:transform-center-y="33.238882">
      <g
         transform="matrix(0.99999908,-6.6009879e-4,0.00135843,0.48592727,-6.4338801,175.39135)"
         id="g12269">
        <path
           style="fill:none;stroke:#000000;stroke-width:1.58099997;stroke-miterlimit:4;stroke-opacity:1;stroke-dasharray:none"
           d="m 136.81374,330.23396 c 0.57853,3.30215 1.15707,6.57325 1.7356,8.71211 0.57854,2.13886 1.15707,3.10091 1.73561,2.5681 0.57854,-0.53283 1.15706,-2.55829 1.7356,-5.38703 0.57855,-2.82872 1.15707,-6.4133 1.73561,-9.54303 0.57853,-3.12974 1.15707,-5.74548 1.7356,-6.96907 0.57853,-1.22357 1.15707,-1.02579 1.73561,0.5197 0.57852,1.54549 1.15707,4.41732 1.73561,7.64196 0.57852,3.22462 1.15706,6.74519 1.73559,9.37488 0.57854,2.62967 1.15707,4.31619 1.73561,4.4964 0.57853,0.18013 1.15707,-1.15672 1.7356,-3.55308 0.57854,-2.39634 1.15708,-5.81387 1.7356,-9.09682 0.57854,-3.28293 1.15707,-6.37094 1.73561,-8.22523 0.57854,-1.85432 1.15707,-2.43504 1.73561,-1.553 0.57853,0.88204 1.15706,3.21812 1.7356,6.21446 0.57854,2.99635 1.15706,6.60176 1.7356,9.59931 0.57853,2.99756 1.15707,5.32968 1.73561,6.21448 0.57853,0.88478 1.15707,0.29894 1.7356,-1.553 0.57853,-1.85194 1.15707,-4.94262 1.7356,-8.22526 0.57853,-3.28261 1.15707,-6.69847 1.7356,-9.09681 0.57854,-2.39832 1.15708,-3.73041 1.73561,-3.55306 0.57854,0.17739 1.15708,1.86843 1.73561,4.4964 0.57854,2.62794 1.15706,6.14963 1.7356,9.37488 0.57854,3.22525 1.15706,6.09392 1.7356,7.64194 0.57854,1.54801 1.15707,1.74062 1.73561,0.5197 0.57854,-1.22092 1.15707,-3.84024 1.73561,-6.96905 0.57852,-3.12883 1.15706,-6.71284 1.7356,-9.54305 0.57853,-2.83021 1.15706,-4.85138 1.7356,-5.38701 0.57853,-0.53563 1.15707,0.43143 1.7356,2.5681 0.57854,2.13667 1.15708,5.40994 1.7356,8.71208"
           title="t 0.5*sin(2*pi*4*t)"
           id="path12271"
           inkscape:connector-curvature="0" />
      </g>
      <path
         inkscape:connector-curvature="0"
         id="path12273"
         d="m 180.95981,335.03906 c 0,0 0.5659,2.74121 1.23944,2.74046 0.67357,-7.4e-4 12.79746,-0.10555 12.79746,-0.10555"
         style="fill:none;stroke:#000000;stroke-width:1.54226148;stroke-linecap:butt;stroke-linejoin:miter;stroke-miterlimit:4;stroke-opacity:1;stroke-dasharray:none;marker-end:url(#Arrow2Mend-5)" />
    </g>
    <g
       inkscape:transform-center-y="-9.5731037"
       inkscape:transform-center-x="33.524286"
       transform="matrix(0.67711767,0.73587474,-0.73587474,0.67711767,429.44121,-26.723835)"
       id="g12275">
      <g
         id="g12277"
         transform="matrix(0.99999908,-6.6009879e-4,0.00135843,0.48592727,-6.4338801,175.39135)">
        <path
           inkscape:connector-curvature="0"
           id="path12279"
           title="t 0.5*sin(2*pi*4*t)"
           d="m 136.81374,330.23396 c 0.57853,3.30215 1.15707,6.57325 1.7356,8.71211 0.57854,2.13886 1.15707,3.10091 1.73561,2.5681 0.57854,-0.53283 1.15706,-2.55829 1.7356,-5.38703 0.57855,-2.82872 1.15707,-6.4133 1.73561,-9.54303 0.57853,-3.12974 1.15707,-5.74548 1.7356,-6.96907 0.57853,-1.22357 1.15707,-1.02579 1.73561,0.5197 0.57852,1.54549 1.15707,4.41732 1.73561,7.64196 0.57852,3.22462 1.15706,6.74519 1.73559,9.37488 0.57854,2.62967 1.15707,4.31619 1.73561,4.4964 0.57853,0.18013 1.15707,-1.15672 1.7356,-3.55308 0.57854,-2.39634 1.15708,-5.81387 1.7356,-9.09682 0.57854,-3.28293 1.15707,-6.37094 1.73561,-8.22523 0.57854,-1.85432 1.15707,-2.43504 1.73561,-1.553 0.57853,0.88204 1.15706,3.21812 1.7356,6.21446 0.57854,2.99635 1.15706,6.60176 1.7356,9.59931 0.57853,2.99756 1.15707,5.32968 1.73561,6.21448 0.57853,0.88478 1.15707,0.29894 1.7356,-1.553 0.57853,-1.85194 1.15707,-4.94262 1.7356,-8.22526 0.57853,-3.28261 1.15707,-6.69847 1.7356,-9.09681 0.57854,-2.39832 1.15708,-3.73041 1.73561,-3.55306 0.57854,0.17739 1.15708,1.86843 1.73561,4.4964 0.57854,2.62794 1.15706,6.14963 1.7356,9.37488 0.57854,3.22525 1.15706,6.09392 1.7356,7.64194 0.57854,1.54801 1.15707,1.74062 1.73561,0.5197 0.57854,-1.22092 1.15707,-3.84024 1.73561,-6.96905 0.57852,-3.12883 1.15706,-6.71284 1.7356,-9.54305 0.57853,-2.83021 1.15706,-4.85138 1.7356,-5.38701 0.57853,-0.53563 1.15707,0.43143 1.7356,2.5681 0.57854,2.13667 1.15708,5.40994 1.7356,8.71208"
           style="fill:none;stroke:#000000;stroke-width:1.58099997;stroke-miterlimit:4;stroke-opacity:1;stroke-dasharray:none" />
      </g>
      <path
         style="fill:none;stroke:#000000;stroke-width:1.54226148;stroke-linecap:butt;stroke-linejoin:miter;stroke-miterlimit:4;stroke-opacity:1;stroke-dasharray:none;marker-end:url(#Arrow2Mend-5)"
         d="m 180.95981,335.03906 c 0,0 0.5659,2.74121 1.23944,2.74046 0.67357,-7.4e-4 12.79746,-0.10555 12.79746,-0.10555"
         id="path12281"
         inkscape:connector-curvature="0" />
    </g>
    <g
       id="g12289"
       transform="matrix(0.90881227,0.41720525,-0.41720525,0.90881227,335.80024,-12.465837)"
       inkscape:transform-center-x="33.640053"
       inkscape:transform-center-y="2.9789556">
      <g
         transform="matrix(0.99999908,-6.6009879e-4,0.00135843,0.48592727,-6.4338801,175.39135)"
         id="g12291">
        <path
           style="fill:none;stroke:#000000;stroke-width:1.58099997;stroke-miterlimit:4;stroke-opacity:1;stroke-dasharray:none"
           d="m 136.81374,330.23396 c 0.57853,3.30215 1.15707,6.57325 1.7356,8.71211 0.57854,2.13886 1.15707,3.10091 1.73561,2.5681 0.57854,-0.53283 1.15706,-2.55829 1.7356,-5.38703 0.57855,-2.82872 1.15707,-6.4133 1.73561,-9.54303 0.57853,-3.12974 1.15707,-5.74548 1.7356,-6.96907 0.57853,-1.22357 1.15707,-1.02579 1.73561,0.5197 0.57852,1.54549 1.15707,4.41732 1.73561,7.64196 0.57852,3.22462 1.15706,6.74519 1.73559,9.37488 0.57854,2.62967 1.15707,4.31619 1.73561,4.4964 0.57853,0.18013 1.15707,-1.15672 1.7356,-3.55308 0.57854,-2.39634 1.15708,-5.81387 1.7356,-9.09682 0.57854,-3.28293 1.15707,-6.37094 1.73561,-8.22523 0.57854,-1.85432 1.15707,-2.43504 1.73561,-1.553 0.57853,0.88204 1.15706,3.21812 1.7356,6.21446 0.57854,2.99635 1.15706,6.60176 1.7356,9.59931 0.57853,2.99756 1.15707,5.32968 1.73561,6.21448 0.57853,0.88478 1.15707,0.29894 1.7356,-1.553 0.57853,-1.85194 1.15707,-4.94262 1.7356,-8.22526 0.57853,-3.28261 1.15707,-6.69847 1.7356,-9.09681 0.57854,-2.39832 1.15708,-3.73041 1.73561,-3.55306 0.57854,0.17739 1.15708,1.86843 1.73561,4.4964 0.57854,2.62794 1.15706,6.14963 1.7356,9.37488 0.57854,3.22525 1.15706,6.09392 1.7356,7.64194 0.57854,1.54801 1.15707,1.74062 1.73561,0.5197 0.57854,-1.22092 1.15707,-3.84024 1.73561,-6.96905 0.57852,-3.12883 1.15706,-6.71284 1.7356,-9.54305 0.57853,-2.83021 1.15706,-4.85138 1.7356,-5.38701 0.57853,-0.53563 1.15707,0.43143 1.7356,2.5681 0.57854,2.13667 1.15708,5.40994 1.7356,8.71208"
           title="t 0.5*sin(2*pi*4*t)"
           id="path12293"
           inkscape:connector-curvature="0" />
      </g>
      <path
         inkscape:connector-curvature="0"
         id="path12295"
         d="m 180.95981,335.03906 c 0,0 0.5659,2.74121 1.23944,2.74046 0.67357,-7.4e-4 12.79746,-0.10555 12.79746,-0.10555"
         style="fill:none;stroke:#000000;stroke-width:1.54226148;stroke-linecap:butt;stroke-linejoin:miter;stroke-miterlimit:4;stroke-opacity:1;stroke-dasharray:none;marker-end:url(#Arrow2Mend-5)" />
    </g>
    <g
       inkscape:transform-center-y="-3.6221692"
       inkscape:transform-center-x="34.192721"
       transform="matrix(0.79868556,0.60174857,-0.60174857,0.79868556,474.35785,27.492818)"
       id="g12297">
      <g
         id="g12299"
         transform="matrix(0.99999908,-6.6009879e-4,0.00135843,0.48592727,-6.4338801,175.39135)">
        <path
           inkscape:connector-curvature="0"
           id="path12301"
           title="t 0.5*sin(2*pi*4*t)"
           d="m 136.81374,330.23396 c 0.57853,3.30215 1.15707,6.57325 1.7356,8.71211 0.57854,2.13886 1.15707,3.10091 1.73561,2.5681 0.57854,-0.53283 1.15706,-2.55829 1.7356,-5.38703 0.57855,-2.82872 1.15707,-6.4133 1.73561,-9.54303 0.57853,-3.12974 1.15707,-5.74548 1.7356,-6.96907 0.57853,-1.22357 1.15707,-1.02579 1.73561,0.5197 0.57852,1.54549 1.15707,4.41732 1.73561,7.64196 0.57852,3.22462 1.15706,6.74519 1.73559,9.37488 0.57854,2.62967 1.15707,4.31619 1.73561,4.4964 0.57853,0.18013 1.15707,-1.15672 1.7356,-3.55308 0.57854,-2.39634 1.15708,-5.81387 1.7356,-9.09682 0.57854,-3.28293 1.15707,-6.37094 1.73561,-8.22523 0.57854,-1.85432 1.15707,-2.43504 1.73561,-1.553 0.57853,0.88204 1.15706,3.21812 1.7356,6.21446 0.57854,2.99635 1.15706,6.60176 1.7356,9.59931 0.57853,2.99756 1.15707,5.32968 1.73561,6.21448 0.57853,0.88478 1.15707,0.29894 1.7356,-1.553 0.57853,-1.85194 1.15707,-4.94262 1.7356,-8.22526 0.57853,-3.28261 1.15707,-6.69847 1.7356,-9.09681 0.57854,-2.39832 1.15708,-3.73041 1.73561,-3.55306 0.57854,0.17739 1.15708,1.86843 1.73561,4.4964 0.57854,2.62794 1.15706,6.14963 1.7356,9.37488 0.57854,3.22525 1.15706,6.09392 1.7356,7.64194 0.57854,1.54801 1.15707,1.74062 1.73561,0.5197 0.57854,-1.22092 1.15707,-3.84024 1.73561,-6.96905 0.57852,-3.12883 1.15706,-6.71284 1.7356,-9.54305 0.57853,-2.83021 1.15706,-4.85138 1.7356,-5.38701 0.57853,-0.53563 1.15707,0.43143 1.7356,2.5681 0.57854,2.13667 1.15708,5.40994 1.7356,8.71208"
           style="fill:none;stroke:#000000;stroke-width:1.58099997;stroke-miterlimit:4;stroke-opacity:1;stroke-dasharray:none" />
      </g>
      <path
         style="fill:none;stroke:#000000;stroke-width:1.54226148;stroke-linecap:butt;stroke-linejoin:miter;stroke-miterlimit:4;stroke-opacity:1;stroke-dasharray:none;marker-end:url(#Arrow2Mend-5)"
         d="m 180.95981,335.03906 c 0,0 0.5659,2.74121 1.23944,2.74046 0.67357,-7.4e-4 12.79746,-0.10555 12.79746,-0.10555"
         id="path12303"
         inkscape:connector-curvature="0" />
    </g>
    <g
       id="g12305"
       transform="matrix(0.86424794,-0.50306607,0.50306607,0.86424794,147.18869,186.20578)"
       inkscape:transform-center-x="16.27121"
       inkscape:transform-center-y="31.343199">
      <g
         transform="matrix(0.99999908,-6.6009879e-4,0.00135843,0.48592727,-6.4338801,175.39135)"
         id="g12307">
        <path
           style="fill:none;stroke:#000000;stroke-width:1.58099997;stroke-miterlimit:4;stroke-opacity:1;stroke-dasharray:none"
           d="m 136.81374,330.23396 c 0.57853,3.30215 1.15707,6.57325 1.7356,8.71211 0.57854,2.13886 1.15707,3.10091 1.73561,2.5681 0.57854,-0.53283 1.15706,-2.55829 1.7356,-5.38703 0.57855,-2.82872 1.15707,-6.4133 1.73561,-9.54303 0.57853,-3.12974 1.15707,-5.74548 1.7356,-6.96907 0.57853,-1.22357 1.15707,-1.02579 1.73561,0.5197 0.57852,1.54549 1.15707,4.41732 1.73561,7.64196 0.57852,3.22462 1.15706,6.74519 1.73559,9.37488 0.57854,2.62967 1.15707,4.31619 1.73561,4.4964 0.57853,0.18013 1.15707,-1.15672 1.7356,-3.55308 0.57854,-2.39634 1.15708,-5.81387 1.7356,-9.09682 0.57854,-3.28293 1.15707,-6.37094 1.73561,-8.22523 0.57854,-1.85432 1.15707,-2.43504 1.73561,-1.553 0.57853,0.88204 1.15706,3.21812 1.7356,6.21446 0.57854,2.99635 1.15706,6.60176 1.7356,9.59931 0.57853,2.99756 1.15707,5.32968 1.73561,6.21448 0.57853,0.88478 1.15707,0.29894 1.7356,-1.553 0.57853,-1.85194 1.15707,-4.94262 1.7356,-8.22526 0.57853,-3.28261 1.15707,-6.69847 1.7356,-9.09681 0.57854,-2.39832 1.15708,-3.73041 1.73561,-3.55306 0.57854,0.17739 1.15708,1.86843 1.73561,4.4964 0.57854,2.62794 1.15706,6.14963 1.7356,9.37488 0.57854,3.22525 1.15706,6.09392 1.7356,7.64194 0.57854,1.54801 1.15707,1.74062 1.73561,0.5197 0.57854,-1.22092 1.15707,-3.84024 1.73561,-6.96905 0.57852,-3.12883 1.15706,-6.71284 1.7356,-9.54305 0.57853,-2.83021 1.15706,-4.85138 1.7356,-5.38701 0.57853,-0.53563 1.15707,0.43143 1.7356,2.5681 0.57854,2.13667 1.15708,5.40994 1.7356,8.71208"
           title="t 0.5*sin(2*pi*4*t)"
           id="path12309"
           inkscape:connector-curvature="0" />
      </g>
      <path
         inkscape:connector-curvature="0"
         id="path12311"
         d="m 180.95981,335.03906 c 0,0 0.5659,2.74121 1.23944,2.74046 0.67357,-7.4e-4 12.79746,-0.10555 12.79746,-0.10555"
         style="fill:none;stroke:#000000;stroke-width:1.54226148;stroke-linecap:butt;stroke-linejoin:miter;stroke-miterlimit:4;stroke-opacity:1;stroke-dasharray:none;marker-end:url(#Arrow2Mend-5)" />
    </g>
    <g
       inkscape:transform-center-y="17.149768"
       inkscape:transform-center-x="28.543334"
       transform="matrix(0.99979977,-0.02000984,0.02000984,0.99979977,350.82569,46.285827)"
       id="g12313">
      <g
         id="g12315"
         transform="matrix(0.99999908,-6.6009879e-4,0.00135843,0.48592727,-6.4338801,175.39135)">
        <path
           inkscape:connector-curvature="0"
           id="path12317"
           title="t 0.5*sin(2*pi*4*t)"
           d="m 136.81374,330.23396 c 0.57853,3.30215 1.15707,6.57325 1.7356,8.71211 0.57854,2.13886 1.15707,3.10091 1.73561,2.5681 0.57854,-0.53283 1.15706,-2.55829 1.7356,-5.38703 0.57855,-2.82872 1.15707,-6.4133 1.73561,-9.54303 0.57853,-3.12974 1.15707,-5.74548 1.7356,-6.96907 0.57853,-1.22357 1.15707,-1.02579 1.73561,0.5197 0.57852,1.54549 1.15707,4.41732 1.73561,7.64196 0.57852,3.22462 1.15706,6.74519 1.73559,9.37488 0.57854,2.62967 1.15707,4.31619 1.73561,4.4964 0.57853,0.18013 1.15707,-1.15672 1.7356,-3.55308 0.57854,-2.39634 1.15708,-5.81387 1.7356,-9.09682 0.57854,-3.28293 1.15707,-6.37094 1.73561,-8.22523 0.57854,-1.85432 1.15707,-2.43504 1.73561,-1.553 0.57853,0.88204 1.15706,3.21812 1.7356,6.21446 0.57854,2.99635 1.15706,6.60176 1.7356,9.59931 0.57853,2.99756 1.15707,5.32968 1.73561,6.21448 0.57853,0.88478 1.15707,0.29894 1.7356,-1.553 0.57853,-1.85194 1.15707,-4.94262 1.7356,-8.22526 0.57853,-3.28261 1.15707,-6.69847 1.7356,-9.09681 0.57854,-2.39832 1.15708,-3.73041 1.73561,-3.55306 0.57854,0.17739 1.15708,1.86843 1.73561,4.4964 0.57854,2.62794 1.15706,6.14963 1.7356,9.37488 0.57854,3.22525 1.15706,6.09392 1.7356,7.64194 0.57854,1.54801 1.15707,1.74062 1.73561,0.5197 0.57854,-1.22092 1.15707,-3.84024 1.73561,-6.96905 0.57852,-3.12883 1.15706,-6.71284 1.7356,-9.54305 0.57853,-2.83021 1.15706,-4.85138 1.7356,-5.38701 0.57853,-0.53563 1.15707,0.43143 1.7356,2.5681 0.57854,2.13667 1.15708,5.40994 1.7356,8.71208"
           style="fill:none;stroke:#000000;stroke-width:1.58099997;stroke-miterlimit:4;stroke-opacity:1;stroke-dasharray:none" />
      </g>
      <path
         style="fill:none;stroke:#000000;stroke-width:1.54226148;stroke-linecap:butt;stroke-linejoin:miter;stroke-miterlimit:4;stroke-opacity:1;stroke-dasharray:none;marker-end:url(#Arrow2Mend-5)"
         d="m 180.95981,335.03906 c 0,0 0.5659,2.74121 1.23944,2.74046 0.67357,-7.4e-4 12.79746,-0.10555 12.79746,-0.10555"
         id="path12319"
         inkscape:connector-curvature="0" />
    </g>
    <flowRoot
       style="font-size:24px;font-style:normal;font-weight:normal;line-height:125%;letter-spacing:0px;word-spacing:0px;fill:#000000;fill-opacity:1;stroke:none;font-family:Bitstream Vera Sans"
       id="flowRoot12340"
       xml:space="preserve"
       transform="translate(-2.6645305e-8,165.44141)"><flowRegion
         id="flowRegion12342"><rect
           style="font-size:24px"
           y="123.82226"
           x="65.142555"
           height="40.326344"
           width="48.598415"
           id="rect12344" /></flowRegion><flowPara
         id="flowPara12346">(b)</flowPara></flowRoot>  </g>
  <g
     inkscape:groupmode="layer"
     id="layer3"
     inkscape:label="Layer#1" />
  <g
     inkscape:groupmode="layer"
     id="layer2"
     inkscape:label="Layer" />
</svg>
