<?xml version="1.0" encoding="UTF-8" standalone="no"?>
<!-- Created with Inkscape (http://www.inkscape.org/) -->

<svg
   xmlns:osb="http://www.openswatchbook.org/uri/2009/osb"
   xmlns:dc="http://purl.org/dc/elements/1.1/"
   xmlns:cc="http://creativecommons.org/ns#"
   xmlns:rdf="http://www.w3.org/1999/02/22-rdf-syntax-ns#"
   xmlns:svg="http://www.w3.org/2000/svg"
   xmlns="http://www.w3.org/2000/svg"
   xmlns:sodipodi="http://sodipodi.sourceforge.net/DTD/sodipodi-0.dtd"
   xmlns:inkscape="http://www.inkscape.org/namespaces/inkscape"
   enable-background="new"
   width="744.09448819"
   height="1052.3622047"
   id="svg2"
   version="1.1"
   inkscape:version="0.48.3.1 r9886"
   sodipodi:docname="systems.svg">
  <sodipodi:namedview
     id="base"
     pagecolor="#ffffff"
     bordercolor="#666666"
     borderopacity="1.0"
     inkscape:pageopacity="0.0"
     inkscape:pageshadow="2"
     inkscape:zoom="1.3676997"
     inkscape:cx="290.49761"
     inkscape:cy="785.30807"
     inkscape:document-units="px"
     inkscape:current-layer="layer1"
     showgrid="false"
     inkscape:window-width="1680"
     inkscape:window-height="974"
     inkscape:window-x="0"
     inkscape:window-y="24"
     inkscape:window-maximized="1"
     showborder="true"
     inkscape:snap-object-midpoints="true"
     showguides="true"
     inkscape:guide-bbox="true" />
  <defs
     id="defs4">
    <inkscape:perspective
       sodipodi:type="inkscape:persp3d"
       inkscape:vp_x="-106.94622 : 4.4152172e-14 : 0"
       inkscape:vp_y="0 : 427.85674 : 0"
       inkscape:vp_z="359.96779 : 1110.2603 : 1"
       inkscape:persp3d-origin="273.37738 : 484.91416 : 1"
       id="perspective6245" />
    <linearGradient
       id="linearGradient5348"
       osb:paint="solid">
      <stop
         style="stop-color:#e0ff00;stop-opacity:1;"
         offset="0"
         id="stop5350" />
    </linearGradient>
    <inkscape:perspective
       sodipodi:type="inkscape:persp3d"
       inkscape:vp_x="-106.94622 : 4.3291645e-14 : 0"
       inkscape:vp_y="0 : 419.5178 : 0"
       inkscape:vp_z="355.5991 : 1105.8098 : 1"
       inkscape:persp3d-origin="294.85891 : 492.65175 : 1"
       id="perspective8110" />
    <inkscape:perspective
       id="perspective7953"
       inkscape:persp3d-origin="334.90962 : 793.38687 : 1"
       inkscape:vp_z="606.58761 : 831.63605 : 1"
       inkscape:vp_y="0 : 419.5178 : 0"
       inkscape:vp_x="-106.94622 : 4.3291645e-14 : 0"
       sodipodi:type="inkscape:persp3d" />
    <inkscape:perspective
       id="perspective7641"
       inkscape:persp3d-origin="372.04724 : 350.78739 : 1"
       inkscape:vp_z="734.54432 : 478.75417 : 1"
       inkscape:vp_y="0 : 1000 : 0"
       inkscape:vp_x="-325.50355 : 3.9861371e-14 : 0"
       sodipodi:type="inkscape:persp3d" />
    <marker
       style="overflow:visible;"
       id="Arrow2Lend"
       refX="0.0"
       refY="0.0"
       orient="auto"
       inkscape:stockid="Arrow2Lend">
      <path
         transform="scale(1.1) rotate(180) translate(1,0)"
         d="M 8.7185878,4.0337352 L -2.2072895,0.016013256 L 8.7185884,-4.0017078 C 6.9730900,-1.6296469 6.9831476,1.6157441 8.7185878,4.0337352 z "
         style="fill-rule:evenodd;stroke-width:0.62500000;stroke-linejoin:round;"
         id="path6465" />
    </marker>
    <filter
       id="filter7753"
       inkscape:collect="always">
      <feBlend
         id="feBlend7755"
         in2="BackgroundImage"
         mode="multiply"
         inkscape:collect="always" />
    </filter>
    <marker
       style="overflow:visible"
       id="Arrow2Lend-8"
       refX="0"
       refY="0"
       orient="auto"
       inkscape:stockid="Arrow2Lend">
      <path
         inkscape:connector-curvature="0"
         transform="matrix(-1.1,0,0,-1.1,-1.1,0)"
         d="M 8.7185878,4.0337352 -2.2072895,0.01601326 8.7185884,-4.0017078 c -1.7454984,2.3720609 -1.7354408,5.6174519 -6e-7,8.035443 z"
         style="fill-rule:evenodd;stroke-width:0.625;stroke-linejoin:round"
         id="path6465-2" />
    </marker>
    <marker
       style="overflow:visible"
       id="Arrow2Lend-3"
       refX="0"
       refY="0"
       orient="auto"
       inkscape:stockid="Arrow2Lend">
      <path
         inkscape:connector-curvature="0"
         transform="matrix(-1.1,0,0,-1.1,-1.1,0)"
         d="M 8.7185878,4.0337352 -2.2072895,0.01601326 8.7185884,-4.0017078 c -1.7454984,2.3720609 -1.7354408,5.6174519 -6e-7,8.035443 z"
         style="fill-rule:evenodd;stroke-width:0.625;stroke-linejoin:round"
         id="path6465-8" />
    </marker>
    <marker
       style="overflow:visible"
       id="Arrow2Lend-6"
       refX="0"
       refY="0"
       orient="auto"
       inkscape:stockid="Arrow2Lend">
      <path
         inkscape:connector-curvature="0"
         transform="matrix(-1.1,0,0,-1.1,-1.1,0)"
         d="M 8.7185878,4.0337352 -2.2072895,0.01601326 8.7185884,-4.0017078 c -1.7454984,2.3720609 -1.7354408,5.6174519 -6e-7,8.035443 z"
         style="fill-rule:evenodd;stroke-width:0.625;stroke-linejoin:round"
         id="path6465-4" />
    </marker>
    <filter
       color-interpolation-filters="sRGB"
       id="filter7753-0"
       inkscape:collect="always">
      <feBlend
         id="feBlend7755-6"
         in2="BackgroundImage"
         mode="multiply"
         inkscape:collect="always" />
    </filter>
  </defs>
  <metadata
     id="metadata7">
    <rdf:RDF>
      <cc:Work
         rdf:about="">
        <dc:format>image/svg+xml</dc:format>
        <dc:type
           rdf:resource="http://purl.org/dc/dcmitype/StillImage" />
        <dc:title></dc:title>
      </cc:Work>
    </rdf:RDF>
  </metadata>
  <g
     style="filter:url(#filter7753)"
     inkscape:label="Layer 1"
     inkscape:groupmode="layer"
     id="layer1">
    <g
       sodipodi:type="inkscape:box3d"
       style="fill:#e0ff00;fill-opacity:1;fill-rule:evenodd;stroke:#000000;stroke-width:0.60000002;stroke-miterlimit:4;stroke-opacity:1;stroke-dasharray:none;stroke-dashoffset:0"
       id="g6217"
       inkscape:perspectiveID="#perspective8110"
       inkscape:corner0="2.0706135 : 1.0143743 : 0 : 1"
       inkscape:corner7="0.85238329 : 0.81965864 : 0.25 : 1">
      <path
         sodipodi:type="inkscape:box3dside"
         id="path6227"
         style="fill:#afafde;fill-rule:evenodd;stroke:none"
         inkscape:box3dsidetype="13"
         d="m 73.414623,215.84904 130.285117,0 30.37987,-53.85933 -104.22809,0 z" />
      <path
         sodipodi:type="inkscape:box3dside"
         id="path6219"
         style="fill:#353564;fill-rule:evenodd;stroke:none"
         inkscape:box3dsidetype="6"
         d="m 73.414623,134.16236 0,81.68668 56.436897,-53.85933 0,-65.349347 z" />
      <path
         sodipodi:type="inkscape:box3dside"
         id="path6229"
         style="fill:#e9e9ff;fill-rule:evenodd;stroke:none"
         inkscape:box3dsidetype="11"
         d="m 129.85152,96.640363 104.22809,0 0,65.349347 -104.22809,0 z" />
      <path
         sodipodi:type="inkscape:box3dside"
         id="path6221"
         style="fill:#4d899f;fill-opacity:1"
         inkscape:box3dsidetype="5"
         d="m 73.414623,134.16236 130.285117,0 30.37987,-37.521997 -104.22809,0 z" />
      <path
         sodipodi:type="inkscape:box3dside"
         id="path6225"
         style="fill:#8693ff;fill-opacity:1"
         inkscape:box3dsidetype="14"
         d="m 203.69974,134.16236 0,81.68668 30.37987,-53.85933 0,-65.349347 z" />
      <path
         sodipodi:type="inkscape:box3dside"
         id="path6223"
         style="fill:#86bebf;fill-opacity:1"
         inkscape:box3dsidetype="3"
         d="m 73.414623,134.16236 130.285117,0 0,81.68668 -130.285117,0 z" />
    </g>
    <g
       sodipodi:type="inkscape:box3d"
       style="fill:#e0ff00;fill-opacity:1;fill-rule:evenodd;stroke:#000000;stroke-width:0.60000002;stroke-miterlimit:4;stroke-opacity:1;stroke-dasharray:none;stroke-dashoffset:0"
       id="g6231"
       inkscape:perspectiveID="#perspective6245"
       inkscape:corner0="0.64934493 : 1.0119096 : 0 : 1"
       inkscape:corner7="-0.69457566 : 0.8221234 : 0.25 : 1">
      <path
         sodipodi:type="inkscape:box3dside"
         id="path6241"
         style="fill:#afafde;fill-rule:evenodd;stroke:none"
         inkscape:box3dsidetype="13"
         d="m 203.93239,215.69698 143.72723,0 2.46164,-54.71902 -114.98179,0 z" />
      <path
         sodipodi:type="inkscape:box3dside"
         id="path6233"
         style="fill:#353564;fill-rule:evenodd;stroke:none"
         inkscape:box3dsidetype="6"
         d="m 203.93239,134.49568 0,81.2013 31.20708,-54.71902 0,-64.961039 z" />
      <path
         sodipodi:type="inkscape:box3dside"
         id="path6243"
         style="fill:#e9e9ff;fill-rule:evenodd;stroke:none"
         inkscape:box3dsidetype="11"
         d="m 235.13947,96.016921 114.98179,0 0,64.961039 -114.98179,0 z" />
      <path
         sodipodi:type="inkscape:box3dside"
         id="path6235"
         style="fill:#4dc19f;fill-opacity:1;stroke-width:0.6059339"
         inkscape:box3dsidetype="5"
         d="m 203.93239,134.49568 143.72723,0 2.46164,-38.478759 -114.98179,0 z" />
      <path
         sodipodi:type="inkscape:box3dside"
         id="path6239"
         style="fill:#86e0d3;fill-opacity:1;stroke-width:0.6059339"
         inkscape:box3dsidetype="14"
         d="m 347.65962,134.49568 0,81.2013 2.46164,-54.71902 0,-64.961039 z" />
      <path
         sodipodi:type="inkscape:box3dside"
         id="path6237"
         style="fill:#86f6bf;fill-opacity:1;stroke-width:0.6059339"
         inkscape:box3dsidetype="3"
         d="m 203.93239,134.49568 143.72723,0 0,81.2013 -143.72723,0 z" />
    </g>
    <rect
       style="fill:#86e0d3;fill-opacity:1;fill-rule:evenodd;stroke:#000000;stroke-width:0.58118314;stroke-miterlimit:4;stroke-opacity:1;stroke-dasharray:none;stroke-dashoffset:0"
       id="rect6267"
       width="217.90291"
       height="52.661961"
       x="444.53265"
       y="120.86174" />
    <rect
       style="fill:#86e0d3;fill-opacity:1;fill-rule:evenodd;stroke:#000000;stroke-width:0.60000002;stroke-miterlimit:4;stroke-opacity:1;stroke-dasharray:none;stroke-dashoffset:0"
       id="rect6274"
       width="212.03485"
       height="53.37429"
       x="449.66013"
       y="243.70514" />
    <rect
       style="fill:#86e0d3;fill-opacity:1;fill-rule:evenodd;stroke:#000000;stroke-width:0.60000002;stroke-miterlimit:4;stroke-opacity:1;stroke-dasharray:none;stroke-dashoffset:0"
       id="rect6276"
       width="18.278866"
       height="16.085402"
       x="547.63483"
       y="296.34827" />
    <rect
       style="fill:#86e0d3;fill-opacity:1;fill-rule:evenodd;stroke:#000000;stroke-width:0.60000002;stroke-miterlimit:4;stroke-opacity:1;stroke-dasharray:none;stroke-dashoffset:0"
       id="rect6278"
       width="216.42178"
       height="46.062744"
       x="446.7355"
       y="312.43369" />
    <flowRoot
       xml:space="preserve"
       id="flowRoot6280"
       style="font-size:16px;font-style:normal;font-weight:normal;line-height:125%;letter-spacing:0px;word-spacing:0px;fill:#000000;fill-opacity:1;stroke:none;font-family:Bitstream Vera Sans"
       transform="translate(-24.859258,41.675815)"><flowRegion
         id="flowRegion6282"><rect
           id="rect6284"
           width="76.77124"
           height="30.708496"
           x="78.233551"
           y="38.981834" /></flowRegion><flowPara
         id="flowPara6286">(a)</flowPara></flowRoot>    <flowRoot
       xml:space="preserve"
       id="flowRoot6280-6"
       style="font-size:16px;font-style:normal;font-weight:normal;line-height:125%;letter-spacing:0px;word-spacing:0px;fill:#000000;fill-opacity:1;stroke:none;filter:url(#filter7753);font-family:Bitstream Vera Sans"
       transform="translate(332.50514,42.455011)"
       inkscape:transform-center-x="301.23572"><flowRegion
         id="flowRegion6282-5"><rect
           id="rect6284-8"
           width="76.77124"
           height="30.708496"
           x="78.233551"
           y="38.981834" /></flowRegion><flowPara
         id="flowPara6286-5">(b)</flowPara></flowRoot>    <text
       xml:space="preserve"
       style="font-size:16px;font-style:normal;font-weight:normal;line-height:125%;letter-spacing:0px;word-spacing:0px;fill:#000000;fill-opacity:1;stroke:none;font-family:Bitstream Vera Sans"
       x="130.14552"
       y="52.873772"
       id="text6315"
       sodipodi:linespacing="125%"><tspan
         sodipodi:role="line"
         id="tspan6317"
         x="130.14552"
         y="52.873772" /></text>
    <flowRoot
       xml:space="preserve"
       id="flowRoot6280-8"
       style="font-size:16px;font-style:normal;font-weight:normal;line-height:125%;letter-spacing:0px;word-spacing:0px;fill:#000000;fill-opacity:1;stroke:none;filter:url(#filter7753);font-family:Bitstream Vera Sans"
       transform="translate(-30.878721,206.96481)"><flowRegion
         id="flowRegion6282-1"><rect
           id="rect6284-3"
           width="76.77124"
           height="30.708496"
           x="78.233551"
           y="38.981834" /></flowRegion><flowPara
         id="flowPara6286-6">(c)</flowPara></flowRoot>    <flowRoot
       xml:space="preserve"
       id="flowRoot6280-8-5"
       style="font-size:16px;font-style:normal;font-weight:normal;line-height:125%;letter-spacing:0px;word-spacing:0px;fill:#000000;fill-opacity:1;stroke:none;filter:url(#filter7753-0);font-family:Bitstream Vera Sans"
       transform="translate(332.50514,204.77134)"><flowRegion
         id="flowRegion6282-1-5"><rect
           id="rect6284-3-1"
           width="76.77124"
           height="30.708496"
           x="78.233551"
           y="38.981834" /></flowRegion><flowPara
         id="flowPara6286-6-1">(d)</flowPara></flowRoot>    <path
       style="fill:none;stroke:#000000;stroke-width:1px;stroke-linecap:butt;stroke-linejoin:miter;stroke-opacity:1"
       d="m 82.620476,286.1121 c 0.374342,0.0346 3.327593,1.08427 4.386928,0.73116 5.296058,-1.76536 -1.152744,0.21079 2.193464,-1.46231 0.689339,-0.34467 1.485075,-0.42756 2.193464,-0.73116 9.699738,-4.84987 -2.412687,1.03401 5.118083,-2.19346 1.001813,-0.42935 1.949745,-0.97487 2.924618,-1.46231 0.487437,-0.24372 0.945307,-0.55882 1.462307,-0.73116 0.95331,-0.31777 1.99161,-0.35795 2.92462,-0.73115 0.58425,-0.2337 2.20347,-2.91461 2.92461,-2.19346 0.17234,0.17233 -0.17233,0.55882 0,0.73115 0.17234,0.17234 0.55882,-0.17233 0.73116,0 0.17233,0.17234 -0.17234,0.55882 0,0.73116 0.17233,0.17233 0.55882,-0.17234 0.73115,0 2.85351,2.8535 -0.16924,0.39266 0.73116,2.19346 0.15414,0.30828 0.53997,0.44437 0.73115,0.73115 0.3023,0.45345 0.40418,1.02634 0.73116,1.46231 0.34741,0.46321 3.92371,4.03952 4.38693,4.38693 0.43597,0.32698 0.97487,0.48744 1.46231,0.73116 0.48743,0.24371 0.9453,0.55882 1.4623,0.73115 0.23122,0.0771 0.55882,-0.17233 0.73116,0 0.38535,0.38535 0.27771,1.16001 0.73115,1.46231 0.40558,0.27038 0.99989,-0.15414 1.46231,0 0.32699,0.10899 0.42288,0.57701 0.73116,0.73115 0.58492,0.29247 1.60854,-0.29246 2.19346,0 0.30828,0.15415 0.42287,0.57702 0.73116,0.73116 0.21798,0.10899 0.48743,0 0.73115,0 0.48744,0 0.98943,0.11822 1.46231,0 0.5287,-0.13218 0.94531,-0.55882 1.46231,-0.73116 1.90662,-0.63554 3.96745,-0.75663 5.84924,-1.46231 1.02054,-0.3827 1.90407,-1.0796 2.92462,-1.4623 0.94089,-0.35284 1.98372,-0.37832 2.92461,-0.73116 2.04109,-0.76541 3.80815,-2.15921 5.84924,-2.92462 11.09283,-4.15981 -3.71997,2.07291 5.11808,-1.46231 0.95161,0.40688 1.59493,-1.16304 2.19347,-1.46231 0.21799,-0.10899 0.73115,-0.24371 0.73115,0 0,0.69054 -3.41205,-1.38107 0.73116,0 0.32698,0.109 0.42287,0.57702 0.73115,0.73116 0.43598,0.21799 1.02633,-0.21799 1.46231,0 0.30828,0.15414 0.57701,0.42287 0.73116,0.73115 0.10899,0.21799 -0.21799,0.62216 0,0.73116 0.43597,0.21799 1.02633,-0.21799 1.46231,0 0.21798,0.10899 -0.17234,0.55882 0,0.73115 0.38535,0.38535 1.00886,0.42886 1.4623,0.73116 0.86035,0.57356 1.36626,1.57306 2.19347,2.19346 0.43597,0.32698 0.995,0.45077 1.46231,0.73116 0.75351,0.4521 1.43995,1.0102 2.19346,1.4623 0.46731,0.28039 1.02633,0.40418 1.46231,0.73116 0.48744,0.48744 0.97487,0.97487 1.46231,1.46231 0.24372,0 0.51317,-0.109 0.73115,0 0.30829,0.15414 0.42288,0.57701 0.73116,0.73115 0.43598,0.21799 1.02633,-0.21798 1.46231,0 0.30828,0.15414 0.38648,0.73116 0.73115,0.73116 0.34467,0 0.48744,-0.48744 0.73116,-0.73116 0.24372,-0.24371 0.62216,-0.40417 0.73115,-0.73115 0.15414,-0.46242 -0.21799,-1.02633 0,-1.46231 0.30828,-0.61656 0.97488,-0.97487 1.46231,-1.46231 5.44279,-5.44278 -1.44761,1.24081 5.11808,-4.38693 0.78508,-0.67292 1.38604,-1.54752 2.19347,-2.19346 0.42555,-0.34044 0.995,-0.45077 1.46231,-0.73116 0.75351,-0.4521 1.49047,-0.93506 2.19346,-1.46231 0.27574,-0.2068 0.48744,-0.48743 0.73116,-0.73115 0.48743,-0.24372 1.00886,-0.42886 1.46231,-0.73115 0.28678,-0.19119 0.42287,-0.57702 0.73115,-0.73116 0.0383,-0.0191 2.15521,-0.0191 2.19346,0 0.30829,0.15414 0.40418,0.62216 0.73116,0.73116 0.46242,0.15414 0.99989,-0.15415 1.46231,0 0.32698,0.10899 0.44437,0.53996 0.73115,0.73115 0.45345,0.3023 1.02634,0.40417 1.46231,0.73115 0.8189,0.61417 1.37457,1.5793 2.19347,2.19347 6.75128,4.50085 -1.55341,-1.24273 3.65577,2.92462 0.68618,0.54894 1.49047,0.93506 2.19346,1.46231 0.27574,0.2068 0.42288,0.57701 0.73116,0.73115 0.68934,0.34467 1.50412,0.38649 2.19346,0.73116 0.30828,0.15414 0.42288,0.57701 0.73116,0.73115 0.21799,0.10899 0.49994,-0.0771 0.73115,0 0.51701,0.17234 0.94531,0.55882 1.46231,0.73115 0.23121,0.0771 0.51317,-0.10899 0.73116,0 0.87738,0.4387 1.31607,1.75478 2.19346,2.19347 0.21799,0.10899 0.55882,-0.17234 0.73115,0 0.17234,0.17233 -0.17233,0.55882 0,0.73115 0.17234,0.17234 0.48744,0 0.73116,0 0.24372,0 0.49994,0.0771 0.73115,0 1.03401,-0.34467 1.91264,-1.05751 2.92462,-1.46231 0.71558,-0.28623 1.50413,-0.38648 2.19347,-0.73115 0.78596,-0.39298 1.38577,-1.11616 2.19346,-1.46231 1.59716,-0.6845 3.03247,-0.37875 4.38693,-1.46231 0.80742,-0.64594 1.36625,-1.57306 2.19346,-2.19346 0.19498,-0.14623 0.52837,0.13519 0.73116,0 0.57356,-0.38238 0.97487,-0.97488 1.46231,-1.46231 0.24371,-0.24372 0.57701,-0.42288 0.73115,-0.73116 0.10899,-0.21799 -0.17233,-0.55882 0,-0.73115 0.17234,-0.17234 0.48744,0 0.73116,0 0.24371,0 0.73115,-0.24372 0.73115,0 0,0.24372 -0.97487,0 -0.73115,0 0.24908,0 2.52891,-0.1319 2.92461,0 0.76107,0.25369 1.71544,0.74526 2.19347,1.46231 0.30229,0.45344 0.3458,1.07695 0.73115,1.46231 0.77071,0.7707 2.27066,0.59035 2.92462,1.46231 0.46242,0.61656 0.38649,1.50412 0.73116,2.19346 1.50028,3.00057 1.11111,1.3889 2.92461,3.65577 0.54895,0.68618 0.84095,1.57211 1.46231,2.19347 0.0469,0.0469 2.78843,1.37151 2.92462,1.46231 0.69751,0.465 0.53214,1.04121 1.46231,0.73115 2.41119,-0.80373 2.93014,-2.56594 4.38693,-4.38693 2.89418,-3.61772 -0.14446,0.87562 3.65577,-2.92462 0.38535,-0.38535 0.3458,-1.07695 0.73116,-1.4623 0.7707,-0.77071 2.15391,-0.69161 2.92462,-1.46231 0.38535,-0.38536 0.3458,-1.07696 0.73115,-1.46231 0.17234,-0.17234 0.49994,0.0771 0.73116,0 0.517,-0.17234 1.07695,-0.34581 1.4623,-0.73116 0.17234,-0.17233 -0.17233,-0.55882 0,-0.73115 0.17234,-0.17234 0.51317,0.10899 0.73116,0 2.42493,-2.42494 -0.68934,0.34467 1.46231,-0.73116 0.30828,-0.15414 0.42287,-0.57701 0.73115,-0.73115 0.21799,-0.109 0.51317,0.10899 0.73116,0 0.30828,-0.15414 0.42287,-0.57702 0.73115,-0.73116 0.32535,-0.16267 2.5902,0.11148 2.92462,0 0.32698,-0.10899 0.42287,-0.57701 0.73116,-0.73115 0.21798,-0.109 0.48743,0 0.73115,0 1.24628,0 1.30817,-0.0771 2.92462,0.73115 0.30828,0.15414 0.45542,0.52436 0.73115,0.73116 0.70299,0.52724 1.50729,0.91336 2.19347,1.46231 0.53828,0.43062 0.91084,1.0487 1.46231,1.46231 0.43597,0.32698 1.07695,0.3458 1.46231,0.73115 0.38535,0.38535 0.3458,1.07696 0.73115,1.46231 0.38535,0.38535 0.94531,0.55882 1.46231,0.73116 0.46242,0.15414 1.11764,-0.34467 1.46231,0 0.70069,0.70069 -1.6451,1.76695 1.46231,0.73115 0.32698,-0.10899 0.45542,-0.52435 0.73115,-0.73115 1.40599,-1.05449 3.0368,-1.79951 4.38693,-2.92462 0.79435,-0.66196 1.33312,-1.6199 2.19347,-2.19347 0.64126,-0.42751 1.53259,-0.33463 2.19346,-0.73115 0.5911,-0.35466 0.91084,-1.04871 1.46231,-1.46231 0.43597,-0.32698 1.00886,-0.42886 1.46231,-0.73116 0.28678,-0.19118 0.40417,-0.62216 0.73115,-0.73115 0.46243,-0.15414 1.02634,0.21799 1.46231,0 0.21799,-0.10899 -0.17233,-0.55882 0,-0.73115 0.34467,-0.34467 1.02633,0.21798 1.46231,0 0.30828,-0.15415 0.42287,-0.57702 0.73116,-0.73116 0.21798,-0.10899 0.48743,0 0.73115,0 0.24372,-0.24372 0.42287,-0.57701 0.73116,-0.73115 0.21798,-0.109 0.48743,0 0.73115,0 0.48744,0 0.99989,-0.15415 1.46231,0 0.32698,0.10899 0.40417,0.62216 0.73115,0.73115 0.46243,0.15414 0.98943,-0.11822 1.46231,0 1.32335,-0.44069 1.35982,1.18443 2.19347,1.46231 0.46242,0.15414 0.99988,-0.15414 1.46231,0 0.32698,0.10899 0.48743,0.48744 0.73115,0.73115 0.48744,0.24372 0.93361,0.59898 1.46231,0.73116 0.47288,0.11822 1.02633,-0.21799 1.46231,0 0.61656,0.30828 0.92403,1.03168 1.46231,1.46231 5.08968,4.07175 -0.82351,-1.55466 4.38693,3.65577 0.48743,0.48744 0.8712,1.10765 1.46231,1.46231 5.37394,1.79132 0.37236,-0.23919 2.92461,1.46231 1.6803,1.1202 1.46231,0.0609 1.46231,1.46231"
       id="path6419"
       inkscape:connector-curvature="0" />
    <path
       style="fill:none;stroke:#000000;stroke-width:1px;stroke-linecap:butt;stroke-linejoin:miter;stroke-opacity:1"
       d="m 83.351631,325.59445 c 2.693429,-2.12835 4.675034,-5.11445 7.311546,-7.31154 1.350132,-1.12511 3.014569,-1.82673 4.386928,-2.92462 0.538284,-0.43063 0.974873,-0.97488 1.46231,-1.46231 3.162456,-3.16246 -0.193691,-0.11459 2.924618,-2.19347 0.286783,-0.19118 0.422873,-0.57701 0.731157,-0.73115 0.21799,-0.10899 0.73115,-0.24372 0.73115,0 0,0.24372 -0.97487,0 -0.73115,0 0.73115,0 1.48413,-0.17733 2.19346,0 0.33438,0.0836 0.44437,0.53997 0.73115,0.73115 0.45344,0.3023 0.93361,0.59898 1.46231,0.73116 0.47288,0.11822 1.02633,-0.21799 1.46231,0 0.0884,0.0442 2.75307,2.79596 2.92462,2.92462 0.43598,0.32698 1.02633,0.40417 1.46231,0.73115 0.55147,0.41361 0.92402,1.03168 1.46231,1.46231 0.68618,0.54895 1.50728,0.91337 2.19346,1.46231 0.53828,0.43063 0.97487,0.97487 1.46231,1.46231 0.73116,0.48744 1.49047,0.93507 2.19346,1.46231 0.27574,0.2068 0.45542,0.52435 0.73116,0.73115 0.70299,0.52725 1.49047,0.93507 2.19346,1.46231 0.27574,0.20681 0.42288,0.57702 0.73116,0.73116 0.0383,0.0191 2.15521,0.0191 2.19346,0 0.30828,-0.15414 0.48744,-0.48744 0.73116,-0.73116 0.48743,-0.24371 0.95631,-0.52875 1.46231,-0.73115 0.71558,-0.28623 1.53259,-0.33463 2.19346,-0.73116 1.25616,-0.75369 3.13077,-3.63323 4.38693,-4.38692 0.66087,-0.39653 1.53259,-0.33463 2.19346,-0.73116 0.59111,-0.35466 0.87121,-1.10765 1.46231,-1.46231 0.66087,-0.39652 1.46231,-0.48743 2.19346,-0.73115 0.73116,-0.24372 1.43773,-0.58001 2.19347,-0.73116 0.47797,-0.0956 0.99989,0.15414 1.46231,0 0.32698,-0.10899 0.44437,-0.53996 0.73115,-0.73115 0.45345,-0.3023 0.94531,-0.55882 1.46231,-0.73116 0.41252,-0.1375 1.71302,0 2.19347,0 0.83838,0 2.16722,-0.18935 2.92461,0 1.0574,0.26435 1.89061,1.11764 2.92462,1.46231 0.23121,0.0771 0.48744,0 0.73116,0 0.73115,0 1.48414,-0.17733 2.19346,0 0.33438,0.0836 0.40417,0.62216 0.73116,0.73116 0.46242,0.15414 0.99988,-0.15414 1.46231,0 0.32698,0.10899 0.40417,0.62216 0.73115,0.73115 0.46242,0.15414 1.02633,-0.21799 1.46231,0 0.21799,0.109 -0.17234,0.55882 0,0.73116 0.17233,0.17233 0.51317,-0.109 0.73115,0 0.30829,0.15414 0.44438,0.53996 0.73116,0.73115 0.45344,0.3023 1.00887,0.42886 1.46231,0.73116 1.67973,1.11982 -0.31352,0.41763 1.46231,2.19346 0.0454,2.05874 1.64849,0.18618 2.19346,0.73116 3.49496,3.49496 -2.09086,0.0342 2.19347,1.4623 1.4743,0.49144 -0.0321,1.19718 1.4623,2.19347 0.45345,0.30229 1.00887,0.42886 1.46231,0.73115 0.28679,0.19119 0.42288,0.57702 0.73116,0.73116 0.21799,0.10899 0.48744,0 0.73115,0 0.24372,0 0.51317,0.10899 0.73116,0 0.61656,-0.30828 0.88874,-1.07994 1.46231,-1.46231 0.45344,-0.3023 1.00886,-0.42886 1.46231,-0.73116 0.86034,-0.57356 1.36625,-1.57306 2.19346,-2.19346 2.30783,-1.73087 0.91284,0.54947 3.65577,-2.19346 0.38536,-0.38536 0.29518,-1.13533 0.73116,-1.46231 0.61656,-0.46243 1.5769,-0.26874 2.19346,-0.73116 0.43598,-0.32698 0.3458,-1.07696 0.73116,-1.46231 1.84682,-1.84682 0.84286,-0.28095 2.19346,-0.73115 0.51701,-0.17234 1.00887,-0.42886 1.46231,-0.73116 0.28678,-0.19119 0.42287,-0.57701 0.73116,-0.73115 0.21798,-0.109 0.55882,0.17233 0.73115,0 0.17233,-0.17234 -0.17233,-0.55882 0,-0.73116 0.17233,-0.17233 0.48744,0 0.73115,0 1.46231,0 2.92462,0 4.38693,0 0.24372,0 0.51317,-0.10899 0.73116,0 0.30828,0.15414 0.42287,0.57702 0.73115,0.73116 0.21799,0.10899 0.48744,0 0.73116,0 0.48743,0.24372 1.00886,0.42886 1.46231,0.73115 0.57356,0.38238 0.88874,1.07994 1.46231,1.46231 0.45344,0.3023 0.97487,0.48744 1.4623,0.73116 0.48744,0.48743 0.91084,1.0487 1.46231,1.46231 0.43598,0.32698 0.995,0.45077 1.46231,0.73115 1.71659,1.02996 1.98446,1.52494 3.65578,2.19347 0.71558,0.28623 1.47788,0.44492 2.19346,0.73115 0.50599,0.2024 0.93361,0.59898 1.46231,0.73115 0.47288,0.11823 0.98943,-0.11822 1.46231,0 3.5307,0.88268 -0.0362,0.34746 2.19346,1.46231 0.21799,0.109 0.48744,0 0.73116,0 0.24372,0 0.51316,0.109 0.73115,0 0.30828,-0.15414 0.48744,-0.48743 0.73116,-0.73115 0.73115,-0.73116 1.46231,-1.46231 2.19346,-2.19346 0.48744,-0.48744 0.87121,-1.10765 1.46231,-1.46231 0.66087,-0.39653 1.53259,-0.33463 2.19346,-0.73116 0.59111,-0.35466 0.91084,-1.0487 1.46231,-1.46231 0.43598,-0.32698 1.07696,-0.3458 1.46231,-0.73115 1.94975,-1.94975 -0.73115,-1.21859 2.19347,-2.19347 0.23121,-0.0771 0.48743,0 0.73115,0 0.48744,0 0.97487,0 1.46231,0 0.24372,0 0.55882,-0.17233 0.73116,0 0.17233,0.17234 -0.17234,0.55882 0,0.73116 0.17233,0.17233 0.49994,-0.0771 0.73115,0 2.65065,0.88355 0.52036,0.3469 2.19346,1.46231 0.45345,0.30229 1.00887,0.42886 1.46231,0.73115 0.57357,0.38238 0.88875,1.07993 1.46231,1.46231 0.90689,0.60459 2.01774,0.85772 2.92462,1.46231 1.44846,-0.073 0.3458,1.07696 0.73116,1.46231 0.17233,0.17233 0.55882,-0.17234 0.73115,0 0.17234,0.17233 -0.17233,0.55882 0,0.73115 0.17234,0.17234 0.51317,-0.10899 0.73115,0 0.30829,0.15415 0.42288,0.57702 0.73116,0.73116 0.21799,0.10899 0.51317,-0.109 0.73115,0 0.30829,0.15414 0.44438,0.53997 0.73116,0.73115 0.45344,0.3023 1.07696,0.34581 1.46231,0.73116 0.17233,0.17233 -0.17234,0.55882 0,0.73115 0.17233,0.17234 0.48743,0 0.73115,0 0.24372,0 0.48744,0 0.73116,0 0.48743,0 0.98942,0.11822 1.46231,0 0.95504,-0.23876 3.09415,-1.85649 3.65577,-2.19346 0.46731,-0.28039 1.02633,-0.40417 1.46231,-0.73116 1.10294,-0.8272 1.84805,-2.06336 2.92462,-2.92461 0.68618,-0.54895 1.50728,-0.91337 2.19346,-1.46231 0.53829,-0.43063 0.87121,-1.10765 1.46231,-1.46231 5.37395,-1.79132 0.37237,0.23919 2.92462,-1.46231 1.34982,-0.89988 3.0371,-1.29358 4.38693,-2.19347 0.28678,-0.19118 0.42287,-0.57701 0.73115,-0.73115 0.21799,-0.10899 0.55882,0.17233 0.73116,0 0.17233,-0.17234 -0.17234,-0.55882 0,-0.73116 0.17233,-0.17233 0.73115,-0.24371 0.73115,0 0,0.24372 -0.90349,-0.17233 -0.73115,0 2.2442,2.24421 0.60793,-0.42718 2.92462,0.73116 0.61656,0.30828 0.91083,1.0487 1.4623,1.46231 0.43598,0.32698 1.07696,0.3458 1.46231,0.73115 0.38536,0.38536 0.34581,1.07696 0.73116,1.46231 0.38535,0.38535 1.02633,0.40417 1.46231,0.73116 0.55147,0.4136 0.91084,1.0487 1.46231,1.46231 0.43597,0.32698 1.00886,0.42886 1.46231,0.73115 0.28678,0.19119 0.48743,0.48744 0.73115,0.73116 0.48744,0.24371 1.00887,0.42886 1.46231,0.73115 0.86035,0.57357 1.36626,1.57306 2.19346,2.19346 0.43598,0.32699 1.00887,0.42886 1.46231,0.73116 0.28679,0.19119 0.42288,0.57701 0.73116,0.73115 0.21799,0.109 0.48744,0 0.73115,0 0.48744,0 0.98434,0.0956 1.46231,0 5.32225,-1.06445 -0.56505,-0.083 3.65578,-2.19346 7.21333,-1.80333 -0.26921,0.60022 4.38692,-2.19346 0.66088,-0.39653 1.47789,-0.44493 2.19347,-0.73116 0.50599,-0.2024 0.995,-0.45077 1.46231,-0.73115 1.49758,0.15102 1.95753,-1.54874 2.92462,-2.19347 0.90688,-0.60459 2.01773,-0.85772 2.92461,-1.46231 0.28679,-0.19119 0.42288,-0.57701 0.73116,-0.73115 0.21799,-0.109 0.55882,0.17233 0.73115,0 0.38536,-0.38535 0.34581,-1.07696 0.73116,-1.46231 0.17233,-0.17234 0.51316,0.10899 0.73115,0 0.30828,-0.15414 0.42288,-0.57701 0.73116,-0.73116 0.21799,-0.10899 0.55882,0.17234 0.73115,0 0.17234,-0.17233 -0.17233,-0.55882 0,-0.73115 0.17234,-0.17233 0.48744,0 0.73116,0 0.24372,0 0.48743,0 0.73115,0 0.48744,0 0.97487,0 1.46231,0 0.24372,0 0.49994,-0.0771 0.73116,0 0.64549,0.21517 3.80836,1.80775 4.38692,2.19346 0.28679,0.19119 0.48744,0.48744 0.73116,0.73116 0.24372,0.24372 0.48743,0.48743 0.73115,0.73115 0.24372,0.24372 0.57702,0.42288 0.73116,0.73116 0.10899,0.21799 -0.109,0.51316 0,0.73115 0.0971,0.19413 1.99933,2.0964 2.19346,2.19347 0.91972,0.45986 1.46231,-1.05009 1.46231,0.73115"
       id="path6421"
       inkscape:connector-curvature="0" />
  </g>
  <g
     inkscape:groupmode="layer"
     id="layer2"
     inkscape:label="Layer" />
</svg>
