<?xml version="1.0" encoding="UTF-8" standalone="no"?>
<!-- Created with Inkscape (http://www.inkscape.org/) -->

<svg
   xmlns:osb="http://www.openswatchbook.org/uri/2009/osb"
   xmlns:dc="http://purl.org/dc/elements/1.1/"
   xmlns:cc="http://creativecommons.org/ns#"
   xmlns:rdf="http://www.w3.org/1999/02/22-rdf-syntax-ns#"
   xmlns:svg="http://www.w3.org/2000/svg"
   xmlns="http://www.w3.org/2000/svg"
   xmlns:sodipodi="http://sodipodi.sourceforge.net/DTD/sodipodi-0.dtd"
   xmlns:inkscape="http://www.inkscape.org/namespaces/inkscape"
   enable-background="new"
   width="744.09448819"
   height="1052.3622047"
   id="svg2"
   version="1.1"
   inkscape:version="0.48.3.1 r9886"
   sodipodi:docname="systems.svg">
  <sodipodi:namedview
     id="base"
     pagecolor="#ffffff"
     bordercolor="#666666"
     borderopacity="1.0"
     inkscape:pageopacity="0.0"
     inkscape:pageshadow="2"
     inkscape:zoom="3.8684389"
     inkscape:cx="356.44172"
     inkscape:cy="764.33274"
     inkscape:document-units="px"
     inkscape:current-layer="layer1"
     showgrid="false"
     inkscape:window-width="1680"
     inkscape:window-height="974"
     inkscape:window-x="0"
     inkscape:window-y="24"
     inkscape:window-maximized="1"
     showborder="true"
     inkscape:snap-object-midpoints="true"
     showguides="true"
     inkscape:guide-bbox="true" />
  <defs
     id="defs4">
    <inkscape:perspective
       id="perspective6245"
       inkscape:persp3d-origin="273.37738 : 484.91416 : 1"
       inkscape:vp_z="359.96779 : 1110.2603 : 1"
       inkscape:vp_y="0 : 427.85674 : 0"
       inkscape:vp_x="-106.94622 : 4.4152172e-14 : 0"
       sodipodi:type="inkscape:persp3d" />
    <linearGradient
       osb:paint="solid"
       id="linearGradient5348">
      <stop
         id="stop5350"
         offset="0"
         style="stop-color:#e0ff00;stop-opacity:1;" />
    </linearGradient>
    <inkscape:perspective
       id="perspective8110"
       inkscape:persp3d-origin="294.85891 : 492.65175 : 1"
       inkscape:vp_z="355.5991 : 1105.8098 : 1"
       inkscape:vp_y="0 : 419.5178 : 0"
       inkscape:vp_x="-106.94622 : 4.3291645e-14 : 0"
       sodipodi:type="inkscape:persp3d" />
    <inkscape:perspective
       sodipodi:type="inkscape:persp3d"
       inkscape:vp_x="-106.94622 : 4.3291645e-14 : 0"
       inkscape:vp_y="0 : 419.5178 : 0"
       inkscape:vp_z="606.58761 : 831.63605 : 1"
       inkscape:persp3d-origin="334.90962 : 793.38687 : 1"
       id="perspective7953" />
    <inkscape:perspective
       sodipodi:type="inkscape:persp3d"
       inkscape:vp_x="-325.50355 : 3.9861371e-14 : 0"
       inkscape:vp_y="0 : 1000 : 0"
       inkscape:vp_z="734.54432 : 478.75417 : 1"
       inkscape:persp3d-origin="372.04724 : 350.78739 : 1"
       id="perspective7641" />
    <marker
       inkscape:stockid="Arrow2Lend"
       orient="auto"
       refY="0.0"
       refX="0.0"
       id="Arrow2Lend"
       style="overflow:visible;">
      <path
         id="path6465"
         style="fill-rule:evenodd;stroke-width:0.62500000;stroke-linejoin:round;"
         d="M 8.7185878,4.0337352 L -2.2072895,0.016013256 L 8.7185884,-4.0017078 C 6.9730900,-1.6296469 6.9831476,1.6157441 8.7185878,4.0337352 z "
         transform="scale(1.1) rotate(180) translate(1,0)" />
    </marker>
    <filter
       inkscape:collect="always"
       id="filter7753">
      <feBlend
         inkscape:collect="always"
         mode="multiply"
         in2="BackgroundImage"
         id="feBlend7755" />
    </filter>
    <marker
       inkscape:stockid="Arrow2Lend"
       orient="auto"
       refY="0"
       refX="0"
       id="Arrow2Lend-8"
       style="overflow:visible">
      <path
         id="path6465-2"
         style="fill-rule:evenodd;stroke-width:0.625;stroke-linejoin:round"
         d="M 8.7185878,4.0337352 -2.2072895,0.01601326 8.7185884,-4.0017078 c -1.7454984,2.3720609 -1.7354408,5.6174519 -6e-7,8.035443 z"
         transform="matrix(-1.1,0,0,-1.1,-1.1,0)"
         inkscape:connector-curvature="0" />
    </marker>
    <marker
       inkscape:stockid="Arrow2Lend"
       orient="auto"
       refY="0"
       refX="0"
       id="Arrow2Lend-3"
       style="overflow:visible">
      <path
         id="path6465-8"
         style="fill-rule:evenodd;stroke-width:0.625;stroke-linejoin:round"
         d="M 8.7185878,4.0337352 -2.2072895,0.01601326 8.7185884,-4.0017078 c -1.7454984,2.3720609 -1.7354408,5.6174519 -6e-7,8.035443 z"
         transform="matrix(-1.1,0,0,-1.1,-1.1,0)"
         inkscape:connector-curvature="0" />
    </marker>
    <marker
       inkscape:stockid="Arrow2Lend"
       orient="auto"
       refY="0"
       refX="0"
       id="Arrow2Lend-6"
       style="overflow:visible">
      <path
         id="path6465-4"
         style="fill-rule:evenodd;stroke-width:0.625;stroke-linejoin:round"
         d="M 8.7185878,4.0337352 -2.2072895,0.01601326 8.7185884,-4.0017078 c -1.7454984,2.3720609 -1.7354408,5.6174519 -6e-7,8.035443 z"
         transform="matrix(-1.1,0,0,-1.1,-1.1,0)"
         inkscape:connector-curvature="0" />
    </marker>
    <filter
       inkscape:collect="always"
       id="filter7753-0"
       color-interpolation-filters="sRGB">
      <feBlend
         inkscape:collect="always"
         mode="multiply"
         in2="BackgroundImage"
         id="feBlend7755-6" />
    </filter>
    <filter
       inkscape:collect="always"
       id="filter7753-5"
       color-interpolation-filters="sRGB">
      <feBlend
         inkscape:collect="always"
         mode="multiply"
         in2="BackgroundImage"
         id="feBlend7755-4" />
    </filter>
    <filter
       inkscape:collect="always"
       id="filter7753-0-6"
       color-interpolation-filters="sRGB">
      <feBlend
         inkscape:collect="always"
         mode="multiply"
         in2="BackgroundImage"
         id="feBlend7755-6-8" />
    </filter>
  </defs>
  <metadata
     id="metadata7">
    <rdf:RDF>
      <cc:Work
         rdf:about="">
        <dc:format>image/svg+xml</dc:format>
        <dc:type
           rdf:resource="http://purl.org/dc/dcmitype/StillImage" />
        <dc:title></dc:title>
      </cc:Work>
    </rdf:RDF>
  </metadata>
  <g
     id="layer1"
     inkscape:groupmode="layer"
     inkscape:label="Layer 1"
     style="filter:url(#filter7753)">
    <g
       inkscape:corner7="0.85238329 : 0.81965864 : 0.25 : 1"
       inkscape:corner0="2.0706135 : 1.0143743 : 0 : 1"
       inkscape:perspectiveID="#perspective8110"
       id="g6217"
       style="fill:#e0ff00;fill-opacity:1;fill-rule:evenodd;stroke:#000000;stroke-width:0.60000002;stroke-miterlimit:4;stroke-opacity:1;stroke-dasharray:none;stroke-dashoffset:0"
       sodipodi:type="inkscape:box3d">
      <path
         d="m 73.414623,215.84904 130.285117,0 30.37987,-53.85933 -104.22809,0 z"
         inkscape:box3dsidetype="13"
         style="fill:#afafde;fill-rule:evenodd;stroke:none"
         id="path6227"
         sodipodi:type="inkscape:box3dside" />
      <path
         d="m 73.414623,134.16236 0,81.68668 56.436897,-53.85933 0,-65.349347 z"
         inkscape:box3dsidetype="6"
         style="fill:#353564;fill-rule:evenodd;stroke:none"
         id="path6219"
         sodipodi:type="inkscape:box3dside" />
      <path
         d="m 129.85152,96.640363 104.22809,0 0,65.349347 -104.22809,0 z"
         inkscape:box3dsidetype="11"
         style="fill:#e9e9ff;fill-rule:evenodd;stroke:none"
         id="path6229"
         sodipodi:type="inkscape:box3dside" />
      <path
         d="m 73.414623,134.16236 130.285117,0 30.37987,-37.521997 -104.22809,0 z"
         inkscape:box3dsidetype="5"
         style="fill:#4d899f;fill-opacity:1"
         id="path6221"
         sodipodi:type="inkscape:box3dside" />
      <path
         d="m 203.69974,134.16236 0,81.68668 30.37987,-53.85933 0,-65.349347 z"
         inkscape:box3dsidetype="14"
         style="fill:#8693ff;fill-opacity:1"
         id="path6225"
         sodipodi:type="inkscape:box3dside" />
      <path
         d="m 73.414623,134.16236 130.285117,0 0,81.68668 -130.285117,0 z"
         inkscape:box3dsidetype="3"
         style="fill:#86bebf;fill-opacity:1"
         id="path6223"
         sodipodi:type="inkscape:box3dside" />
    </g>
    <g
       inkscape:corner7="-0.69457566 : 0.8221234 : 0.25 : 1"
       inkscape:corner0="0.64934493 : 1.0119096 : 0 : 1"
       inkscape:perspectiveID="#perspective6245"
       id="g6231"
       style="fill:#e0ff00;fill-opacity:1;fill-rule:evenodd;stroke:#000000;stroke-width:0.60000002;stroke-miterlimit:4;stroke-opacity:1;stroke-dasharray:none;stroke-dashoffset:0"
       sodipodi:type="inkscape:box3d">
      <path
         d="m 203.93239,215.69698 143.72723,0 2.46164,-54.71902 -114.98179,0 z"
         inkscape:box3dsidetype="13"
         style="fill:#afafde;fill-rule:evenodd;stroke:none"
         id="path6241"
         sodipodi:type="inkscape:box3dside" />
      <path
         d="m 203.93239,134.49568 0,81.2013 31.20708,-54.71902 0,-64.961039 z"
         inkscape:box3dsidetype="6"
         style="fill:#353564;fill-rule:evenodd;stroke:none"
         id="path6233"
         sodipodi:type="inkscape:box3dside" />
      <path
         d="m 235.13947,96.016921 114.98179,0 0,64.961039 -114.98179,0 z"
         inkscape:box3dsidetype="11"
         style="fill:#e9e9ff;fill-rule:evenodd;stroke:none"
         id="path6243"
         sodipodi:type="inkscape:box3dside" />
      <path
         d="m 203.93239,134.49568 143.72723,0 2.46164,-38.478759 -114.98179,0 z"
         inkscape:box3dsidetype="5"
         style="fill:#4dc19f;fill-opacity:1;stroke-width:0.6059339"
         id="path6235"
         sodipodi:type="inkscape:box3dside" />
      <path
         d="m 347.65962,134.49568 0,81.2013 2.46164,-54.71902 0,-64.961039 z"
         inkscape:box3dsidetype="14"
         style="fill:#86e0d3;fill-opacity:1;stroke-width:0.6059339"
         id="path6239"
         sodipodi:type="inkscape:box3dside" />
      <path
         d="m 203.93239,134.49568 143.72723,0 0,81.2013 -143.72723,0 z"
         inkscape:box3dsidetype="3"
         style="fill:#86f6bf;fill-opacity:1;stroke-width:0.6059339"
         id="path6237"
         sodipodi:type="inkscape:box3dside" />
    </g>
    <rect
       y="120.86174"
       x="444.53265"
       height="52.661961"
       width="217.90291"
       id="rect6267"
       style="fill:#86e0d3;fill-opacity:1;fill-rule:evenodd;stroke:#000000;stroke-width:0.58118314;stroke-miterlimit:4;stroke-opacity:1;stroke-dasharray:none;stroke-dashoffset:0" />
    <rect
       y="243.70514"
       x="449.66013"
       height="53.37429"
       width="212.03485"
       id="rect6274"
       style="fill:#86e0d3;fill-opacity:1;fill-rule:evenodd;stroke:#000000;stroke-width:0.60000002;stroke-miterlimit:4;stroke-opacity:1;stroke-dasharray:none;stroke-dashoffset:0" />
    <rect
       y="296.34827"
       x="547.63483"
       height="16.085402"
       width="18.278866"
       id="rect6276"
       style="fill:#86e0d3;fill-opacity:1;fill-rule:evenodd;stroke:#000000;stroke-width:0.60000002;stroke-miterlimit:4;stroke-opacity:1;stroke-dasharray:none;stroke-dashoffset:0" />
    <rect
       y="312.43369"
       x="446.7355"
       height="46.062744"
       width="216.42178"
       id="rect6278"
       style="fill:#86e0d3;fill-opacity:1;fill-rule:evenodd;stroke:#000000;stroke-width:0.60000002;stroke-miterlimit:4;stroke-opacity:1;stroke-dasharray:none;stroke-dashoffset:0" />
    <flowRoot
       transform="translate(-24.859258,41.675815)"
       style="font-size:16px;font-style:normal;font-weight:normal;line-height:125%;letter-spacing:0px;word-spacing:0px;fill:#000000;fill-opacity:1;stroke:none;font-family:Bitstream Vera Sans"
       id="flowRoot6280"
       xml:space="preserve"><flowRegion
         id="flowRegion6282"><rect
           y="38.981834"
           x="78.233551"
           height="30.708496"
           width="76.77124"
           id="rect6284" /></flowRegion><flowPara
         id="flowPara6286">(a)</flowPara></flowRoot>    <flowRoot
       inkscape:transform-center-x="301.23572"
       transform="translate(332.50514,42.455011)"
       style="font-size:16px;font-style:normal;font-weight:normal;line-height:125%;letter-spacing:0px;word-spacing:0px;fill:#000000;fill-opacity:1;stroke:none;filter:url(#filter7753);font-family:Bitstream Vera Sans"
       id="flowRoot6280-6"
       xml:space="preserve"><flowRegion
         id="flowRegion6282-5"><rect
           y="38.981834"
           x="78.233551"
           height="30.708496"
           width="76.77124"
           id="rect6284-8" /></flowRegion><flowPara
         id="flowPara6286-5">(b)</flowPara></flowRoot>    <text
       sodipodi:linespacing="125%"
       id="text6315"
       y="52.873772"
       x="130.14552"
       style="font-size:16px;font-style:normal;font-weight:normal;line-height:125%;letter-spacing:0px;word-spacing:0px;fill:#000000;fill-opacity:1;stroke:none;font-family:Bitstream Vera Sans"
       xml:space="preserve"><tspan
         y="52.873772"
         x="130.14552"
         id="tspan6317"
         sodipodi:role="line" /></text>
    <flowRoot
       transform="translate(-30.878721,206.96481)"
       style="font-size:16px;font-style:normal;font-weight:normal;line-height:125%;letter-spacing:0px;word-spacing:0px;fill:#000000;fill-opacity:1;stroke:none;filter:url(#filter7753);font-family:Bitstream Vera Sans"
       id="flowRoot6280-8"
       xml:space="preserve"><flowRegion
         id="flowRegion6282-1"><rect
           y="38.981834"
           x="78.233551"
           height="30.708496"
           width="76.77124"
           id="rect6284-3" /></flowRegion><flowPara
         id="flowPara6286-6">(c)</flowPara></flowRoot>    <flowRoot
       transform="translate(332.50514,204.77134)"
       style="font-size:16px;font-style:normal;font-weight:normal;line-height:125%;letter-spacing:0px;word-spacing:0px;fill:#000000;fill-opacity:1;stroke:none;filter:url(#filter7753-0);font-family:Bitstream Vera Sans"
       id="flowRoot6280-8-5"
       xml:space="preserve"><flowRegion
         id="flowRegion6282-1-5"><rect
           y="38.981834"
           x="78.233551"
           height="30.708496"
           width="76.77124"
           id="rect6284-3-1" /></flowRegion><flowPara
         id="flowPara6286-6-1">(d)</flowPara></flowRoot>    <path
       inkscape:connector-curvature="0"
       id="path6419"
       d="m 82.620476,286.1121 c 0.374342,0.0346 3.327593,1.08427 4.386928,0.73116 5.296058,-1.76536 -1.152744,0.21079 2.193464,-1.46231 0.689339,-0.34467 1.485075,-0.42756 2.193464,-0.73116 9.699738,-4.84987 -2.412687,1.03401 5.118083,-2.19346 1.001813,-0.42935 1.949745,-0.97487 2.924618,-1.46231 0.487437,-0.24372 0.945307,-0.55882 1.462307,-0.73116 0.95331,-0.31777 1.99161,-0.35795 2.92462,-0.73115 0.58425,-0.2337 2.20347,-2.91461 2.92461,-2.19346 0.17234,0.17233 -0.17233,0.55882 0,0.73115 0.17234,0.17234 0.55882,-0.17233 0.73116,0 0.17233,0.17234 -0.17234,0.55882 0,0.73116 0.17233,0.17233 0.55882,-0.17234 0.73115,0 2.85351,2.8535 -0.16924,0.39266 0.73116,2.19346 0.15414,0.30828 0.53997,0.44437 0.73115,0.73115 0.3023,0.45345 0.40418,1.02634 0.73116,1.46231 0.34741,0.46321 3.92371,4.03952 4.38693,4.38693 0.43597,0.32698 0.97487,0.48744 1.46231,0.73116 0.48743,0.24371 0.9453,0.55882 1.4623,0.73115 0.23122,0.0771 0.55882,-0.17233 0.73116,0 0.38535,0.38535 0.27771,1.16001 0.73115,1.46231 0.40558,0.27038 0.99989,-0.15414 1.46231,0 0.32699,0.10899 0.42288,0.57701 0.73116,0.73115 0.58492,0.29247 1.60854,-0.29246 2.19346,0 0.30828,0.15415 0.42287,0.57702 0.73116,0.73116 0.21798,0.10899 0.48743,0 0.73115,0 0.48744,0 0.98943,0.11822 1.46231,0 0.5287,-0.13218 0.94531,-0.55882 1.46231,-0.73116 1.90662,-0.63554 3.96745,-0.75663 5.84924,-1.46231 1.02054,-0.3827 1.90407,-1.0796 2.92462,-1.4623 0.94089,-0.35284 1.98372,-0.37832 2.92461,-0.73116 2.04109,-0.76541 3.80815,-2.15921 5.84924,-2.92462 11.09283,-4.15981 -3.71997,2.07291 5.11808,-1.46231 0.95161,0.40688 1.59493,-1.16304 2.19347,-1.46231 0.21799,-0.10899 0.73115,-0.24371 0.73115,0 0,0.69054 -3.41205,-1.38107 0.73116,0 0.32698,0.109 0.42287,0.57702 0.73115,0.73116 0.43598,0.21799 1.02633,-0.21799 1.46231,0 0.30828,0.15414 0.57701,0.42287 0.73116,0.73115 0.10899,0.21799 -0.21799,0.62216 0,0.73116 0.43597,0.21799 1.02633,-0.21799 1.46231,0 0.21798,0.10899 -0.17234,0.55882 0,0.73115 0.38535,0.38535 1.00886,0.42886 1.4623,0.73116 0.86035,0.57356 1.36626,1.57306 2.19347,2.19346 0.43597,0.32698 0.995,0.45077 1.46231,0.73116 0.75351,0.4521 1.43995,1.0102 2.19346,1.4623 0.46731,0.28039 1.02633,0.40418 1.46231,0.73116 0.48744,0.48744 0.97487,0.97487 1.46231,1.46231 0.24372,0 0.51317,-0.109 0.73115,0 0.30829,0.15414 0.42288,0.57701 0.73116,0.73115 0.43598,0.21799 1.02633,-0.21798 1.46231,0 0.30828,0.15414 0.38648,0.73116 0.73115,0.73116 0.34467,0 0.48744,-0.48744 0.73116,-0.73116 0.24372,-0.24371 0.62216,-0.40417 0.73115,-0.73115 0.15414,-0.46242 -0.21799,-1.02633 0,-1.46231 0.30828,-0.61656 0.97488,-0.97487 1.46231,-1.46231 5.44279,-5.44278 -1.44761,1.24081 5.11808,-4.38693 0.78508,-0.67292 1.38604,-1.54752 2.19347,-2.19346 0.42555,-0.34044 0.995,-0.45077 1.46231,-0.73116 0.75351,-0.4521 1.49047,-0.93506 2.19346,-1.46231 0.27574,-0.2068 0.48744,-0.48743 0.73116,-0.73115 0.48743,-0.24372 1.00886,-0.42886 1.46231,-0.73115 0.28678,-0.19119 0.42287,-0.57702 0.73115,-0.73116 0.0383,-0.0191 2.15521,-0.0191 2.19346,0 0.30829,0.15414 0.40418,0.62216 0.73116,0.73116 0.46242,0.15414 0.99989,-0.15415 1.46231,0 0.32698,0.10899 0.44437,0.53996 0.73115,0.73115 0.45345,0.3023 1.02634,0.40417 1.46231,0.73115 0.8189,0.61417 1.37457,1.5793 2.19347,2.19347 6.75128,4.50085 -1.55341,-1.24273 3.65577,2.92462 0.68618,0.54894 1.49047,0.93506 2.19346,1.46231 0.27574,0.2068 0.42288,0.57701 0.73116,0.73115 0.68934,0.34467 1.50412,0.38649 2.19346,0.73116 0.30828,0.15414 0.42288,0.57701 0.73116,0.73115 0.21799,0.10899 0.49994,-0.0771 0.73115,0 0.51701,0.17234 0.94531,0.55882 1.46231,0.73115 0.23121,0.0771 0.51317,-0.10899 0.73116,0 0.87738,0.4387 1.31607,1.75478 2.19346,2.19347 0.21799,0.10899 0.55882,-0.17234 0.73115,0 0.17234,0.17233 -0.17233,0.55882 0,0.73115 0.17234,0.17234 0.48744,0 0.73116,0 0.24372,0 0.49994,0.0771 0.73115,0 1.03401,-0.34467 1.91264,-1.05751 2.92462,-1.46231 0.71558,-0.28623 1.50413,-0.38648 2.19347,-0.73115 0.78596,-0.39298 1.38577,-1.11616 2.19346,-1.46231 1.59716,-0.6845 3.03247,-0.37875 4.38693,-1.46231 0.80742,-0.64594 1.36625,-1.57306 2.19346,-2.19346 0.19498,-0.14623 0.52837,0.13519 0.73116,0 0.57356,-0.38238 0.97487,-0.97488 1.46231,-1.46231 0.24371,-0.24372 0.57701,-0.42288 0.73115,-0.73116 0.10899,-0.21799 -0.17233,-0.55882 0,-0.73115 0.17234,-0.17234 0.48744,0 0.73116,0 0.24371,0 0.73115,-0.24372 0.73115,0 0,0.24372 -0.97487,0 -0.73115,0 0.24908,0 2.52891,-0.1319 2.92461,0 0.76107,0.25369 1.71544,0.74526 2.19347,1.46231 0.30229,0.45344 0.3458,1.07695 0.73115,1.46231 0.77071,0.7707 2.27066,0.59035 2.92462,1.46231 0.46242,0.61656 0.38649,1.50412 0.73116,2.19346 1.50028,3.00057 1.11111,1.3889 2.92461,3.65577 0.54895,0.68618 0.84095,1.57211 1.46231,2.19347 0.0469,0.0469 2.78843,1.37151 2.92462,1.46231 0.69751,0.465 0.53214,1.04121 1.46231,0.73115 2.41119,-0.80373 2.93014,-2.56594 4.38693,-4.38693 2.89418,-3.61772 -0.14446,0.87562 3.65577,-2.92462 0.38535,-0.38535 0.3458,-1.07695 0.73116,-1.4623 0.7707,-0.77071 2.15391,-0.69161 2.92462,-1.46231 0.38535,-0.38536 0.3458,-1.07696 0.73115,-1.46231 0.17234,-0.17234 0.49994,0.0771 0.73116,0 0.517,-0.17234 1.07695,-0.34581 1.4623,-0.73116 0.17234,-0.17233 -0.17233,-0.55882 0,-0.73115 0.17234,-0.17234 0.51317,0.10899 0.73116,0 2.42493,-2.42494 -0.68934,0.34467 1.46231,-0.73116 0.30828,-0.15414 0.42287,-0.57701 0.73115,-0.73115 0.21799,-0.109 0.51317,0.10899 0.73116,0 0.30828,-0.15414 0.42287,-0.57702 0.73115,-0.73116 0.32535,-0.16267 2.5902,0.11148 2.92462,0 0.32698,-0.10899 0.42287,-0.57701 0.73116,-0.73115 0.21798,-0.109 0.48743,0 0.73115,0 1.24628,0 1.30817,-0.0771 2.92462,0.73115 0.30828,0.15414 0.45542,0.52436 0.73115,0.73116 0.70299,0.52724 1.50729,0.91336 2.19347,1.46231 0.53828,0.43062 0.91084,1.0487 1.46231,1.46231 0.43597,0.32698 1.07695,0.3458 1.46231,0.73115 0.38535,0.38535 0.3458,1.07696 0.73115,1.46231 0.38535,0.38535 0.94531,0.55882 1.46231,0.73116 0.46242,0.15414 1.11764,-0.34467 1.46231,0 0.70069,0.70069 -1.6451,1.76695 1.46231,0.73115 0.32698,-0.10899 0.45542,-0.52435 0.73115,-0.73115 1.40599,-1.05449 3.0368,-1.79951 4.38693,-2.92462 0.79435,-0.66196 1.33312,-1.6199 2.19347,-2.19347 0.64126,-0.42751 1.53259,-0.33463 2.19346,-0.73115 0.5911,-0.35466 0.91084,-1.04871 1.46231,-1.46231 0.43597,-0.32698 1.00886,-0.42886 1.46231,-0.73116 0.28678,-0.19118 0.40417,-0.62216 0.73115,-0.73115 0.46243,-0.15414 1.02634,0.21799 1.46231,0 0.21799,-0.10899 -0.17233,-0.55882 0,-0.73115 0.34467,-0.34467 1.02633,0.21798 1.46231,0 0.30828,-0.15415 0.42287,-0.57702 0.73116,-0.73116 0.21798,-0.10899 0.48743,0 0.73115,0 0.24372,-0.24372 0.42287,-0.57701 0.73116,-0.73115 0.21798,-0.109 0.48743,0 0.73115,0 0.48744,0 0.99989,-0.15415 1.46231,0 0.32698,0.10899 0.40417,0.62216 0.73115,0.73115 0.46243,0.15414 0.98943,-0.11822 1.46231,0 1.32335,-0.44069 1.35982,1.18443 2.19347,1.46231 0.46242,0.15414 0.99988,-0.15414 1.46231,0 0.32698,0.10899 0.48743,0.48744 0.73115,0.73115 0.48744,0.24372 0.93361,0.59898 1.46231,0.73116 0.47288,0.11822 1.02633,-0.21799 1.46231,0 0.61656,0.30828 0.92403,1.03168 1.46231,1.46231 5.08968,4.07175 -0.82351,-1.55466 4.38693,3.65577 0.48743,0.48744 0.8712,1.10765 1.46231,1.46231 5.37394,1.79132 0.37236,-0.23919 2.92461,1.46231 1.6803,1.1202 1.46231,0.0609 1.46231,1.46231"
       style="fill:none;stroke:#000000;stroke-width:1px;stroke-linecap:butt;stroke-linejoin:miter;stroke-opacity:1" />
    <path
       inkscape:connector-curvature="0"
       id="path6421"
       d="m 83.351631,325.59445 c 2.693429,-2.12835 4.675034,-5.11445 7.311546,-7.31154 1.350132,-1.12511 3.014569,-1.82673 4.386928,-2.92462 0.538284,-0.43063 0.974873,-0.97488 1.46231,-1.46231 3.162456,-3.16246 -0.193691,-0.11459 2.924618,-2.19347 0.286783,-0.19118 0.422873,-0.57701 0.731157,-0.73115 0.21799,-0.10899 0.73115,-0.24372 0.73115,0 0,0.24372 -0.97487,0 -0.73115,0 0.73115,0 1.48413,-0.17733 2.19346,0 0.33438,0.0836 0.44437,0.53997 0.73115,0.73115 0.45344,0.3023 0.93361,0.59898 1.46231,0.73116 0.47288,0.11822 1.02633,-0.21799 1.46231,0 0.0884,0.0442 2.75307,2.79596 2.92462,2.92462 0.43598,0.32698 1.02633,0.40417 1.46231,0.73115 0.55147,0.41361 0.92402,1.03168 1.46231,1.46231 0.68618,0.54895 1.50728,0.91337 2.19346,1.46231 0.53828,0.43063 0.97487,0.97487 1.46231,1.46231 0.73116,0.48744 1.49047,0.93507 2.19346,1.46231 0.27574,0.2068 0.45542,0.52435 0.73116,0.73115 0.70299,0.52725 1.49047,0.93507 2.19346,1.46231 0.27574,0.20681 0.42288,0.57702 0.73116,0.73116 0.0383,0.0191 2.15521,0.0191 2.19346,0 0.30828,-0.15414 0.48744,-0.48744 0.73116,-0.73116 0.48743,-0.24371 0.95631,-0.52875 1.46231,-0.73115 0.71558,-0.28623 1.53259,-0.33463 2.19346,-0.73116 1.25616,-0.75369 3.13077,-3.63323 4.38693,-4.38692 0.66087,-0.39653 1.53259,-0.33463 2.19346,-0.73116 0.59111,-0.35466 0.87121,-1.10765 1.46231,-1.46231 0.66087,-0.39652 1.46231,-0.48743 2.19346,-0.73115 0.73116,-0.24372 1.43773,-0.58001 2.19347,-0.73116 0.47797,-0.0956 0.99989,0.15414 1.46231,0 0.32698,-0.10899 0.44437,-0.53996 0.73115,-0.73115 0.45345,-0.3023 0.94531,-0.55882 1.46231,-0.73116 0.41252,-0.1375 1.71302,0 2.19347,0 0.83838,0 2.16722,-0.18935 2.92461,0 1.0574,0.26435 1.89061,1.11764 2.92462,1.46231 0.23121,0.0771 0.48744,0 0.73116,0 0.73115,0 1.48414,-0.17733 2.19346,0 0.33438,0.0836 0.40417,0.62216 0.73116,0.73116 0.46242,0.15414 0.99988,-0.15414 1.46231,0 0.32698,0.10899 0.40417,0.62216 0.73115,0.73115 0.46242,0.15414 1.02633,-0.21799 1.46231,0 0.21799,0.109 -0.17234,0.55882 0,0.73116 0.17233,0.17233 0.51317,-0.109 0.73115,0 0.30829,0.15414 0.44438,0.53996 0.73116,0.73115 0.45344,0.3023 1.00887,0.42886 1.46231,0.73116 1.67973,1.11982 -0.31352,0.41763 1.46231,2.19346 0.0454,2.05874 1.64849,0.18618 2.19346,0.73116 3.49496,3.49496 -2.09086,0.0342 2.19347,1.4623 1.4743,0.49144 -0.0321,1.19718 1.4623,2.19347 0.45345,0.30229 1.00887,0.42886 1.46231,0.73115 0.28679,0.19119 0.42288,0.57702 0.73116,0.73116 0.21799,0.10899 0.48744,0 0.73115,0 0.24372,0 0.51317,0.10899 0.73116,0 0.61656,-0.30828 0.88874,-1.07994 1.46231,-1.46231 0.45344,-0.3023 1.00886,-0.42886 1.46231,-0.73116 0.86034,-0.57356 1.36625,-1.57306 2.19346,-2.19346 2.30783,-1.73087 0.91284,0.54947 3.65577,-2.19346 0.38536,-0.38536 0.29518,-1.13533 0.73116,-1.46231 0.61656,-0.46243 1.5769,-0.26874 2.19346,-0.73116 0.43598,-0.32698 0.3458,-1.07696 0.73116,-1.46231 1.84682,-1.84682 0.84286,-0.28095 2.19346,-0.73115 0.51701,-0.17234 1.00887,-0.42886 1.46231,-0.73116 0.28678,-0.19119 0.42287,-0.57701 0.73116,-0.73115 0.21798,-0.109 0.55882,0.17233 0.73115,0 0.17233,-0.17234 -0.17233,-0.55882 0,-0.73116 0.17233,-0.17233 0.48744,0 0.73115,0 1.46231,0 2.92462,0 4.38693,0 0.24372,0 0.51317,-0.10899 0.73116,0 0.30828,0.15414 0.42287,0.57702 0.73115,0.73116 0.21799,0.10899 0.48744,0 0.73116,0 0.48743,0.24372 1.00886,0.42886 1.46231,0.73115 0.57356,0.38238 0.88874,1.07994 1.46231,1.46231 0.45344,0.3023 0.97487,0.48744 1.4623,0.73116 0.48744,0.48743 0.91084,1.0487 1.46231,1.46231 0.43598,0.32698 0.995,0.45077 1.46231,0.73115 1.71659,1.02996 1.98446,1.52494 3.65578,2.19347 0.71558,0.28623 1.47788,0.44492 2.19346,0.73115 0.50599,0.2024 0.93361,0.59898 1.46231,0.73115 0.47288,0.11823 0.98943,-0.11822 1.46231,0 3.5307,0.88268 -0.0362,0.34746 2.19346,1.46231 0.21799,0.109 0.48744,0 0.73116,0 0.24372,0 0.51316,0.109 0.73115,0 0.30828,-0.15414 0.48744,-0.48743 0.73116,-0.73115 0.73115,-0.73116 1.46231,-1.46231 2.19346,-2.19346 0.48744,-0.48744 0.87121,-1.10765 1.46231,-1.46231 0.66087,-0.39653 1.53259,-0.33463 2.19346,-0.73116 0.59111,-0.35466 0.91084,-1.0487 1.46231,-1.46231 0.43598,-0.32698 1.07696,-0.3458 1.46231,-0.73115 1.94975,-1.94975 -0.73115,-1.21859 2.19347,-2.19347 0.23121,-0.0771 0.48743,0 0.73115,0 0.48744,0 0.97487,0 1.46231,0 0.24372,0 0.55882,-0.17233 0.73116,0 0.17233,0.17234 -0.17234,0.55882 0,0.73116 0.17233,0.17233 0.49994,-0.0771 0.73115,0 2.65065,0.88355 0.52036,0.3469 2.19346,1.46231 0.45345,0.30229 1.00887,0.42886 1.46231,0.73115 0.57357,0.38238 0.88875,1.07993 1.46231,1.46231 0.90689,0.60459 2.01774,0.85772 2.92462,1.46231 1.44846,-0.073 0.3458,1.07696 0.73116,1.46231 0.17233,0.17233 0.55882,-0.17234 0.73115,0 0.17234,0.17233 -0.17233,0.55882 0,0.73115 0.17234,0.17234 0.51317,-0.10899 0.73115,0 0.30829,0.15415 0.42288,0.57702 0.73116,0.73116 0.21799,0.10899 0.51317,-0.109 0.73115,0 0.30829,0.15414 0.44438,0.53997 0.73116,0.73115 0.45344,0.3023 1.07696,0.34581 1.46231,0.73116 0.17233,0.17233 -0.17234,0.55882 0,0.73115 0.17233,0.17234 0.48743,0 0.73115,0 0.24372,0 0.48744,0 0.73116,0 0.48743,0 0.98942,0.11822 1.46231,0 0.95504,-0.23876 3.09415,-1.85649 3.65577,-2.19346 0.46731,-0.28039 1.02633,-0.40417 1.46231,-0.73116 1.10294,-0.8272 1.84805,-2.06336 2.92462,-2.92461 0.68618,-0.54895 1.50728,-0.91337 2.19346,-1.46231 0.53829,-0.43063 0.87121,-1.10765 1.46231,-1.46231 5.37395,-1.79132 0.37237,0.23919 2.92462,-1.46231 1.34982,-0.89988 3.0371,-1.29358 4.38693,-2.19347 0.28678,-0.19118 0.42287,-0.57701 0.73115,-0.73115 0.21799,-0.10899 0.55882,0.17233 0.73116,0 0.17233,-0.17234 -0.17234,-0.55882 0,-0.73116 0.17233,-0.17233 0.73115,-0.24371 0.73115,0 0,0.24372 -0.90349,-0.17233 -0.73115,0 2.2442,2.24421 0.60793,-0.42718 2.92462,0.73116 0.61656,0.30828 0.91083,1.0487 1.4623,1.46231 0.43598,0.32698 1.07696,0.3458 1.46231,0.73115 0.38536,0.38536 0.34581,1.07696 0.73116,1.46231 0.38535,0.38535 1.02633,0.40417 1.46231,0.73116 0.55147,0.4136 0.91084,1.0487 1.46231,1.46231 0.43597,0.32698 1.00886,0.42886 1.46231,0.73115 0.28678,0.19119 0.48743,0.48744 0.73115,0.73116 0.48744,0.24371 1.00887,0.42886 1.46231,0.73115 0.86035,0.57357 1.36626,1.57306 2.19346,2.19346 0.43598,0.32699 1.00887,0.42886 1.46231,0.73116 0.28679,0.19119 0.42288,0.57701 0.73116,0.73115 0.21799,0.109 0.48744,0 0.73115,0 0.48744,0 0.98434,0.0956 1.46231,0 5.32225,-1.06445 -0.56505,-0.083 3.65578,-2.19346 7.21333,-1.80333 -0.26921,0.60022 4.38692,-2.19346 0.66088,-0.39653 1.47789,-0.44493 2.19347,-0.73116 0.50599,-0.2024 0.995,-0.45077 1.46231,-0.73115 1.49758,0.15102 1.95753,-1.54874 2.92462,-2.19347 0.90688,-0.60459 2.01773,-0.85772 2.92461,-1.46231 0.28679,-0.19119 0.42288,-0.57701 0.73116,-0.73115 0.21799,-0.109 0.55882,0.17233 0.73115,0 0.38536,-0.38535 0.34581,-1.07696 0.73116,-1.46231 0.17233,-0.17234 0.51316,0.10899 0.73115,0 0.30828,-0.15414 0.42288,-0.57701 0.73116,-0.73116 0.21799,-0.10899 0.55882,0.17234 0.73115,0 0.17234,-0.17233 -0.17233,-0.55882 0,-0.73115 0.17234,-0.17233 0.48744,0 0.73116,0 0.24372,0 0.48743,0 0.73115,0 0.48744,0 0.97487,0 1.46231,0 0.24372,0 0.49994,-0.0771 0.73116,0 0.64549,0.21517 3.80836,1.80775 4.38692,2.19346 0.28679,0.19119 0.48744,0.48744 0.73116,0.73116 0.24372,0.24372 0.48743,0.48743 0.73115,0.73115 0.24372,0.24372 0.57702,0.42288 0.73116,0.73116 0.10899,0.21799 -0.109,0.51316 0,0.73115 0.0971,0.19413 1.99933,2.0964 2.19346,2.19347 0.91972,0.45986 1.46231,-1.05009 1.46231,0.73115"
       style="fill:none;stroke:#000000;stroke-width:1px;stroke-linecap:butt;stroke-linejoin:miter;stroke-opacity:1" />
    <rect
       y="475.84674"
       x="251.5172"
       height="51.91198"
       width="251.5172"
       id="rect6444-5"
       style="fill:#d4e0e3;fill-opacity:1;fill-rule:evenodd;stroke:#b80000;stroke-width:0.60000001999999997;stroke-miterlimit:4;stroke-opacity:1;stroke-dasharray:none;stroke-dashoffset:0;filter:url(#filter7753)" />
    <path
       transform="translate(44.600434,0.73115465)"
       d="m 298.31111,452.4498 a 8.4082785,7.677124 0 1 1 -16.81656,0 8.4082785,7.677124 0 1 1 16.81656,0 z"
       sodipodi:ry="7.677124"
       sodipodi:rx="8.4082785"
       sodipodi:cy="452.4498"
       sodipodi:cx="289.90283"
       id="path6464"
       style="fill:#e35a03;fill-opacity:1;fill-rule:evenodd;stroke:#b80000;stroke-width:0.60000001999999997;stroke-miterlimit:4;stroke-opacity:1;stroke-dasharray:none;stroke-dashoffset:0"
       sodipodi:type="arc" />
    <path
       transform="translate(67.266228,-1.4623093)"
       d="m 372.88886,453.91211 a 8.0427008,7.677124 0 1 1 -16.0854,0 8.0427008,7.677124 0 1 1 16.0854,0 z"
       sodipodi:ry="7.677124"
       sodipodi:rx="8.0427008"
       sodipodi:cy="453.91211"
       sodipodi:cx="364.84616"
       id="path6466"
       style="fill:#86e0ff;fill-opacity:1;fill-rule:evenodd;stroke:#b80000;stroke-width:0.60000001999999997;stroke-miterlimit:4;stroke-opacity:1;stroke-dasharray:none;stroke-dashoffset:0"
       sodipodi:type="arc" />
    <rect
       y="382.25894"
       x="250.05489"
       height="51.91198"
       width="251.5172"
       id="rect6444-5-1"
       style="fill:#d4e0e3;fill-opacity:1;fill-rule:evenodd;stroke:#b80000;stroke-width:0.60000002;stroke-miterlimit:4;stroke-opacity:1;stroke-dasharray:none;stroke-dashoffset:0;filter:url(#filter7753-5)" />
    <path
       id="path6765"
       title="t 0.5*sin(2*pi*4*t)"
       d="m 361.1904,452.81535 c 0.47904,-1.47852 0.95807,-2.94314 1.4371,-3.9008 0.47903,-0.95767 0.95807,-1.38842 1.4371,-1.14986 0.47903,0.23857 0.95806,1.14546 1.43709,2.41202 0.47904,1.26655 0.95807,2.87152 1.4371,4.27286 0.47903,1.40133 0.95807,2.57251 1.4371,3.12036 0.47903,0.54786 0.95806,0.4593 1.4371,-0.23269 0.47903,-0.69199 0.95806,-1.97783 1.43709,-3.42165 0.47904,-1.44382 0.95807,-3.02014 1.4371,-4.19757 0.47903,-1.17743 0.95806,-1.93256 1.4371,-2.01324 0.47903,-0.0807 0.95806,0.51791 1.43709,1.59087 0.47904,1.07296 0.95807,2.60314 1.4371,4.07307 0.47903,1.46992 0.95807,2.85256 1.4371,3.68281 0.47903,0.83026 0.95806,1.09028 1.4371,0.69535 0.47903,-0.39493 0.95806,-1.4409 1.43709,-2.7825 0.47904,-1.3416 0.95807,-2.95591 1.4371,-4.29805 0.47903,-1.34214 0.95806,-2.38634 1.4371,-2.7825 0.47903,-0.39617 0.95806,-0.13385 1.43709,0.69534 0.47904,0.8292 0.95807,2.21304 1.4371,3.68282 0.47903,1.46979 0.95807,2.99923 1.4371,4.07307 0.47903,1.07384 0.95806,1.67028 1.4371,1.59087 0.47903,-0.0794 0.95806,-0.83659 1.43709,-2.01324 0.47903,-1.17666 0.95807,-2.75348 1.4371,-4.19757 0.47903,-1.4441 0.95806,-2.72854 1.4371,-3.42165 0.47903,-0.69312 0.95806,-0.77936 1.43709,-0.2327 0.47904,0.54667 0.95807,1.71945 1.4371,3.12037 0.47903,1.40092 0.95807,3.00565 1.4371,4.27286 0.47903,1.26721 0.95806,2.17218 1.4371,2.41201 0.47903,0.23983 0.95806,-0.19316 1.43709,-1.14985 0.47903,-0.95668 0.95807,-2.42228 1.4371,-3.90081"
       style="fill:none;stroke:#210000;stroke-width:0.60000002;stroke-miterlimit:4;stroke-opacity:1;stroke-dasharray:none;stroke-dashoffset:0"
       inkscape:connector-curvature="0" />
    <path
       style="fill:none;stroke:#000000;stroke-width:0.60000002;stroke-linecap:butt;stroke-linejoin:miter;stroke-miterlimit:4;stroke-opacity:1;stroke-dasharray:none;marker-end:url(#Arrow2Lend-6)"
       d="m 406.23775,452.48662 5.48366,0"
       id="path7025"
       inkscape:connector-curvature="0" />
    <path
       style="fill:none;stroke:#000000;stroke-width:0.80000001;stroke-linecap:butt;stroke-linejoin:miter;stroke-miterlimit:3.79999995;stroke-opacity:1;stroke-dasharray:none"
       d="m 402.68343,452.49162 7.10865,-0.01"
       id="path7215"
       inkscape:connector-curvature="0" />
    <flowRoot
       transform="translate(117.2588,340.70323)"
       style="font-size:16px;font-style:normal;font-weight:normal;line-height:125%;letter-spacing:0px;word-spacing:0px;fill:#000000;fill-opacity:1;stroke:none;filter:url(#filter7753-0-6);font-family:Bitstream Vera Sans"
       id="flowRoot6280-8-5-4"
       xml:space="preserve"><flowRegion
         id="flowRegion6282-1-5-0"><rect
           y="38.981834"
           x="78.233551"
           height="30.708496"
           width="76.77124"
           id="rect6284-3-1-5" /></flowRegion><flowPara
         id="flowPara6286-6-1-5">(e)</flowPara></flowRoot>    <path
       sodipodi:type="arc"
       style="fill:none;stroke:#210000;stroke-width:0.80000001;stroke-miterlimit:3.79999995;stroke-opacity:1;stroke-dasharray:none;stroke-dashoffset:0"
       id="path7269"
       sodipodi:cx="368.62415"
       sodipodi:cy="283.57663"
       sodipodi:rx="9.8230839"
       sodipodi:ry="9.8230839"
       d="m 378.44723,283.57663 a 9.8230839,9.8230839 0 1 1 -19.64617,0 9.8230839,9.8230839 0 1 1 19.64617,0 z" />
    <path
       style="fill:none;stroke:#000000;stroke-width:1px;stroke-linecap:butt;stroke-linejoin:miter;stroke-opacity:1"
       d="m 368.41055,293.69783 c 0.11828,0.0937 0.0196,0.21539 0.0457,0.31988 0.008,0.0331 0.039,0.058 0.0457,0.0914 0.009,0.0448 0,0.0914 0,0.13709 0,0.0457 0,0.0914 0,0.13709 0,0.15233 0,0.30465 0,0.45697 0,0.0305 0,0.0609 0,0.0914 0,0.0305 -0.01,0.0625 0,0.0914 0.007,0.0204 0.0389,0.0253 0.0457,0.0457 0.008,0.0246 0,0.1441 0,0.18279 0,0.13709 0,0.27418 0,0.41127 0,0.33511 0,0.67023 0,1.00534 0,1.5537 0,3.10741 0,4.66111 0,0.91394 0,1.82789 0,2.74183 0,0.25895 0,0.5179 0,0.77685 0,0.0914 0,0.18279 0,0.27419 0,0.0914 -0.0163,0.18426 0,0.27418 0.0147,0.0807 0.0736,0.14841 0.0914,0.22848 0.0132,0.0595 -0.009,0.12248 0,0.18279 0.007,0.0477 0.0362,0.0899 0.0457,0.13709 0.006,0.0299 -0.007,0.0618 0,0.0914 0.008,0.033 0.0349,0.0591 0.0457,0.0914 0.01,0.0289 -0.0136,0.0642 0,0.0914 0.01,0.0193 0.0389,0.0253 0.0457,0.0457 0.01,0.0289 -0.005,0.0614 0,0.0914 0.0103,0.0619 0.0368,0.12061 0.0457,0.18279 0.0172,0.12063 -0.0135,0.24446 0,0.36557 0.007,0.0624 0.0305,0.12186 0.0457,0.18279 0,0.0762 -0.008,0.15271 0,0.22849 0.0448,0.4476 0.0457,1.9e-4 0.13709,0.50267 0.0136,0.0749 -0.007,0.15263 0,0.22848 0.008,0.084 0.0701,0.40703 0.0914,0.50267 0.0136,0.0613 0.0368,0.12062 0.0457,0.18279 0.006,0.0452 -0.0111,0.0928 0,0.13709 0.005,0.0209 0.0361,0.0264 0.0457,0.0457 0.007,0.0139 0,0.11651 0,0.13709 0,0.0109 0.005,0.17255 0,0.18279 -0.01,0.0193 -0.0328,0.0285 -0.0457,0.0457 -0.033,0.0439 -0.0668,0.088 -0.0914,0.13709 -0.007,0.0136 0.007,0.0321 0,0.0457 -0.01,0.0193 -0.0305,0.0305 -0.0457,0.0457 -0.0152,0.0152 -0.0264,0.0361 -0.0457,0.0457 -0.0136,0.007 -0.0349,-0.0108 -0.0457,0 -0.0215,0.0215 0.0136,0.0641 0,0.0914 -0.01,0.0193 -0.0361,0.0264 -0.0457,0.0457 -0.007,0.0136 0.007,0.0321 0,0.0457 -0.006,0.0119 -0.0814,0.0557 -0.0457,0.0914 0.0108,0.0108 0.0305,0 0.0457,0 0.0457,0 0.0914,0 0.13709,0 0.0457,0 0.0914,0 0.1371,0 0.0457,0 0.0919,0.006 0.13709,0 0.0622,-0.009 0.1212,-0.0334 0.18279,-0.0457 0.0908,-0.0182 0.18332,-0.0275 0.27418,-0.0457 0.0616,-0.0123 0.121,-0.0345 0.18279,-0.0457 0.10597,-0.0193 0.21493,-0.0215 0.31988,-0.0457 0.57667,-0.13307 -0.0716,-0.0925 0.73115,-0.13709 0.19772,-0.011 0.39605,0 0.59407,0 0.38081,0 0.76162,0 1.14243,0 0.0762,0 0.15232,0 0.22848,0 0.0914,0 0.18426,0.0163 0.27418,0 0.0807,-0.0147 0.14778,-0.0767 0.22849,-0.0914 0.0899,-0.0163 0.18371,0.0129 0.27418,0 0.43567,-0.0622 0.2779,-0.10637 0.68546,-0.18279 0.13557,-0.0254 0.27544,-0.0217 0.41127,-0.0457 0.1237,-0.0218 0.24136,-0.0728 0.36558,-0.0914 0.1814,-0.0272 0.36636,-0.0229 0.54837,-0.0457 0.18388,-0.023 0.36558,-0.0609 0.54836,-0.0914 0.19803,-0.0152 0.39688,-0.022 0.59407,-0.0457 0.18399,-0.0221 0.36615,-0.0576 0.54836,-0.0914 0.83107,-0.15391 0.45324,-0.093 1.09674,-0.22849 0.4707,-0.0991 0.94494,-0.17985 1.41661,-0.27418 0.15232,-0.0305 0.31035,-0.0401 0.45697,-0.0914 0.004,-10e-4 0.90574,-0.45345 0.91394,-0.45697 0.62255,-0.2668 0.41383,-0.0592 0.95964,-0.50267 0.10032,-0.0815 0.17651,-0.18953 0.27419,-0.27418 0.13124,-0.11375 0.27869,-0.2077 0.41127,-0.31988 0.13156,-0.11132 0.22771,-0.26218 0.36558,-0.36558 0.054,-0.0405 0.23966,-0.12105 0.31988,-0.13709 0.0299,-0.006 0.0625,0.01 0.0914,0 0.0647,-0.0216 0.0722,-0.13952 0.13709,-0.18279 0.0567,-0.0378 0.12611,-0.0536 0.18279,-0.0914 0.0179,-0.012 0.0305,-0.0305 0.0457,-0.0457 0.0305,-0.0152 0.0631,-0.0268 0.0914,-0.0457 0.0179,-0.0119 0.0264,-0.0361 0.0457,-0.0457 0.0232,-0.0116 0.23641,0.009 0.27418,0 0.0661,-0.0165 0.11954,-0.0661 0.18279,-0.0914 0.0447,-0.0179 0.0986,-0.0168 0.13709,-0.0457 0.0272,-0.0204 0.0174,-0.0725 0.0457,-0.0914 0.0254,-0.0169 0.0618,0.007 0.0914,0 0.0661,-0.0165 0.11816,-0.0698 0.18278,-0.0914 0.18125,-0.0604 0.14538,-0.0141 0.27419,-0.0914 0.0471,-0.0283 0.09,-0.0631 0.13709,-0.0914 0.0292,-0.0175 0.0631,-0.0268 0.0914,-0.0457 0.0179,-0.012 0.0264,-0.0361 0.0457,-0.0457 0.0136,-0.007 0.0321,0.007 0.0457,0 0.0385,-0.0193 0.0529,-0.0721 0.0914,-0.0914 0.0136,-0.007 0.0321,0.007 0.0457,0 0.0193,-0.01 0.0278,-0.0337 0.0457,-0.0457 0.0283,-0.0189 0.0641,-0.0253 0.0914,-0.0457 0.0345,-0.0258 0.0609,-0.0609 0.0914,-0.0914 0.085,-0.085 0.1132,-0.12514 0.22849,-0.18279 0.0431,-0.0215 0.0958,-0.0209 0.13709,-0.0457 0.25234,-0.1514 0.0383,-0.0309 0.0914,-0.13709 0.0146,-0.0291 0.19258,-0.19258 0.22848,-0.22848 0.0359,-0.0359 0.19938,-0.21394 0.22849,-0.22849 0.0136,-0.007 0.0305,0 0.0457,0 0.0305,-0.0305 0.0555,-0.0675 0.0914,-0.0914 0.0127,-0.008 0.033,0.008 0.0457,0 0.0358,-0.0239 0.0609,-0.0609 0.0914,-0.0914 0.0577,-0.0577 0.11913,-0.13504 0.18279,-0.18279 0.0272,-0.0204 0.0641,-0.0253 0.0914,-0.0457 0.0345,-0.0259 0.0583,-0.0638 0.0914,-0.0914 0.0585,-0.0488 0.12893,-0.0832 0.18279,-0.13709 0.0539,-0.0539 0.0832,-0.12893 0.13709,-0.18279 0.0539,-0.0539 0.12496,-0.0875 0.18279,-0.13709 0.0818,-0.0701 0.15232,-0.15232 0.22848,-0.22849 0.0305,-0.0305 0.0656,-0.0569 0.0914,-0.0914 0.0204,-0.0272 0.0268,-0.063 0.0457,-0.0914 0.012,-0.0179 0.0361,-0.0264 0.0457,-0.0457 0.007,-0.0136 -0.0108,-0.0349 0,-0.0457 0.0108,-0.0108 0.0349,0.0108 0.0457,0 0.0108,-0.0108 -0.007,-0.0321 0,-0.0457 0.01,-0.0193 0.0305,-0.0305 0.0457,-0.0457 0.0457,-0.0457 0.0914,-0.0914 0.13709,-0.13709 0.0305,-0.0305 0.0655,-0.0569 0.0914,-0.0914 0.0409,-0.0545 0.0432,-0.13462 0.0914,-0.18279 0.23751,-0.23751 0.0476,0.0433 0.22848,-0.18279 0.0829,-0.0534 0.0838,-0.15743 0.13709,-0.22848 0.0258,-0.0345 0.0692,-0.0544 0.0914,-0.0914 0.0248,-0.0413 0.019,-0.097 0.0457,-0.13709 0.0358,-0.0538 0.0957,-0.0874 0.13709,-0.13709 0.0352,-0.0422 0.0562,-0.0949 0.0914,-0.13709 0.0414,-0.0496 0.0957,-0.0874 0.13709,-0.13709 0.18882,-0.22658 0.0181,-0.05 0.13709,-0.22849 0.0352,-0.0527 0.10194,-0.0844 0.1371,-0.13709 0.16566,-0.33133 -0.0482,0.0722 0.0914,-0.13709 0.0378,-0.0567 0.0536,-0.12611 0.0914,-0.18279 0.012,-0.0179 0.0305,-0.0305 0.0457,-0.0457 0.0305,-0.0305 0.0675,-0.0555 0.0914,-0.0914 0.008,-0.0127 -0.0108,-0.0349 0,-0.0457 0.0108,-0.0108 0.0305,0 0.0457,0 0.0152,-0.0152 0.0337,-0.0278 0.0457,-0.0457 0.10361,-0.15541 -0.0334,-0.0555 0.18279,-0.22848 0.0266,-0.0213 0.0648,-0.0244 0.0914,-0.0457 0.0505,-0.0404 0.0845,-0.0995 0.13709,-0.13709 0.4681,-0.33436 -0.11453,0.18304 0.36558,-0.22849 0.0981,-0.0841 0.18279,-0.18278 0.27418,-0.27418 0.0305,-0.0305 0.0656,-0.0569 0.0914,-0.0914 0.0204,-0.0273 0.0253,-0.0642 0.0457,-0.0914 0.0258,-0.0345 0.0609,-0.0609 0.0914,-0.0914 0.0152,-0.0152 0.0264,-0.0361 0.0457,-0.0457 0.0431,-0.0215 0.0958,-0.0209 0.13709,-0.0457 0.0369,-0.0222 0.0609,-0.0609 0.0914,-0.0914 0.0457,-0.0457 0.0914,-0.0914 0.1371,-0.13709 0.34017,-0.34018 -0.0905,0.0776 0.31988,-0.27419 0.0491,-0.0421 0.0914,-0.0914 0.13709,-0.13709 0.0762,-0.0762 0.15232,-0.15232 0.22848,-0.22848 0.0305,-0.0305 0.0569,-0.0656 0.0914,-0.0914 0.0545,-0.0409 0.12437,-0.0563 0.18279,-0.0914 0.0471,-0.0283 0.09,-0.0631 0.13709,-0.0914 0.0292,-0.0175 0.0641,-0.0253 0.0914,-0.0457 0.0689,-0.0517 0.11386,-0.13109 0.18279,-0.18279 0.0272,-0.0204 0.063,-0.0268 0.0914,-0.0457 0.0179,-0.012 0.0278,-0.0337 0.0457,-0.0457 0.0283,-0.0189 0.0631,-0.0268 0.0914,-0.0457 0.0703,-0.0469 0.11022,-0.13925 0.18278,-0.18279 0.0413,-0.0248 0.0958,-0.0209 0.1371,-0.0457 0.0369,-0.0222 0.0577,-0.0645 0.0914,-0.0914 0.0429,-0.0343 0.0942,-0.0571 0.13709,-0.0914 0.0673,-0.0538 0.12186,-0.12186 0.18279,-0.18279 0.0152,-0.0152 0.0305,-0.0305 0.0457,-0.0457 0.0152,-0.0152 0.0264,-0.0361 0.0457,-0.0457 0.0136,-0.007 0.0321,0.007 0.0457,0 0.0121,-0.006 0.13103,-0.12496 0.13709,-0.13709 0.007,-0.0136 -0.008,-0.033 0,-0.0457 0.16435,-0.24652 0.0142,0.0315 0.18279,-0.13709 0.0241,-0.0241 0.0268,-0.0631 0.0457,-0.0914 0.0119,-0.0179 0.0305,-0.0305 0.0457,-0.0457 0.0152,-0.0152 0.0264,-0.0361 0.0457,-0.0457 0.0136,-0.007 0.0349,0.0108 0.0457,0 0.0108,-0.0108 -0.008,-0.033 0,-0.0457 0.0933,-0.13991 0.0704,-0.0528 0.18279,-0.13709 0.11034,-0.0827 0.0928,-0.11607 0.18279,-0.22848 0.0673,-0.0841 0.15953,-0.14574 0.22848,-0.22849 0.0703,-0.0844 0.11895,-0.1848 0.18279,-0.27418 0.0443,-0.062 0.0928,-0.12082 0.13709,-0.18279 0.0319,-0.0447 0.0571,-0.0942 0.0914,-0.13709 0.0538,-0.0673 0.12186,-0.12186 0.18279,-0.18279 0.0305,-0.0305 0.0721,-0.0529 0.0914,-0.0914 0.0136,-0.0272 0,-0.0609 0,-0.0914"
       id="path7279"
       inkscape:connector-curvature="0" />
    <path
       style="fill:none;stroke:#000000;stroke-width:1px;stroke-linecap:butt;stroke-linejoin:miter;stroke-opacity:1"
       d="m 364.57199,278.34359 c -0.10699,0.0267 -0.18564,0.0324 -0.27418,0.0914 -0.0179,0.012 -0.0264,0.0361 -0.0457,0.0457 -0.0136,0.007 -0.0349,-0.0108 -0.0457,0 -0.0241,0.0241 -0.0268,0.063 -0.0457,0.0914 -0.012,0.0179 -0.0361,0.0264 -0.0457,0.0457 -0.007,0.0136 0.008,0.033 0,0.0457 -0.0992,0.14878 -0.085,0.0265 -0.13709,0.18278 -0.005,0.0145 0.003,0.0308 0,0.0457 -0.0287,0.14345 -0.0478,0.18922 -0.0914,0.31988 -0.0152,0.0457 -0.0362,0.0899 -0.0457,0.13709 -0.004,0.019 -0.008,0.21182 0,0.22849 0.01,0.0193 0.0389,0.0253 0.0457,0.0457 0.0427,0.12817 -0.082,0.0788 0.0914,0.18279 0.0413,0.0248 0.0995,0.0156 0.13709,0.0457 0.0429,0.0343 0.0526,0.0983 0.0914,0.13709 0.0241,0.0241 0.0609,0.0305 0.0914,0.0457 0.0305,0.0152 0.0583,0.0374 0.0914,0.0457 0.0414,0.0104 0.1754,0 0.22849,0 0.12109,0 0.25512,0.0206 0.36557,-0.0457 0.037,-0.0222 0.0545,-0.0692 0.0914,-0.0914 0.0413,-0.0248 0.0924,-0.0278 0.13709,-0.0457 0.0316,-0.0127 0.0609,-0.0305 0.0914,-0.0457 0.0305,-0.0152 0.0631,-0.0268 0.0914,-0.0457 0.0179,-0.012 0.0278,-0.0337 0.0457,-0.0457 0.0283,-0.0189 0.063,-0.0268 0.0914,-0.0457 0.0524,-0.0349 0.12249,-0.1244 0.13709,-0.18279 0.007,-0.0295 0,-0.0609 0,-0.0914 0,-0.0997 0.0145,-0.18396 -0.0457,-0.27418 -0.0358,-0.0538 -0.0914,-0.0914 -0.13709,-0.1371 -0.0457,-0.0457 -0.0914,-0.0914 -0.13709,-0.13709 -0.0609,-0.0609 -0.11267,-0.1327 -0.18279,-0.18279 -0.0392,-0.028 -0.0924,-0.0278 -0.13709,-0.0457 -0.0316,-0.0127 -0.0609,-0.0305 -0.0914,-0.0457 -0.0305,-0.0152 -0.0641,-0.0253 -0.0914,-0.0457 -0.0952,-0.0714 -0.18279,-0.15232 -0.27418,-0.22848 z"
       id="path7281"
       inkscape:connector-curvature="0" />
    <path
       style="fill:none;stroke:#000000;stroke-width:1px;stroke-linecap:butt;stroke-linejoin:miter;stroke-opacity:1"
       d="m 373.48294,278.52637 c -0.0762,-0.0457 -0.14602,-0.1041 -0.22849,-0.13709 -0.18342,-0.0734 -0.40207,-0.0457 -0.59406,-0.0457 -0.0609,0 -0.12186,0 -0.18279,0 -0.0762,0 -0.15291,-0.009 -0.22849,0 -0.0478,0.006 -0.0898,0.0362 -0.13709,0.0457 -0.24413,0.0488 0.10285,-0.0868 -0.22848,0.0457 -0.0316,0.0127 -0.0609,0.0305 -0.0914,0.0457 -0.0305,0.0152 -0.0631,0.0268 -0.0914,0.0457 -0.0538,0.0359 -0.0854,0.0983 -0.13709,0.1371 -0.0273,0.0204 -0.0673,0.0216 -0.0914,0.0457 -0.0388,0.0388 -0.0584,0.0932 -0.0914,0.13709 -0.0129,0.0172 -0.0305,0.0305 -0.0457,0.0457 -0.0305,0.0457 -0.0584,0.0932 -0.0914,0.13709 -0.0343,0.0457 -0.11425,0.0914 -0.1371,0.1371 -0.0136,0.0272 0.01,0.0625 0,0.0914 -0.007,0.0204 -0.0305,0.0305 -0.0457,0.0457 -0.0152,0.0305 -0.0374,0.0584 -0.0457,0.0914 -0.008,0.0309 0,0.29047 0,0.31988 0,0.12951 -0.0264,0.44748 0.0457,0.54837 0.0501,0.0701 0.12186,0.12186 0.18279,0.18279 0.20054,0.20054 0.18971,0.20263 0.50266,0.41127 0.10219,0.0681 0.21458,0.1196 0.31988,0.18279 0.0404,0.0243 0.60767,0.38734 0.68546,0.41127 0.0874,0.0269 0.18279,0 0.27419,0 0.0762,0 0.15232,0 0.22848,0 0.0305,0 0.0641,0.0136 0.0914,0 0.0385,-0.0193 0.0529,-0.0721 0.0914,-0.0914 0.0562,-0.0281 0.12186,-0.0305 0.18279,-0.0457 0.0762,-0.0609 0.1438,-0.1344 0.22848,-0.18279 0.13026,-0.0744 0.27554,-0.11891 0.41128,-0.18279 0.35701,-0.168 0.73349,-0.34319 1.00534,-0.63976 0.0867,-0.0945 0.24775,-0.35731 0.27418,-0.50266 0.0163,-0.0899 0,-0.18279 0,-0.27419 0,-0.0609 0.009,-0.12247 0,-0.18279 -0.0111,-0.0775 -0.10358,-0.26961 -0.13709,-0.31988 -0.0478,-0.0717 -0.13109,-0.11385 -0.18279,-0.18279 -0.0204,-0.0272 -0.0305,-0.0609 -0.0457,-0.0914 -0.0152,-0.0305 -0.0349,-0.0591 -0.0457,-0.0914 -0.0145,-0.0434 0.0145,-0.0937 0,-0.1371 -0.007,-0.0204 -0.0361,-0.0264 -0.0457,-0.0457 -0.007,-0.0136 0.0108,-0.0349 0,-0.0457 -0.0108,-0.0108 -0.0305,0 -0.0457,0 -0.0152,0 -0.0321,-0.007 -0.0457,0 -0.0193,0.01 -0.0264,0.0361 -0.0457,0.0457 -0.0136,0.007 -0.0305,0 -0.0457,0 -0.0457,0 -0.0928,-0.0111 -0.13709,0 -0.0209,0.005 -0.0264,0.0361 -0.0457,0.0457 -0.0431,0.0215 -0.0924,0.0278 -0.13709,0.0457 -0.0316,0.0127 -0.0598,0.0331 -0.0914,0.0457 -0.0447,0.0179 -0.0914,0.0305 -0.13709,0.0457 -0.0457,0.0152 -0.0894,0.0389 -0.13709,0.0457 -0.0754,0.0108 -0.15232,0 -0.22848,0 -0.0305,0 -0.0609,0 -0.0914,0 -0.0305,0 -0.0625,0.01 -0.0914,0 -0.0204,-0.007 -0.0264,-0.0361 -0.0457,-0.0457 -0.0136,-0.007 -0.0305,0 -0.0457,0 -0.0762,-0.0457 -0.15232,-0.0914 -0.22848,-0.1371 z"
       id="path7283"
       inkscape:connector-curvature="0" />
    <path
       style="fill:none;stroke:#000000;stroke-width:1px;stroke-linecap:butt;stroke-linejoin:miter;stroke-opacity:1"
       d="m 362.69841,283.73585 c 0.0207,0.16541 -0.0207,0.3828 0,0.54837 0.0195,0.15636 0.14155,0.46366 0.22848,0.59406 0.0541,0.0811 0.12291,0.1515 0.18279,0.22849 0.0468,0.0601 0.0869,0.12547 0.13709,0.18279 0.14905,0.17034 0.27932,0.26095 0.45697,0.41127 0.10721,0.0907 0.21022,0.18645 0.31988,0.27418 0.19573,0.15659 0.56513,0.42383 0.77686,0.54837 0.11743,0.0691 0.24536,0.11867 0.36557,0.18279 0.10836,0.0578 0.20838,0.13132 0.31988,0.18279 7.3e-4,3.3e-4 0.54529,0.18166 0.54837,0.18278 0.19988,0.0727 0.28931,0.12946 0.50267,0.18279 0.0899,0.0225 0.18479,0.0213 0.27418,0.0457 0.0791,0.0216 0.14891,0.0715 0.22849,0.0914 0.6732,0.16831 -0.0109,-0.0474 0.59406,0.0457 0.1096,0.0169 0.21078,0.0716 0.31988,0.0914 0.06,0.0109 0.12186,0 0.18279,0 0.0762,0 0.15232,0 0.22848,0 0.12186,0 0.24372,0 0.36558,0 0.0457,0 0.092,0.008 0.13709,0 0.12609,-0.021 0.20097,-0.0895 0.31988,-0.1371 0.0894,-0.0358 0.18365,-0.0585 0.27419,-0.0914 0.84825,-0.30845 -0.30705,0.10454 0.41127,-0.18279 0.0894,-0.0358 0.18615,-0.0523 0.27418,-0.0914 0.2311,-0.15407 0.0377,-0.0425 0.27419,-0.13709 0.0316,-0.0127 0.058,-0.039 0.0914,-0.0457 0.0448,-0.009 0.0947,0.017 0.13709,0 0.04,-0.016 0.0569,-0.0655 0.0914,-0.0914 0.0272,-0.0204 0.0673,-0.0216 0.0914,-0.0457 0.0241,-0.0241 0.0216,-0.0673 0.0457,-0.0914 0.20061,-0.20061 0.13825,-0.0728 0.31988,-0.22848 0.69179,-0.59296 -0.2586,0.14193 0.36558,-0.27419 0.27275,-0.18183 0.45441,-0.46365 0.73115,-0.63976 0.0692,-0.044 0.15232,-0.0609 0.22849,-0.0914 0.0762,-0.0305 0.15168,-0.0626 0.22848,-0.0914 0.0451,-0.0169 0.0986,-0.0168 0.13709,-0.0457 0.0272,-0.0204 0.0216,-0.0673 0.0457,-0.0914 0.0388,-0.0388 0.0983,-0.0526 0.13709,-0.0914 0.0241,-0.0241 0.0305,-0.0609 0.0457,-0.0914 0.0457,-0.0457 0.0874,-0.0957 0.13709,-0.1371 0.0422,-0.0352 0.0954,-0.0557 0.13709,-0.0914 0.0654,-0.0561 0.12186,-0.12186 0.18279,-0.18279 0.0457,-0.0457 0.095,-0.088 0.13709,-0.13709 0.0496,-0.0578 0.0883,-0.12428 0.13709,-0.18279 0.0276,-0.0331 0.0721,-0.0529 0.0914,-0.0914 0.005,-0.0108 0,-0.15277 0,-0.18279"
       id="path7285"
       inkscape:connector-curvature="0" />
    <path
       style="fill:none;stroke:#000000;stroke-width:1px;stroke-linecap:butt;stroke-linejoin:miter;stroke-opacity:1"
       d="m 368.59334,309.50905 c -0.41412,0 -0.50972,0.0299 -0.91394,-0.0914 -0.15714,-0.0471 -0.30336,-0.12518 -0.45697,-0.18279 -0.33388,-0.1252 -0.66855,-0.24843 -1.00534,-0.36558 -0.36397,-0.12659 -0.72972,-0.24813 -1.09673,-0.36557 -0.39466,-0.12629 -0.8026,-0.21371 -1.18813,-0.36558 -0.62165,-0.24489 -1.21463,-0.55736 -1.82789,-0.82255 -1.17873,-0.50972 -2.37808,-0.97043 -3.56438,-1.46231 -1.2231,-0.50714 -2.43077,-1.05114 -3.65577,-1.5537 -0.54434,-0.22332 -1.09673,-0.42651 -1.6451,-0.63976 -0.57883,-0.27419 -1.14425,-0.57869 -1.73649,-0.82255 -0.44541,-0.18341 -0.92368,-0.27808 -1.37091,-0.45697 -1.68016,-0.67207 -0.91454,-0.45727 -2.19347,-1.09674 -3.14048,-1.57024 0.51339,0.25961 -1.6451,-0.63976 -0.16397,-0.0683 -0.29369,-0.2042 -0.45697,-0.27418 -0.55398,-0.23742 0.21056,0.29269 -0.36558,-0.0914 -0.1757,-0.11714 -0.007,-0.15705 -0.18278,-0.27419 -0.0567,-0.0378 -0.13462,-0.0432 -0.18279,-0.0914 -0.33713,-0.33713 0.21886,-0.0369 -0.27419,-0.36558 -0.0253,-0.0169 -0.0698,0.0215 -0.0914,0 -0.0215,-0.0215 0.0272,-0.0778 0,-0.0914 -0.0545,-0.0272 -0.12829,0.0273 -0.18279,0 -0.0272,-0.0136 0.0215,-0.0699 0,-0.0914 -0.0215,-0.0215 -0.0698,0.0215 -0.0914,0 -0.0215,-0.0215 0.0136,-0.0641 0,-0.0914 -0.0193,-0.0385 -0.0778,-0.0505 -0.0914,-0.0914 -1.4e-4,-4.1e-4 9e-5,-0.27409 0,-0.27418 -0.0215,-0.0215 -0.0698,0.0215 -0.0914,0 -0.0215,-0.0215 0.0215,-0.0698 0,-0.0914 -0.12186,-0.12186 -0.0914,0.15232 -0.0914,-0.0914"
       id="path7308"
       inkscape:connector-curvature="0" />
    <path
       style="fill:none;stroke:#000000;stroke-width:1px;stroke-linecap:butt;stroke-linejoin:miter;stroke-opacity:1"
       d="m 368.86752,309.96603 c -0.14431,0.23023 -0.2258,0.49819 -0.36557,0.73115 -0.0565,0.0942 -0.12186,0.18279 -0.18279,0.27418 -0.0609,0.0914 -0.11417,0.18841 -0.18279,0.27419 -0.0538,0.0673 -0.12896,0.1155 -0.18279,0.18278 -0.0686,0.0858 -0.11247,0.1898 -0.18279,0.27419 -0.0827,0.0993 -0.17325,0.19344 -0.27418,0.27418 -0.24081,0.19265 -0.15872,-0.0361 -0.36558,0.27418 -0.0169,0.0254 0.0136,0.0641 0,0.0914 -0.0193,0.0385 -0.0721,0.0529 -0.0914,0.0914 -0.0366,0.0731 0.0365,0.20107 0,0.27419 -0.0193,0.0385 -0.0721,0.0529 -0.0914,0.0914 -0.0272,0.0545 0.0272,0.12829 0,0.18279 -0.0193,0.0385 -0.0721,0.0529 -0.0914,0.0914 -0.0366,0.0731 0.0366,0.20107 0,0.27419 -0.0193,0.0385 -0.0778,0.0505 -0.0914,0.0914 -0.0309,0.0926 0.0233,0.43187 0,0.54837 -0.0189,0.0945 -0.0609,0.18278 -0.0914,0.27418 -0.0305,0.0914 -0.0609,0.18279 -0.0914,0.27418 -0.0305,0.0914 -0.0778,0.17882 -0.0914,0.27418 -0.0172,0.12064 0.0151,0.24466 0,0.36558 -0.0156,0.12464 -0.0758,0.24094 -0.0914,0.36558 -0.0151,0.12092 0,0.24372 0,0.36558 0,0.12186 0,0.24372 0,0.36557 0,0.33512 0,0.67023 0,1.00534 0,0.27418 0,0.54837 0,0.82255 0,0.12186 -0.0239,0.24609 0,0.36558 0.0134,0.0668 0.078,0.11599 0.0914,0.18279 0.0179,0.0896 -0.0129,0.1837 0,0.27418 0.0178,0.12435 0.0736,0.24123 0.0914,0.36558 0.0129,0.0905 0,0.18279 0,0.27418 0,0.0914 0,0.18279 0,0.27418 0,0.39605 0,0.79209 0,1.18813 0,0.0914 0,0.18279 0,0.27418 0,0.12186 -0.0172,0.24495 0,0.36558 0.0273,0.19074 0.13606,0.36144 0.18279,0.54837 0.0199,0.0794 0,0.2752 0,0.36557 0,0.10617 0.0207,0.37412 0,0.45697 -0.0165,0.0661 -0.0609,0.12186 -0.0914,0.18279 -0.0609,0.12186 -0.12186,0.24372 -0.18279,0.36558 -0.0305,0.0609 -0.0609,0.12186 -0.0914,0.18279 -0.0305,0.0914 -0.0483,0.18802 -0.0914,0.27418 -0.0193,0.0385 -0.0778,0.0505 -0.0914,0.0914 -0.0193,0.0578 0.0193,0.12498 0,0.18279 -0.0136,0.0409 -0.0721,0.0529 -0.0914,0.0914 -0.012,0.024 0,0.31779 0,0.36558 0,0.0774 0.0164,0.31644 0,0.36557 -0.0136,0.0409 -0.0778,0.0505 -0.0914,0.0914 -0.0378,0.11351 0.03,0.3368 0,0.45697 -0.0165,0.0661 -0.0698,0.11816 -0.0914,0.18279 -0.01,0.0289 0.01,0.0625 0,0.0914 -0.0215,0.0646 -0.0699,0.11817 -0.0914,0.18279 -0.0172,0.0516 0,0.21413 0,0.27419"
       id="path7310"
       inkscape:connector-curvature="0" />
    <path
       style="fill:none;stroke:#000000;stroke-width:1px;stroke-linecap:butt;stroke-linejoin:miter;stroke-opacity:1"
       d="m 364.93757,326.87398 c -0.0914,0.18279 -0.18279,0.36557 -0.27419,0.54836 -0.0914,0.18279 -0.17399,0.37025 -0.27418,0.54837 -0.17418,0.30965 -0.39463,0.59365 -0.54837,0.91394 -0.72364,1.50759 -0.36851,1.42103 -1.37091,2.92462 -0.40908,0.61362 -0.91815,1.15437 -1.37092,1.73649 -0.003,0.004 -2.37575,3.10683 -2.37625,3.10741 -0.30842,0.35983 -0.69691,0.64551 -1.00534,1.00534 -0.50803,0.59271 -0.76892,1.18003 -1.18812,1.82788 -0.14237,0.22003 -0.33273,0.40902 -0.45697,0.63976 -0.1385,0.25721 -0.25008,0.80743 -0.27419,1.09674 -0.0152,0.18215 0.0327,0.36852 0,0.54836 -0.0293,0.16141 -0.13091,0.30134 -0.18278,0.45697 -0.0397,0.11917 -0.0517,0.24642 -0.0914,0.36558 -0.0407,0.12204 -0.21459,0.38248 -0.27418,0.45697 -0.0186,0.0232 -0.34333,0.32108 -0.36558,0.36558 -0.0136,0.0272 0,0.0609 0,0.0914"
       id="path7312"
       inkscape:connector-curvature="0" />
    <path
       style="fill:none;stroke:#000000;stroke-width:1px;stroke-linecap:butt;stroke-linejoin:miter;stroke-opacity:1"
       d="m 365.21175,326.78258 c 0.31771,0.0676 0.45783,0.32031 0.73115,0.45697 0.41828,0.20914 0.19777,-0.0764 0.63976,0.36558 0.0777,0.0777 0.0994,0.2027 0.18279,0.27418 0.13488,0.11561 0.30634,0.18004 0.45698,0.27419 0.0931,0.0582 0.1863,0.11688 0.27418,0.18279 0.15605,0.11704 0.30091,0.24853 0.45697,0.36557 0.0879,0.0659 0.19078,0.11131 0.27418,0.18279 0.13085,0.11216 0.23473,0.25343 0.36558,0.36558 0.0834,0.0715 0.19651,0.10512 0.27418,0.18279 0.10771,0.10771 0.18279,0.24372 0.27419,0.36558 0.0914,0.12185 0.18564,0.24162 0.27418,0.36557 0.0378,0.0529 0.24702,0.34831 0.27418,0.45697 0.12546,0.50182 -0.16751,-0.15223 0.0914,0.36558 0.14051,0.28104 0.0536,0.12611 0.27418,0.45697 0.0609,0.0914 0.13367,0.17594 0.18279,0.27419 0.0431,0.0862 0.0336,0.19711 0.0914,0.27418 0.0409,0.0545 0.14192,0.0369 0.18279,0.0914 0.0578,0.0771 0.0336,0.19712 0.0914,0.27419 0.0409,0.0545 0.14191,0.0369 0.18278,0.0914 0.0578,0.0771 0.0418,0.19157 0.0914,0.27418 0.0443,0.0739 0.12896,0.11551 0.18279,0.18279 0.5626,0.84391 -0.15534,-0.19417 0.36557,0.45697 0.2695,0.33687 0.10333,0.17222 0.27419,0.45698 0.0565,0.0942 0.11688,0.18631 0.18279,0.27418 0.0517,0.0689 0.13499,0.11109 0.18278,0.18279 0.0756,0.11336 0.1127,0.24875 0.18279,0.36557 0.0565,0.0942 0.11417,0.18842 0.18279,0.27419 0.22669,0.28336 0.17804,0.0819 0.36558,0.45697 0.0862,0.17233 0.10689,0.37127 0.18279,0.54837 0.0537,0.12522 0.12912,0.24035 0.18279,0.36557 0.0759,0.1771 0.10689,0.37127 0.18279,0.54837 0.2089,0.48744 0.1517,0.21109 0.27418,0.63976 0.039,0.13665 0.10974,0.49367 0.18279,0.63976 0.0491,0.0983 0.12627,0.17999 0.18279,0.27418 0.035,0.0584 0.0536,0.12611 0.0914,0.18279 0.0239,0.0358 0.0721,0.0529 0.0914,0.0914 0.0136,0.0272 -0.0215,0.0698 0,0.0914 0.12186,0.12186 0.0877,-0.19388 0.18279,0.0914 0.0193,0.0578 -0.0338,0.1321 0,0.18279 0.0378,0.0567 0.12611,0.0536 0.18279,0.0914 0.1072,0.0715 0.22522,0.30437 0.27418,0.36557 0.0538,0.0673 0.15079,0.10279 0.18279,0.18279 0.034,0.0849 -0.0409,0.19244 0,0.27419 0.0305,0.0609 0.13462,0.0432 0.18279,0.0914 0.0482,0.0482 0.0564,0.12438 0.0914,0.18279 0.0565,0.0942 0.12627,0.17999 0.18279,0.27418 0.035,0.0584 0.0505,0.12829 0.0914,0.18279 0.0517,0.0689 0.14425,0.10572 0.18279,0.18279 0.0272,0.0545 -0.0338,0.13209 0,0.18279 0.0378,0.0567 0.13462,0.0432 0.18279,0.0914 0.0215,0.0215 -0.0136,0.0642 0,0.0914 0.0193,0.0385 0.0609,0.0609 0.0914,0.0914 0.0609,0.0609 0.13109,0.11386 0.18279,0.18279 0.0409,0.0545 0.0505,0.12829 0.0914,0.18279 0.0517,0.0689 0.135,0.11109 0.18279,0.18279 0.0169,0.0254 -0.007,0.0618 0,0.0914 0.0215,0.086 0.20168,0.56726 0.27419,0.63976 0.0482,0.0482 0.13462,0.0432 0.18278,0.0914 0.22657,0.22656 -0.005,0.12425 0.0914,0.36557 0.4276,0.64141 0.0657,-0.0112 0.18279,0.45698 0.11033,0.44133 0.0434,-0.005 0.18279,0.27418 0.0136,0.0273 0,0.0609 0,0.0914 0,0.0305 0,0.0609 0,0.0914"
       id="path7314"
       inkscape:connector-curvature="0" />
    <path
       style="fill:none;stroke:#000000;stroke-width:1px;stroke-linecap:butt;stroke-linejoin:miter;stroke-opacity:1"
       d="m 347.16846,275.30455 c 0.25851,0.0431 0.51547,0.0967 0.77551,0.12925 0.51701,0.0646 0,-0.12925 0.77551,0 0.095,0.0158 0.16403,0.11036 0.2585,0.12925 0.12674,0.0254 0.26026,-0.0212 0.38775,0 0.13439,0.0224 0.25851,0.0862 0.38776,0.12925 0.17233,0 0.346,-0.0214 0.517,0 0.35253,0.0441 0.68563,0.18883 1.03401,0.2585 0.25698,0.0514 0.51767,0.0824 0.77551,0.12925 0.54397,0.0989 0.98488,0.22312 1.55101,0.25851 0.387,0.0242 0.77764,-0.0406 1.16326,0 3.0635,0.32247 -0.37703,0.22112 2.45577,0.38775 0.34408,0.0202 0.68934,0 1.03401,0 0.30158,0 0.60317,0 0.90476,0 0.30158,0 0.60668,-0.0459 0.90475,0 0.26932,0.0414 0.50673,0.21371 0.77551,0.2585 0.25499,0.0425 0.51807,-0.0234 0.77551,0 1.13941,0.10359 0.15757,0.1579 1.42176,0.38776 0.21194,0.0385 0.43084,0 0.64626,0 0.64625,0 1.29251,0 1.93876,0 0.51701,0 1.03401,0 1.55102,0 0.17233,0 0.34466,0 0.517,0 0.12925,0 0.26026,0.0212 0.38775,0 0.13439,-0.0224 0.25416,-0.10254 0.38776,-0.12926 0.0845,-0.0169 0.17233,0 0.2585,0 0.0431,0 0.0907,0.0193 0.12925,0 0.0545,-0.0272 0.0747,-0.102 0.12925,-0.12925 0.0826,-0.0413 0.41297,0.0347 0.51701,0 0.73229,-0.36614 -0.19268,0.0482 0.517,-0.12925 0.18692,-0.0467 0.33008,-0.21177 0.517,-0.2585 0.0836,-0.0209 0.17491,0.0209 0.25851,0 0.23393,0.0779 0.24038,-0.20938 0.38775,-0.2585 0.0592,-0.0197 0.57411,0 0.64625,0 0.30159,0 0.60318,0 0.90476,0 0.17234,0 0.346,0.0214 0.51701,0 0.35253,-0.0441 0.68147,-0.21444 1.03401,-0.2585 0.171,-0.0214 0.34467,0 0.517,0 0.17234,-0.0431 0.34115,-0.10413 0.517,-0.12926 0.12796,-0.0183 0.26027,0.0212 0.38776,0 0.13439,-0.0224 0.25256,-0.11235 0.38775,-0.12925 0.21376,-0.0267 0.43084,0 0.64626,0 0.17233,0 0.34467,0 0.517,0 0.94784,0 1.89568,0 2.84353,0 1.07709,0 2.15418,0 3.23127,0 0.30159,0 0.60317,0 0.90476,0 0.0849,0 0.31483,0.0243 0.38775,0 0.0914,-0.0305 0.16504,-0.10588 0.25851,-0.12925 0.0836,-0.0209 0.17233,0 0.2585,0 0.0862,0 0.17233,0 0.2585,0 0.60317,0 1.20634,0 1.80952,0 0.0676,0 0.48302,0.017 0.517,0 0.0545,-0.0272 0.0715,-0.10998 0.12925,-0.12925 0.0817,-0.0272 0.17234,0 0.2585,0 0.25851,0 0.51701,0 0.77551,0"
       id="path7335"
       inkscape:connector-curvature="0" />
    <path
       style="fill:none;stroke:#000000;stroke-width:1px;stroke-linecap:butt;stroke-linejoin:miter;stroke-opacity:1"
       d="m 388.14106,274.91679 c -6.41947,0 -12.83894,0 -19.25841,0 -1.37868,0 -2.75736,0 -4.13604,0 -0.30158,0 -0.60317,0 -0.90475,0 -0.30159,0 -0.60394,-0.0215 -0.90476,0 -0.30387,0.0217 -0.60116,0.10396 -0.90476,0.12926 -0.34348,0.0286 -0.68934,0 -1.03401,0 -0.56009,0 -1.12017,0 -1.68026,0 -0.51701,0 -1.03401,0 -1.55102,0 -0.17233,0 -0.3464,0.0244 -0.517,0 -0.13487,-0.0193 -0.25336,-0.10686 -0.38775,-0.12926 -0.1275,-0.0212 -0.25851,0 -0.38776,0 -0.0862,0 -0.17233,0 -0.2585,0 -0.0431,0 -0.0884,-0.0136 -0.12925,0 -0.0914,0.0305 -0.16711,0.0988 -0.2585,0.12926 -0.0409,0.0136 -0.0907,-0.0193 -0.12925,0 -0.0545,0.0272 -0.0748,0.102 -0.12925,0.12925 -0.0385,0.0193 -0.0862,0 -0.12926,0 -0.0431,0 -0.0862,0 -0.12925,0 -0.0224,0 -0.87791,-0.0134 -0.90475,0 -0.0545,0.0272 -0.0714,0.10998 -0.12926,0.12925 -0.0817,0.0272 -0.17233,0 -0.2585,0 -0.0862,0 -0.17233,0 -0.2585,0 -0.34467,0 -0.68934,0 -1.03401,0 -0.68934,0 -1.37868,0 -2.06802,0 -0.19603,0 -0.86047,0.0289 -1.034,0 -0.13439,-0.0224 -0.25558,-0.0962 -0.38776,-0.12925 -0.10711,-0.0268 -0.51015,0 -0.64625,0"
       id="path7337"
       inkscape:connector-curvature="0" />
    <path
       style="fill:none;stroke:#000000;stroke-width:1px;stroke-linecap:butt;stroke-linejoin:miter;stroke-opacity:1"
       d="m 360.61058,275.82155 c 0.0431,-0.34467 0.0721,-0.69138 0.12925,-1.03401 0.0292,-0.17522 0.10963,-0.34045 0.12925,-0.517 0.0238,-0.2141 0,-0.43084 0,-0.64626 0,-0.30158 0,-0.60317 0,-0.90475 0,-0.25851 -0.0215,-0.5179 0,-0.77551 0.0768,-0.92169 0.18174,-0.71886 0.38775,-1.68026 0.6195,-2.89096 -0.31384,1.07057 0.12926,-1.80952 0.0414,-0.26932 0.2137,-0.50673 0.2585,-0.77551 0.0425,-0.25498 0,-0.517 0,-0.7755 0,-0.25851 0,-0.51701 0,-0.77551 0,-0.2585 0,-0.517 0,-0.77551 0,-0.0862 0,-0.17233 0,-0.2585 0,-0.0862 0.0209,-0.17491 0,-0.2585 -0.0234,-0.0935 -0.0862,-0.17234 -0.12925,-0.2585 0,-0.12925 0.0253,-0.26102 0,-0.38776 -0.0189,-0.0945 -0.10589,-0.16504 -0.12925,-0.2585 -0.0507,-0.20275 0.0507,-0.44351 0,-0.64625 -0.0148,-0.0591 -0.11448,-0.0702 -0.12926,-0.12926 -0.0313,-0.12539 0,-0.2585 0,-0.38775 0,-0.0862 0.0273,-0.17676 0,-0.2585 -0.0193,-0.0578 -0.11447,-0.0701 -0.12925,-0.12925 -0.0313,-0.12539 0,-0.2585 0,-0.38776 0,-0.0862 0.0385,-0.18143 0,-0.2585 -0.0193,-0.0385 -0.0988,0.0305 -0.12925,0 -0.004,-0.004 0,-0.3564 0,-0.38775 0,-0.64626 0,-1.29251 0,-1.93877 0.12117,-0.0242 0.66567,-0.17707 0.90476,-0.12925 0.1336,0.0267 0.25336,0.10685 0.38775,0.12925 0.1275,0.0213 0.25851,0 0.38776,0 0.34467,0 0.68934,0 1.03401,0 1.24942,0 2.49885,0 3.74828,0 0.38775,0 0.7755,0 1.16326,0 0.12925,0 0.26101,-0.0254 0.38775,0 0.0945,0.0189 0.16404,0.11036 0.2585,0.12925 0.21124,0.0423 0.43727,-0.0522 0.64626,0 0.0935,0.0234 0.16403,0.11036 0.2585,0.12925 0.21124,0.0422 0.43727,-0.0522 0.64626,0 0.0935,0.0234 0.16504,0.10589 0.2585,0.12926 0.11717,0.0293 0.49611,0 0.64625,0 0.38776,0 0.77551,0 1.16326,0 0.12925,0 0.25851,0 0.38776,0 0.0431,0 0.0874,-0.0104 0.12925,0 1.40572,0.46857 -0.34061,-0.0681 0.64625,0.12925 0.1336,0.0267 0.25416,0.10253 0.38776,0.12925 0.0845,0.0169 0.17401,-0.0169 0.2585,0 0.1336,0.0267 0.25558,0.0962 0.38775,0.12925 0.11058,0.0276 0.51707,0 0.64626,0 0.517,0 1.03401,0 1.55101,0 0.34467,0 0.68934,0 1.03401,0 0.0307,0 0.48804,0.0145 0.517,0 0.0545,-0.0272 0.0862,-0.0862 0.12926,-0.12925 0.0431,-0.0431 0.0862,-0.0862 0.12925,-0.12925"
       id="path7339"
       inkscape:connector-curvature="0" />
    <path
       style="fill:none;stroke:#000000;stroke-width:1px;stroke-linecap:butt;stroke-linejoin:miter;stroke-opacity:1"
       d="m 378.57648,259.92367 c 0.0789,0.41886 -0.0602,0.87075 0,1.29251 0.0251,0.17585 0.0907,0.34359 0.12925,0.517 0.0477,0.21446 0.0542,0.4398 0.12925,0.64626 0.0988,0.27161 0.27391,0.50986 0.38776,0.7755 0.53117,1.23941 0.1902,0.75597 0.7755,1.80952 0.28846,0.51922 0.28445,0.28459 0.51701,0.90476 0.0624,0.16633 0.0944,0.34281 0.12925,0.517 0.008,0.0423 -0.0193,0.0907 0,0.12925 0.0272,0.0545 0.102,0.0748 0.12925,0.12925 0.0197,0.0393 0,0.32955 0,0.38776 0,0.2585 0,0.517 0,0.7755 0,0.21542 0,0.43084 0,0.64626 0,0.0862 0.0169,0.17401 0,0.2585 -0.0736,0.36774 -0.12925,0.34467 -0.2585,0.64626 -0.0914,0.21325 -0.15474,0.43873 -0.2585,0.64625 -0.0695,0.13894 -0.18144,0.25288 -0.25851,0.38776 -0.0956,0.16729 -0.17233,0.34467 -0.2585,0.517 -0.0862,0.17234 -0.1826,0.33991 -0.2585,0.51701 -0.0537,0.12522 -0.0962,0.25557 -0.12925,0.38775 -0.0275,0.11013 0,0.2738 0,0.38775 0,0.2585 0,0.51701 0,0.77551 0,0.0431 0,0.0862 0,0.12925 0,0.0431 0.0305,0.0988 0,0.12925 -0.0305,0.0305 -0.0988,-0.0305 -0.12925,0 -0.0305,0.0305 0,0.0862 0,0.12925 0,0.30159 0,0.60317 0,0.90476"
       id="path7341"
       inkscape:connector-curvature="0" />
    <path
       style="fill:none;stroke:#000000;stroke-width:1px;stroke-linecap:butt;stroke-linejoin:miter;stroke-opacity:1"
       d="m 356.37761,275.53074 c 0.0539,0.0323 0.10097,0.0804 0.16156,0.0969 0.0623,0.017 0.12925,0 0.19388,0 0.29081,0 0.58163,0 0.87244,0 0.50623,0 1.01247,0 1.5187,0 1.38945,0 2.7789,0 4.16835,0 0.34467,0 0.68934,0 1.03401,0 0.11848,0 0.238,-0.0157 0.35544,0 0.0478,0.006 0.0845,0.0467 0.12925,0.0646 0.01,0.004 0.0323,-0.0108 0.0323,0 0,0.0152 -0.0182,0.0267 -0.0323,0.0323 -0.0412,0.0165 -0.0851,0.0274 -0.12925,0.0323 -0.0535,0.006 -0.10771,0 -0.16156,0 -0.26928,0 -0.53855,0 -0.80782,0 -0.20465,0 -0.4093,0 -0.61395,0 -0.21542,0 -0.43105,0.01 -0.64625,0 -0.26987,-0.012 -0.53862,-0.0422 -0.80782,-0.0646 -0.24781,-0.0206 -0.49475,-0.0543 -0.7432,-0.0646 -0.26904,-0.0112 -0.53854,0 -0.80782,0 -0.1831,0 -0.36621,0 -0.54931,0 -0.18311,0 -0.36621,0 -0.54932,0 -0.14002,0 -0.28053,-0.0116 -0.42007,0 -0.12,0.01 -0.23594,0.0497 -0.35544,0.0646 -0.0534,0.007 -0.10771,0 -0.16156,0 -0.0108,0 -0.0431,0 -0.0323,0 0.0539,0 0.10812,-0.007 0.16156,0 0.0545,0.007 0.10713,0.0251 0.16156,0.0323 0.1073,0.0143 0.21597,0.017 0.32313,0.0323 0.11921,0.017 0.23529,0.0566 0.35544,0.0646 0.2042,0.0136 0.4096,-0.011 0.61395,0 0.19478,0.0105 0.38752,0.0452 0.58163,0.0646 0.23675,0.0237 0.47406,0.0415 0.71088,0.0646 0.96675,0.0943 0.2832,0.0337 1.35713,0.16157 0.20434,0.0243 0.40976,0.0391 0.61395,0.0646 1.01463,0.12683 0.33412,0.0608 1.29251,0.19388 0.18261,0.0254 0.3667,0.0393 0.54931,0.0646 0.34554,0.048 0.68922,0.10852 1.03401,0.16157 0.14003,0.0215 0.27898,0.0518 0.42007,0.0646 0.0965,0.009 0.19454,-0.0113 0.29081,0 0.68255,0.0803 -0.0932,0.0646 0.45238,0.0646 0.0323,0 0.068,0.0145 0.0969,0 0.0136,-0.007 -0.0175,-0.0286 -0.0323,-0.0323 -0.0313,-0.008 -0.0646,0 -0.0969,0 -0.50946,0 0.31796,0.0131 -0.42007,-0.0646 -0.11782,-0.0124 -0.23696,0 -0.35544,0 -0.11848,0 -0.23696,0 -0.35544,0 -0.34467,0 -0.68934,0 -1.03401,0 -0.0108,0 0.0216,0 0.0323,0 0.0323,0 0.0646,0 0.0969,0 0.0754,0 0.15079,0 0.22619,0 0.11848,0 0.23722,0.008 0.35544,0 0.20532,-0.0137 0.40918,-0.0442 0.61394,-0.0646 0.76542,-0.0765 1.53347,-0.14147 2.29421,-0.25851 0.84009,-0.12924 0.90472,-0.15453 1.68026,-0.32312 0.57455,-0.12491 0.74508,-0.18709 1.29251,-0.22619 0.11818,-0.008 0.23696,0 0.35544,0 0.10771,0 0.21751,0.0211 0.32313,0 0.0211,-0.004 0.0152,-0.0494 0,-0.0646 -0.0493,-0.0493 -0.26244,-0.0323 -0.32313,-0.0323 -0.17233,0 -0.34467,0 -0.517,0 -0.0431,0 -0.0862,0 -0.12925,0 -0.0216,0 -0.0454,-0.01 -0.0646,0 -0.0345,0.0172 -0.10663,0.0722 -0.0323,0.0969 0.0204,0.007 0.0431,0 0.0646,0"
       id="path7345"
       inkscape:connector-curvature="0" />
    <path
       style="fill:none;stroke:#000000;stroke-width:1px;stroke-linecap:butt;stroke-linejoin:miter;stroke-opacity:1"
       d="m 366.52382,275.82155 c -0.31799,0.1272 -0.0331,0.0365 -0.2585,0.0646 -0.0545,0.007 -0.10707,0.0255 -0.16157,0.0323 -0.0321,0.004 -0.0646,0 -0.0969,0 -0.15079,0 -0.30158,0 -0.45238,0 -0.0431,0 -0.0862,0 -0.12925,0 -0.0431,0 -0.0865,0.005 -0.12925,0 -0.0441,-0.006 -0.0853,-0.026 -0.12925,-0.0323 -0.032,-0.005 -0.0656,0.008 -0.0969,0 -0.0148,-0.004 -0.0187,-0.0255 -0.0323,-0.0323 -0.01,-0.005 -0.0247,0.008 -0.0323,0 -0.008,-0.008 -0.008,-0.0247 0,-0.0323 0.008,-0.008 0.0215,0 0.0323,0 0.0323,0 0.0654,0.007 0.0969,0 0.59164,-0.13148 -0.27399,-0.0145 0.45238,-0.0646 0.22667,-0.0156 0.4532,-0.0357 0.67857,-0.0646 0.19495,-0.025 0.38696,-0.0698 0.58162,-0.0969 0.26861,-0.0375 0.53911,-0.0603 0.80782,-0.0969 0.66556,-0.0908 0.59723,-0.12293 1.29252,-0.16156 0.16131,-0.009 0.32312,0 0.48469,0 0.1831,0 0.36621,0 0.54931,0 0.14003,0 0.28005,0 0.42007,0 0.14002,0 0.28081,-0.0147 0.42007,0 0.0677,0.007 0.12668,0.0534 0.19387,0.0646 0.0638,0.0106 0.12965,-0.007 0.19388,0 0.0339,0.004 0.0639,0.024 0.0969,0.0323 0.0104,0.003 0.0215,0 0.0323,0 0.0215,0 0.0431,0 0.0646,0 0.29081,0 0.58163,0 0.87244,0 0.0969,0 0.19388,0 0.29082,0 0.0646,0 0.12964,0.007 0.19387,0 0.0339,-0.004 0.0632,-0.0275 0.0969,-0.0323 0.14002,-0.02 0.12925,0.0481 0.12925,-0.0323"
       id="path7347"
       inkscape:connector-curvature="0" />
    <path
       style="fill:none;stroke:#000000;stroke-width:1px;stroke-linecap:butt;stroke-linejoin:miter;stroke-opacity:1"
       d="m 372.53399,275.53074 c 0.1613,0.0178 0.28981,-0.053 0.45238,-0.0646 0.0859,-0.006 0.17329,0.0128 0.2585,0 0.13176,-0.0198 0.25565,-0.0797 0.38776,-0.0969 0.11748,-0.0153 0.23696,0 0.35544,0 0.23696,0 0.47392,0 0.71088,0 0.18311,0 0.36621,0 0.54932,0 0.0754,0 0.1511,0.007 0.22619,0 0.0442,-0.004 0.0857,-0.0236 0.12925,-0.0323 0.0359,-0.007 0.0915,0 0.12925,0"
       id="path7349"
       inkscape:connector-curvature="0" />
    <path
       style="fill:none;stroke:#000000;stroke-width:1px;stroke-linecap:butt;stroke-linejoin:miter;stroke-opacity:1"
       d="m 369.85204,267.54488 c -1.09125,0.005 -0.7409,-0.22389 -1.22789,0.2631 -0.0862,0.0862 -0.14951,0.20401 -0.25851,0.25851 -0.0771,0.0385 -0.19757,-0.0609 -0.2585,0 -0.0609,0.0609 0.0609,0.19757 0,0.2585 -0.0609,0.0609 -0.18143,-0.0385 -0.2585,0 -0.10899,0.0545 -0.17233,0.17233 -0.2585,0.2585 -0.0862,0.0862 -0.20401,0.14951 -0.2585,0.2585 -0.0385,0.0771 0.0385,0.18144 0,0.25851 -0.31944,0.63886 -0.25851,-0.0892 -0.25851,0.517 0,0.17233 0,0.34467 0,0.517 0,0.0862 -0.0609,0.19758 0,0.25851 0.0609,0.0609 0.19758,-0.0609 0.25851,0 0.0609,0.0609 -0.0609,0.19757 0,0.2585 0.0609,0.0609 0.17233,0 0.2585,0 0.17233,0 0.36286,-0.0771 0.517,0 0.0771,0.0385 -0.0609,0.19757 0,0.2585 0.0622,0.0622 0.97181,-0.0622 1.03401,0 0.0609,0.0609 -0.0609,0.19757 0,0.2585 0.0258,0.0258 0.74966,0.0258 0.77551,0 0.0609,-0.0609 -0.0609,-0.19757 0,-0.2585 0.0609,-0.0609 0.19757,0.0609 0.2585,0 0.0707,-0.0707 -0.0701,-0.89377 0,-1.03401 0.0545,-0.10899 0.20401,-0.14951 0.2585,-0.2585 0.0393,-0.0787 0,-0.65909 0,-0.77551 0,-0.0862 0.0353,-0.17987 0,-0.2585 -0.16235,-0.36206 -0.92783,-0.84474 -0.58162,-1.03861 0.3462,-0.19388 0.38775,0.69241 0,0 z"
       id="path7351"
       inkscape:connector-curvature="0" />
  </g>
  <g
     inkscape:label="Layer"
     id="layer2"
     inkscape:groupmode="layer" />
</svg>
