<?xml version="1.0" encoding="UTF-8" standalone="no"?>
<!-- Created with Inkscape (http://www.inkscape.org/) -->

<svg
   xmlns:dc="http://purl.org/dc/elements/1.1/"
   xmlns:cc="http://creativecommons.org/ns#"
   xmlns:rdf="http://www.w3.org/1999/02/22-rdf-syntax-ns#"
   xmlns:svg="http://www.w3.org/2000/svg"
   xmlns="http://www.w3.org/2000/svg"
   xmlns:xlink="http://www.w3.org/1999/xlink"
   xmlns:sodipodi="http://sodipodi.sourceforge.net/DTD/sodipodi-0.dtd"
   xmlns:inkscape="http://www.inkscape.org/namespaces/inkscape"
   enable-background="new"
   width="744.09448819"
   height="1052.3622047"
   id="svg2"
   version="1.1"
   inkscape:version="0.48.3.1 r9886"
   sodipodi:docname="thermal_radiation.svg">
  <sodipodi:namedview
     id="base"
     pagecolor="#ffffff"
     bordercolor="#666666"
     borderopacity="1.0"
     inkscape:pageopacity="0.0"
     inkscape:pageshadow="2"
     inkscape:zoom="2"
     inkscape:cx="350.28959"
     inkscape:cy="711.927"
     inkscape:document-units="px"
     inkscape:current-layer="layer1"
     showgrid="false"
     inkscape:window-width="1680"
     inkscape:window-height="974"
     inkscape:window-x="0"
     inkscape:window-y="24"
     inkscape:window-maximized="1"
     showborder="true"
     inkscape:snap-object-midpoints="true"
     showguides="true"
     inkscape:guide-bbox="true" />
  <defs
     id="defs4">
    <pattern
       inkscape:stockid="Stripes 1:1"
       id="Strips1_1"
       patternTransform="translate(0,0) scale(10,10)"
       height="1"
       width="2"
       patternUnits="userSpaceOnUse"
       inkscape:collect="always">
      <rect
         id="rect4613"
         height="2"
         width="1"
         y="-0.5"
         x="0"
         style="fill:black;stroke:none" />
    </pattern>
    <linearGradient
       id="linearGradient11798">
      <stop
         style="stop-color:#b1e0c7;stop-opacity:1"
         offset="0"
         id="stop11800" />
      <stop
         id="stop11869"
         offset="0.5"
         style="stop-color:#d8e39a;stop-opacity:1;" />
      <stop
         style="stop-color:#ffe76d;stop-opacity:1"
         offset="1"
         id="stop11802" />
    </linearGradient>
    <linearGradient
       id="linearGradient11767">
      <stop
         style="stop-color:#ff8557;stop-opacity:1;"
         offset="0"
         id="stop11769" />
      <stop
         style="stop-color:#f9d75f;stop-opacity:1"
         offset="1"
         id="stop11771" />
    </linearGradient>
    <linearGradient
       id="linearGradient11701">
      <stop
         style="stop-color:#f3cc97;stop-opacity:1"
         offset="0"
         id="stop11703" />
      <stop
         style="stop-color:#fffffa;stop-opacity:1"
         offset="1"
         id="stop11705" />
    </linearGradient>
    <linearGradient
       id="linearGradient11693">
      <stop
         id="stop11695"
         offset="0"
         style="stop-color:#957eff;stop-opacity:1;" />
      <stop
         id="stop11697"
         offset="1"
         style="stop-color:#f9babb;stop-opacity:1" />
    </linearGradient>
    <linearGradient
       inkscape:collect="always"
       id="linearGradient11675">
      <stop
         style="stop-color:#ff0e0e;stop-opacity:1"
         offset="0"
         id="stop11677" />
      <stop
         style="stop-color:#ff0e0e;stop-opacity:1"
         offset="1"
         id="stop11679" />
    </linearGradient>
    <inkscape:perspective
       sodipodi:type="inkscape:persp3d"
       inkscape:vp_x="-106.94622 : 4.3291645e-14 : 0"
       inkscape:vp_y="0 : 419.5178 : 0"
       inkscape:vp_z="566.5369 : 530.90093 : 1"
       inkscape:persp3d-origin="294.85891 : 492.65175 : 1"
       id="perspective8110" />
    <inkscape:perspective
       id="perspective7953"
       inkscape:persp3d-origin="334.90962 : 793.38687 : 1"
       inkscape:vp_z="606.58761 : 831.63605 : 1"
       inkscape:vp_y="0 : 419.5178 : 0"
       inkscape:vp_x="-106.94622 : 4.3291645e-14 : 0"
       sodipodi:type="inkscape:persp3d" />
    <inkscape:perspective
       id="perspective7641"
       inkscape:persp3d-origin="372.04724 : 350.78739 : 1"
       inkscape:vp_z="734.54432 : 478.75417 : 1"
       inkscape:vp_y="0 : 1000 : 0"
       inkscape:vp_x="-325.50355 : 3.9861371e-14 : 0"
       sodipodi:type="inkscape:persp3d" />
    <marker
       style="overflow:visible;"
       id="Arrow2Lend"
       refX="0.0"
       refY="0.0"
       orient="auto"
       inkscape:stockid="Arrow2Lend">
      <path
         transform="scale(1.1) rotate(180) translate(1,0)"
         d="M 8.7185878,4.0337352 L -2.2072895,0.016013256 L 8.7185884,-4.0017078 C 6.9730900,-1.6296469 6.9831476,1.6157441 8.7185878,4.0337352 z "
         style="fill-rule:evenodd;stroke-width:0.62500000;stroke-linejoin:round;"
         id="path6465" />
    </marker>
    <filter
       id="filter7753"
       inkscape:collect="always">
      <feBlend
         id="feBlend7755"
         in2="BackgroundImage"
         mode="multiply"
         inkscape:collect="always" />
    </filter>
    <filter
       color-interpolation-filters="sRGB"
       id="filter7753-4"
       inkscape:collect="always">
      <feBlend
         id="feBlend7755-0"
         in2="BackgroundImage"
         mode="multiply"
         inkscape:collect="always" />
    </filter>
    <filter
       color-interpolation-filters="sRGB"
       id="filter7753-4-4"
       inkscape:collect="always">
      <feBlend
         id="feBlend7755-0-2"
         in2="BackgroundImage"
         mode="multiply"
         inkscape:collect="always" />
    </filter>
    <filter
       color-interpolation-filters="sRGB"
       id="filter7753-4-4-7"
       inkscape:collect="always">
      <feBlend
         id="feBlend7755-0-2-5"
         in2="BackgroundImage"
         mode="multiply"
         inkscape:collect="always" />
    </filter>
    <filter
       color-interpolation-filters="sRGB"
       id="filter7753-9"
       inkscape:collect="always">
      <feBlend
         id="feBlend7755-67"
         in2="BackgroundImage"
         mode="multiply"
         inkscape:collect="always" />
    </filter>
    <filter
       color-interpolation-filters="sRGB"
       id="filter7753-4-4-7-9"
       inkscape:collect="always">
      <feBlend
         id="feBlend7755-0-2-5-4"
         in2="BackgroundImage"
         mode="multiply"
         inkscape:collect="always" />
    </filter>
    <filter
       color-interpolation-filters="sRGB"
       id="filter7753-9-0"
       inkscape:collect="always">
      <feBlend
         id="feBlend7755-67-3"
         in2="BackgroundImage"
         mode="multiply"
         inkscape:collect="always" />
    </filter>
    <marker
       style="overflow:visible"
       id="Arrow2Lend-8"
       refX="0"
       refY="0"
       orient="auto"
       inkscape:stockid="Arrow2Lend">
      <path
         inkscape:connector-curvature="0"
         transform="matrix(-1.1,0,0,-1.1,-1.1,0)"
         d="M 8.7185878,4.0337352 -2.2072895,0.01601326 8.7185884,-4.0017078 c -1.7454984,2.3720609 -1.7354408,5.6174519 -6e-7,8.035443 z"
         style="fill-rule:evenodd;stroke-width:0.625;stroke-linejoin:round"
         id="path6465-2" />
    </marker>
    <marker
       style="overflow:visible"
       id="Arrow2Lend-3"
       refX="0"
       refY="0"
       orient="auto"
       inkscape:stockid="Arrow2Lend">
      <path
         inkscape:connector-curvature="0"
         transform="matrix(-1.1,0,0,-1.1,-1.1,0)"
         d="M 8.7185878,4.0337352 -2.2072895,0.01601326 8.7185884,-4.0017078 c -1.7454984,2.3720609 -1.7354408,5.6174519 -6e-7,8.035443 z"
         style="fill-rule:evenodd;stroke-width:0.625;stroke-linejoin:round"
         id="path6465-8" />
    </marker>
    <filter
       color-interpolation-filters="sRGB"
       id="filter7753-7"
       inkscape:collect="always">
      <feBlend
         id="feBlend7755-00"
         in2="BackgroundImage"
         mode="multiply"
         inkscape:collect="always" />
    </filter>
    <marker
       style="overflow:visible"
       id="Arrow2Lend-6"
       refX="0"
       refY="0"
       orient="auto"
       inkscape:stockid="Arrow2Lend">
      <path
         inkscape:connector-curvature="0"
         transform="matrix(-1.1,0,0,-1.1,-1.1,0)"
         d="M 8.7185878,4.0337352 -2.2072895,0.01601326 8.7185884,-4.0017078 c -1.7454984,2.3720609 -1.7354408,5.6174519 -6e-7,8.035443 z"
         style="fill-rule:evenodd;stroke-width:0.625;stroke-linejoin:round"
         id="path6465-4" />
    </marker>
    <filter
       color-interpolation-filters="sRGB"
       id="filter7753-7-9"
       inkscape:collect="always">
      <feBlend
         id="feBlend7755-00-5"
         in2="BackgroundImage"
         mode="multiply"
         inkscape:collect="always" />
    </filter>
    <linearGradient
       inkscape:collect="always"
       xlink:href="#linearGradient11675"
       id="linearGradient11681"
       x1="298.57004"
       y1="479.00427"
       x2="299.08707"
       y2="419.54877"
       gradientUnits="userSpaceOnUse" />
    <linearGradient
       inkscape:collect="always"
       xlink:href="#linearGradient11701"
       id="linearGradient11707"
       x1="360.86905"
       y1="410.24271"
       x2="361.44693"
       y2="345.52563"
       gradientUnits="userSpaceOnUse" />
    <radialGradient
       inkscape:collect="always"
       xlink:href="#linearGradient11693-0"
       id="radialGradient11691-1"
       cx="172.67947"
       cy="218.95107"
       fx="172.67947"
       fy="218.95107"
       r="10.30608"
       gradientUnits="userSpaceOnUse" />
    <linearGradient
       id="linearGradient11693-0">
      <stop
         id="stop11695-5"
         offset="0"
         style="stop-color:#957eff;stop-opacity:1;" />
      <stop
         id="stop11697-6"
         offset="1"
         style="stop-color:#f9ba5f;stop-opacity:1" />
    </linearGradient>
    <radialGradient
       r="10.30608"
       fy="218.95107"
       fx="172.67947"
       cy="218.95107"
       cx="172.67947"
       gradientUnits="userSpaceOnUse"
       id="radialGradient11724"
       xlink:href="#linearGradient11767"
       inkscape:collect="always" />
    <radialGradient
       inkscape:collect="always"
       xlink:href="#linearGradient11798"
       id="radialGradient11806"
       cx="172.67947"
       cy="218.95107"
       fx="172.67947"
       fy="218.95107"
       r="9.8060799"
       gradientUnits="userSpaceOnUse" />
    <marker
       style="overflow:visible"
       id="Arrow2Lend-5"
       refX="0"
       refY="0"
       orient="auto"
       inkscape:stockid="Arrow2Lend">
      <path
         inkscape:connector-curvature="0"
         transform="matrix(-1.1,0,0,-1.1,-1.1,0)"
         d="M 8.7185878,4.0337352 -2.2072895,0.01601326 8.7185884,-4.0017078 c -1.7454984,2.3720609 -1.7354408,5.6174519 -6e-7,8.035443 z"
         style="fill-rule:evenodd;stroke-width:0.625;stroke-linejoin:round"
         id="path6465-5" />
    </marker>
    <filter
       color-interpolation-filters="sRGB"
       id="filter7753-3"
       inkscape:collect="always">
      <feBlend
         id="feBlend7755-8"
         in2="BackgroundImage"
         mode="multiply"
         inkscape:collect="always" />
    </filter>
  </defs>
  <metadata
     id="metadata7">
    <rdf:RDF>
      <cc:Work
         rdf:about="">
        <dc:format>image/svg+xml</dc:format>
        <dc:type
           rdf:resource="http://purl.org/dc/dcmitype/StillImage" />
        <dc:title></dc:title>
      </cc:Work>
    </rdf:RDF>
  </metadata>
  <g
     style="filter:url(#filter7753)"
     inkscape:label="Layer 1"
     inkscape:groupmode="layer"
     id="layer1">
    <rect
       style="fill:url(#linearGradient11707);fill-opacity:1;stroke:none;opacity:1"
       id="rect11699"
       width="361.90311"
       height="207.31879"
       x="172.67947"
       y="206.54297" />
    <path
       id="path7997-9-7"
       title="t 0.3*sin(2*pi*4*t)"
       d="m 261.54015,610.74534 c 0.59138,-1.96937 1.18277,-3.92022 1.77415,-5.19581 0.59139,-1.27559 1.18277,-1.84934 1.77416,-1.53158 0.59138,0.31777 1.18277,1.52573 1.77416,3.21276 0.59138,1.68702 1.18277,3.82482 1.77415,5.69137 0.59139,1.86655 1.18277,3.42654 1.77416,4.15627 0.59138,0.72973 1.18277,0.61177 1.77415,-0.30994 0.59139,-0.92171 1.18277,-2.63444 1.77416,-4.55758 0.59139,-1.92313 1.18277,-4.02277 1.77416,-5.59108 0.59138,-1.56832 1.18277,-2.57414 1.77415,-2.68161 0.59139,-0.10747 1.18277,0.68985 1.77416,2.11902 0.59138,1.42916 1.18277,3.46733 1.77415,5.42525 0.59139,1.95791 1.18277,3.79956 1.77416,4.90545 0.59139,1.10588 1.18277,1.45222 1.77416,0.92619 0.59138,-0.52604 1.18277,-1.91926 1.77415,-3.70625 0.59139,-1.78698 1.18277,-3.93722 1.77416,-5.72493 0.59138,-1.7877 1.18277,-3.17856 1.77415,-3.70624 0.59139,-0.52768 1.18277,-0.17828 1.77416,0.92619 0.59139,1.10448 1.18277,2.94772 1.77416,4.90545 0.59138,1.95773 1.18277,3.99491 1.77415,5.42525 0.59139,1.43034 1.18277,2.22478 1.77416,2.11901 0.59138,-0.10576 1.18277,-1.11432 1.77415,-2.6816 0.59139,-1.56728 1.18277,-3.66758 1.77416,-5.59109 0.59139,-1.9235 1.18277,-3.63435 1.77416,-4.55757 0.59138,-0.92323 1.18277,-1.03809 1.77415,-0.30995 0.59139,0.72815 1.18277,2.29028 1.77416,4.15628 0.59138,1.866 1.18277,4.00346 1.77415,5.69137 0.59139,1.6879 1.18278,2.89331 1.77416,3.21276 0.59139,0.31945 1.18277,-0.2573 1.77416,-1.53158 0.59138,-1.27429 1.18277,-3.22645 1.77415,-5.19581"
       style="fill:none;stroke:#f21e21;stroke-width:0.60000001999999997;stroke-miterlimit:4;stroke-opacity:1;stroke-dasharray:none;stroke-dashoffset:0;filter:url(#filter7753-4)"
       inkscape:connector-curvature="0"
       transform="matrix(-0.04315117,-2.2498633,0.7914742,-0.11942226,-245.84591,1067.8707)" />
    <rect
       style="fill:url(#linearGradient11681);fill-opacity:1;fill-rule:nonzero;stroke:none;stroke-opacity:1"
       id="rect8499"
       width="361.92157"
       height="69.459702"
       x="172.55251"
       y="414.06418" />
    <path
       id="path9200"
       title="t 0.3*sin(2*pi*4*t)*exp(-2*t)"
       d="m 262.64563,405.99067 c -2.53893,-0.68156 -4.86022,-1.35547 -6.24676,-1.99656 -1.38653,-0.6411 -1.82051,-1.24876 -1.27691,-1.82209 0.54361,-0.57335 2.04817,-1.11295 3.92011,-1.63966 1.87193,-0.5267 4.07535,-1.04177 5.87111,-1.57115 1.79575,-0.52938 3.15494,-1.07408 3.70143,-1.64732 0.5465,-0.57324 0.27664,-1.17514 -0.62021,-1.79904 -0.89684,-0.6239 -2.39992,-1.2691 -3.95273,-1.91603 -1.5528,-0.64693 -3.12706,-1.29463 -4.21521,-1.92524 -1.08815,-0.63063 -1.6741,-1.24362 -1.62926,-1.83447 0.0448,-0.59085 0.71526,-1.15973 1.7245,-1.71672 1.00924,-0.557 2.33699,-1.1028 3.52469,-1.65354 1.18771,-0.55072 2.21535,-1.10706 2.77856,-1.67972 0.56322,-0.57264 0.65553,-1.16182 0.3086,-1.76643 -0.34693,-0.6046 -1.12351,-1.22428 -2.02631,-1.8484 -0.90281,-0.62411 -1.9146,-1.25206 -2.69629,-1.87192 -0.7817,-0.61986 -1.32081,-1.23121 -1.47188,-1.82894 -0.15107,-0.59772 0.0859,-1.18183 0.59148,-1.7565 0.50551,-0.57468 1.26871,-1.1403 2.01832,-1.70641 0.74963,-0.56611 1.47257,-1.13315 1.9452,-1.70897 0.47263,-0.57584 0.68853,-1.16068 0.61376,-1.75573 -0.0748,-0.59504 -0.43655,-1.20016 -0.93153,-1.80997 -0.49498,-0.60979 -1.11316,-1.22391 -1.6391,-1.83481 -0.52594,-0.61088 -0.95074,-1.21822 -1.14802,-1.81756 -0.19728,-0.59935 -0.16499,-1.19064 0.0619,-1.77509 0.22687,-0.58446 0.64305,-1.16228 1.09619,-1.73879 0.45315,-0.57651 0.93508,-1.15202 1.29216,-1.7319 0.35708,-0.57989 0.58403,-1.16434 0.62791,-1.75522 0.0439,-0.59089 -0.0946,-1.18817 -0.34554,-1.7894 -0.25094,-0.60123 -0.60889,-1.20622 -0.94327,-1.81038"
       style="fill:none;stroke:#f2ac21;stroke-width:0.83704131999999998;stroke-miterlimit:4;stroke-opacity:1;stroke-dasharray:none;stroke-dashoffset:0"
       inkscape:connector-curvature="0" />
    <path
       id="path7997-9-7-8"
       title="t 0.3*sin(2*pi*4*t)"
       d="m 261.54015,610.74534 c 0.59138,-1.96937 1.18277,-3.92022 1.77415,-5.19581 0.59139,-1.27559 1.18277,-1.84934 1.77416,-1.53158 0.59138,0.31777 1.18277,1.52573 1.77416,3.21276 0.59138,1.68702 1.18277,3.82482 1.77415,5.69137 0.59139,1.86655 1.18277,3.42654 1.77416,4.15627 0.59138,0.72973 1.18277,0.61177 1.77415,-0.30994 0.59139,-0.92171 1.18277,-2.63444 1.77416,-4.55758 0.59139,-1.92313 1.18277,-4.02277 1.77416,-5.59108 0.59138,-1.56832 1.18277,-2.57414 1.77415,-2.68161 0.59139,-0.10747 1.18277,0.68985 1.77416,2.11902 0.59138,1.42916 1.18277,3.46733 1.77415,5.42525 0.59139,1.95791 1.18277,3.79956 1.77416,4.90545 0.59139,1.10588 1.18277,1.45222 1.77416,0.92619 0.59138,-0.52604 1.18277,-1.91926 1.77415,-3.70625 0.59139,-1.78698 1.18277,-3.93722 1.77416,-5.72493 0.59138,-1.7877 1.18277,-3.17856 1.77415,-3.70624 0.59139,-0.52768 1.18277,-0.17828 1.77416,0.92619 0.59139,1.10448 1.18277,2.94772 1.77416,4.90545 0.59138,1.95773 1.18277,3.99491 1.77415,5.42525 0.59139,1.43034 1.18277,2.22478 1.77416,2.11901 0.59138,-0.10576 1.18277,-1.11432 1.77415,-2.6816 0.59139,-1.56728 1.18277,-3.66758 1.77416,-5.59109 0.59139,-1.9235 1.18277,-3.63435 1.77416,-4.55757 0.59138,-0.92323 1.18277,-1.03809 1.77415,-0.30995 0.59139,0.72815 1.18277,2.29028 1.77416,4.15628 0.59138,1.866 1.18277,4.00346 1.77415,5.69137 0.59139,1.6879 1.18278,2.89331 1.77416,3.21276 0.59139,0.31945 1.18277,-0.2573 1.77416,-1.53158 0.59138,-1.27429 1.18277,-3.22645 1.77415,-5.19581"
       style="fill:none;stroke:#f21e21;stroke-width:0.60000001999999997;stroke-miterlimit:4;stroke-opacity:1;stroke-dasharray:none;stroke-dashoffset:0;filter:url(#filter7753-4-4)"
       inkscape:connector-curvature="0"
       transform="matrix(-0.04315117,-2.2498633,0.7914742,-0.11942226,-168.87257,1068.967)" />
    <path
       id="path9200-7"
       title="t 0.3*sin(2*pi*4*t)*exp(-2*t)"
       d="m 339.61898,407.087 c -2.53893,-0.68156 -4.86022,-1.35547 -6.24676,-1.99656 -1.38653,-0.6411 -1.82051,-1.24876 -1.27691,-1.82209 0.54361,-0.57335 2.04817,-1.11295 3.92011,-1.63966 1.87193,-0.5267 4.07535,-1.04177 5.87111,-1.57115 1.79575,-0.52938 3.15494,-1.07408 3.70143,-1.64732 0.5465,-0.57324 0.27664,-1.17514 -0.62021,-1.79904 -0.89684,-0.6239 -2.39992,-1.2691 -3.95273,-1.91603 -1.5528,-0.64693 -3.12706,-1.29463 -4.21521,-1.92524 -1.08815,-0.63063 -1.6741,-1.24362 -1.62926,-1.83447 0.0448,-0.59085 0.71526,-1.15973 1.7245,-1.71672 1.00924,-0.557 2.33699,-1.1028 3.52469,-1.65354 1.18771,-0.55072 2.21535,-1.10706 2.77856,-1.67972 0.56322,-0.57264 0.65553,-1.16182 0.3086,-1.76643 -0.34693,-0.6046 -1.12351,-1.22428 -2.02631,-1.8484 -0.90281,-0.62411 -1.9146,-1.25206 -2.69629,-1.87192 -0.7817,-0.61986 -1.32081,-1.23121 -1.47188,-1.82894 -0.15107,-0.59772 0.0859,-1.18183 0.59148,-1.7565 0.50551,-0.57468 1.26871,-1.1403 2.01832,-1.70641 0.74963,-0.56611 1.47257,-1.13315 1.9452,-1.70897 0.47263,-0.57584 0.68853,-1.16068 0.61376,-1.75573 -0.0748,-0.59504 -0.43655,-1.20016 -0.93153,-1.80997 -0.49498,-0.60979 -1.11316,-1.22391 -1.6391,-1.83481 -0.52594,-0.61088 -0.95074,-1.21822 -1.14802,-1.81756 -0.19728,-0.59935 -0.16499,-1.19064 0.0619,-1.77509 0.22687,-0.58446 0.64305,-1.16228 1.09619,-1.73879 0.45315,-0.57651 0.93508,-1.15202 1.29216,-1.7319 0.35708,-0.57989 0.58403,-1.16434 0.62791,-1.75522 0.0439,-0.59089 -0.0946,-1.18817 -0.34554,-1.7894 -0.25094,-0.60123 -0.60889,-1.20622 -0.94327,-1.81038"
       style="fill:none;stroke:#f2ac21;stroke-width:0.83704131999999998;stroke-miterlimit:4;stroke-opacity:1;stroke-dasharray:none;stroke-dashoffset:0;filter:url(#filter7753)"
       inkscape:connector-curvature="0" />
    <path
       id="path7997-9-7-8-5"
       title="t 0.3*sin(2*pi*4*t)"
       d="m 261.54015,610.74534 c 0.59138,-1.96937 1.18277,-3.92022 1.77415,-5.19581 0.59139,-1.27559 1.18277,-1.84934 1.77416,-1.53158 0.59138,0.31777 1.18277,1.52573 1.77416,3.21276 0.59138,1.68702 1.18277,3.82482 1.77415,5.69137 0.59139,1.86655 1.18277,3.42654 1.77416,4.15627 0.59138,0.72973 1.18277,0.61177 1.77415,-0.30994 0.59139,-0.92171 1.18277,-2.63444 1.77416,-4.55758 0.59139,-1.92313 1.18277,-4.02277 1.77416,-5.59108 0.59138,-1.56832 1.18277,-2.57414 1.77415,-2.68161 0.59139,-0.10747 1.18277,0.68985 1.77416,2.11902 0.59138,1.42916 1.18277,3.46733 1.77415,5.42525 0.59139,1.95791 1.18277,3.79956 1.77416,4.90545 0.59139,1.10588 1.18277,1.45222 1.77416,0.92619 0.59138,-0.52604 1.18277,-1.91926 1.77415,-3.70625 0.59139,-1.78698 1.18277,-3.93722 1.77416,-5.72493 0.59138,-1.7877 1.18277,-3.17856 1.77415,-3.70624 0.59139,-0.52768 1.18277,-0.17828 1.77416,0.92619 0.59139,1.10448 1.18277,2.94772 1.77416,4.90545 0.59138,1.95773 1.18277,3.99491 1.77415,5.42525 0.59139,1.43034 1.18277,2.22478 1.77416,2.11901 0.59138,-0.10576 1.18277,-1.11432 1.77415,-2.6816 0.59139,-1.56728 1.18277,-3.66758 1.77416,-5.59109 0.59139,-1.9235 1.18277,-3.63435 1.77416,-4.55757 0.59138,-0.92323 1.18277,-1.03809 1.77415,-0.30995 0.59139,0.72815 1.18277,2.29028 1.77416,4.15628 0.59138,1.866 1.18277,4.00346 1.77415,5.69137 0.59139,1.6879 1.18278,2.89331 1.77416,3.21276 0.59139,0.31945 1.18277,-0.2573 1.77416,-1.53158 0.59138,-1.27429 1.18277,-3.22645 1.77415,-5.19581"
       style="fill:none;stroke:#f21e21;stroke-width:0.60000001999999997;stroke-miterlimit:4;stroke-opacity:1;stroke-dasharray:none;stroke-dashoffset:0;filter:url(#filter7753-4-4-7)"
       inkscape:connector-curvature="0"
       transform="matrix(-0.04315117,-2.2498633,0.7914742,-0.11942226,-91.370168,1068.2358)" />
    <path
       id="path9200-7-9"
       title="t 0.3*sin(2*pi*4*t)*exp(-2*t)"
       d="m 417.12138,406.35587 c -2.53893,-0.68156 -4.86022,-1.35547 -6.24676,-1.99656 -1.38653,-0.6411 -1.82051,-1.24876 -1.27691,-1.82209 0.54361,-0.57335 2.04817,-1.11295 3.92011,-1.63966 1.87193,-0.5267 4.07535,-1.04177 5.87111,-1.57115 1.79575,-0.52938 3.15494,-1.07408 3.70143,-1.64732 0.5465,-0.57324 0.27664,-1.17514 -0.62021,-1.79904 -0.89684,-0.6239 -2.39992,-1.2691 -3.95273,-1.91603 -1.5528,-0.64693 -3.12706,-1.29463 -4.21521,-1.92524 -1.08815,-0.63063 -1.6741,-1.24362 -1.62926,-1.83447 0.0448,-0.59085 0.71526,-1.15973 1.7245,-1.71672 1.00924,-0.557 2.33699,-1.1028 3.52469,-1.65354 1.18771,-0.55072 2.21535,-1.10706 2.77856,-1.67972 0.56322,-0.57264 0.65553,-1.16182 0.3086,-1.76643 -0.34693,-0.6046 -1.12351,-1.22428 -2.02631,-1.8484 -0.90281,-0.62411 -1.9146,-1.25206 -2.69629,-1.87192 -0.7817,-0.61986 -1.32081,-1.23121 -1.47188,-1.82894 -0.15107,-0.59772 0.0859,-1.18183 0.59148,-1.7565 0.50551,-0.57468 1.26871,-1.1403 2.01832,-1.70641 0.74963,-0.56611 1.47257,-1.13315 1.9452,-1.70897 0.47263,-0.57584 0.68853,-1.16068 0.61376,-1.75573 -0.0748,-0.59504 -0.43655,-1.20016 -0.93153,-1.80997 -0.49498,-0.60979 -1.11316,-1.22391 -1.6391,-1.83481 -0.52594,-0.61088 -0.95074,-1.21822 -1.14802,-1.81756 -0.19728,-0.59935 -0.16499,-1.19064 0.0619,-1.77509 0.22687,-0.58446 0.64305,-1.16228 1.09619,-1.73879 0.45315,-0.57651 0.93508,-1.15202 1.29216,-1.7319 0.35708,-0.57989 0.58403,-1.16434 0.62791,-1.75522 0.0439,-0.59089 -0.0946,-1.18817 -0.34554,-1.7894 -0.25094,-0.60123 -0.60889,-1.20622 -0.94327,-1.81038"
       style="fill:none;stroke:#f2ac21;stroke-width:0.837;stroke-miterlimit:4;stroke-opacity:1;stroke-dasharray:none;stroke-dashoffset:0;filter:url(#filter7753-9)"
       inkscape:connector-curvature="0" />
    <path
       id="path7997-9-7-8-5-6"
       title="t 0.3*sin(2*pi*4*t)"
       d="m 261.54015,610.74534 c 0.59138,-1.96937 1.18277,-3.92022 1.77415,-5.19581 0.59139,-1.27559 1.18277,-1.84934 1.77416,-1.53158 0.59138,0.31777 1.18277,1.52573 1.77416,3.21276 0.59138,1.68702 1.18277,3.82482 1.77415,5.69137 0.59139,1.86655 1.18277,3.42654 1.77416,4.15627 0.59138,0.72973 1.18277,0.61177 1.77415,-0.30994 0.59139,-0.92171 1.18277,-2.63444 1.77416,-4.55758 0.59139,-1.92313 1.18277,-4.02277 1.77416,-5.59108 0.59138,-1.56832 1.18277,-2.57414 1.77415,-2.68161 0.59139,-0.10747 1.18277,0.68985 1.77416,2.11902 0.59138,1.42916 1.18277,3.46733 1.77415,5.42525 0.59139,1.95791 1.18277,3.79956 1.77416,4.90545 0.59139,1.10588 1.18277,1.45222 1.77416,0.92619 0.59138,-0.52604 1.18277,-1.91926 1.77415,-3.70625 0.59139,-1.78698 1.18277,-3.93722 1.77416,-5.72493 0.59138,-1.7877 1.18277,-3.17856 1.77415,-3.70624 0.59139,-0.52768 1.18277,-0.17828 1.77416,0.92619 0.59139,1.10448 1.18277,2.94772 1.77416,4.90545 0.59138,1.95773 1.18277,3.99491 1.77415,5.42525 0.59139,1.43034 1.18277,2.22478 1.77416,2.11901 0.59138,-0.10576 1.18277,-1.11432 1.77415,-2.6816 0.59139,-1.56728 1.18277,-3.66758 1.77416,-5.59109 0.59139,-1.9235 1.18277,-3.63435 1.77416,-4.55757 0.59138,-0.92323 1.18277,-1.03809 1.77415,-0.30995 0.59139,0.72815 1.18277,2.29028 1.77416,4.15628 0.59138,1.866 1.18277,4.00346 1.77415,5.69137 0.59139,1.6879 1.18278,2.89331 1.77416,3.21276 0.59139,0.31945 1.18277,-0.2573 1.77416,-1.53158 0.59138,-1.27429 1.18277,-3.22645 1.77415,-5.19581"
       style="fill:none;stroke:#f21e21;stroke-width:0.60000001999999997;stroke-miterlimit:4;stroke-opacity:1;stroke-dasharray:none;stroke-dashoffset:0;filter:url(#filter7753-4-4-7-9)"
       inkscape:connector-curvature="0"
       transform="matrix(-0.04315117,-2.2498633,0.7914742,-0.11942226,-13.867775,1070.4293)" />
    <path
       id="path9200-7-9-0"
       title="t 0.3*sin(2*pi*4*t)*exp(-2*t)"
       d="m 494.62378,408.54941 c -2.53893,-0.68156 -4.86022,-1.35547 -6.24676,-1.99656 -1.38653,-0.6411 -1.82051,-1.24876 -1.27691,-1.82209 0.54361,-0.57335 2.04817,-1.11295 3.92011,-1.63966 1.87193,-0.5267 4.07535,-1.04177 5.87111,-1.57115 1.79575,-0.52938 3.15494,-1.07408 3.70143,-1.64732 0.5465,-0.57324 0.27664,-1.17514 -0.62021,-1.79904 -0.89684,-0.6239 -2.39992,-1.2691 -3.95273,-1.91603 -1.5528,-0.64693 -3.12706,-1.29463 -4.21521,-1.92524 -1.08815,-0.63063 -1.6741,-1.24362 -1.62926,-1.83447 0.0448,-0.59085 0.71526,-1.15973 1.7245,-1.71672 1.00924,-0.557 2.33699,-1.1028 3.52469,-1.65354 1.18771,-0.55072 2.21535,-1.10706 2.77856,-1.67972 0.56322,-0.57264 0.65553,-1.16182 0.3086,-1.76643 -0.34693,-0.6046 -1.12351,-1.22428 -2.02631,-1.8484 -0.90281,-0.6241 -1.9146,-1.25205 -2.69629,-1.87191 -0.7817,-0.61986 -1.32081,-1.23121 -1.47188,-1.82894 -0.15107,-0.59772 0.0859,-1.18183 0.59148,-1.7565 0.50551,-0.57468 1.26871,-1.1403 2.01832,-1.70641 0.74963,-0.56611 1.47257,-1.13315 1.9452,-1.70897 0.47263,-0.57584 0.68853,-1.16068 0.61376,-1.75573 -0.0748,-0.59504 -0.43655,-1.20016 -0.93153,-1.80997 -0.49498,-0.60979 -1.11316,-1.22391 -1.6391,-1.83481 -0.52594,-0.61088 -0.95074,-1.21822 -1.14802,-1.81756 -0.19728,-0.59935 -0.16499,-1.19064 0.0619,-1.77509 0.22687,-0.58446 0.64305,-1.16228 1.09619,-1.73879 0.45315,-0.57651 0.93508,-1.15202 1.29216,-1.7319 0.35708,-0.57989 0.58403,-1.16434 0.62791,-1.75522 0.0439,-0.59089 -0.0946,-1.18817 -0.34554,-1.7894 -0.25094,-0.60123 -0.60889,-1.20622 -0.94327,-1.81038"
       style="fill:none;stroke:#f2ac21;stroke-width:0.83704131999999998;stroke-miterlimit:4;stroke-opacity:1;stroke-dasharray:none;stroke-dashoffset:0;filter:url(#filter7753-9-0)"
       inkscape:connector-curvature="0" />
    <path
       style="fill:none;stroke:#000000;stroke-width:1px;stroke-linecap:butt;stroke-linejoin:miter;stroke-opacity:1;marker-end:url(#Arrow2Lend);filter:url(#filter7753)"
       d="m 301.27739,281.80365 0,-29.24619"
       id="path9325-4"
       inkscape:connector-curvature="0" />
    <path
       style="fill:none;stroke:#000000;stroke-width:1px;stroke-linecap:butt;stroke-linejoin:miter;stroke-opacity:1;marker-end:url(#Arrow2Lend);filter:url(#filter7753-7)"
       d="m 378.77978,281.80365 0,-29.24619"
       id="path9325-4-1"
       inkscape:connector-curvature="0" />
    <path
       style="fill:none;stroke:#000000;stroke-width:1px;stroke-linecap:butt;stroke-linejoin:miter;stroke-opacity:1;marker-end:url(#Arrow2Lend);filter:url(#filter7753-7-9)"
       d="m 454.81987,281.80365 0,-29.24619"
       id="path9325-4-1-3"
       inkscape:connector-curvature="0" />
    <path
       sodipodi:type="arc"
       style="fill:url(#radialGradient11724);fill-opacity:1;stroke:#000000;stroke-opacity:1"
       id="path11683-7"
       sodipodi:cx="172.67947"
       sodipodi:cy="218.95107"
       sodipodi:rx="9.3060799"
       sodipodi:ry="9.3060799"
       d="m 181.98555,218.95107 a 9.3060799,9.3060799 0 1 1 -18.61216,0 9.3060799,9.3060799 0 1 1 18.61216,0 z"
       transform="translate(180.83382,156.65235)" />
    <path
       sodipodi:type="arc"
       style="fill:url(#radialGradient11806);fill-opacity:1.0;stroke:#000000;stroke-opacity:1"
       id="path11683"
       sodipodi:cx="172.67947"
       sodipodi:cy="218.95107"
       sodipodi:rx="9.3060799"
       sodipodi:ry="9.3060799"
       d="m 181.98555,218.95107 a 9.3060799,9.3060799 0 1 1 -18.61216,0 9.3060799,9.3060799 0 1 1 18.61216,0 z"
       transform="translate(180.83382,24.816211)" />
    <text
       xml:space="preserve"
       style="font-size:16px;font-style:normal;font-weight:normal;line-height:125%;letter-spacing:0px;word-spacing:0px;fill:#000000;fill-opacity:1;stroke:url(#Strips1_1);font-family:Bitstream Vera Sans"
       x="359.4816"
       y="360.14899"
       id="text11773"
       sodipodi:linespacing="125%"><tspan
         sodipodi:role="line"
         id="tspan11775"
         x="359.4816"
         y="360.14899"
         style="stroke:url(#Strips1_1)">2</tspan></text>
    <text
       xml:space="preserve"
       style="font-size:16px;font-style:normal;font-weight:normal;line-height:125%;letter-spacing:0px;word-spacing:0px;fill:#000000;fill-opacity:1;stroke:none;filter:url(#filter7753);font-family:Bitstream Vera Sans"
       x="363.58957"
       y="233.07228"
       id="text11773-9"
       sodipodi:linespacing="125%"
       inkscape:transform-center-y="129.59491"><tspan
         sodipodi:role="line"
         id="tspan11775-5"
         x="363.58957"
         y="233.07228">1</tspan></text>
    <path
       style="fill:none;stroke:#000000;stroke-width:1px;stroke-linecap:butt;stroke-linejoin:miter;stroke-opacity:1;marker-end:url(#Arrow2Lend);filter:url(#filter7753-3)"
       d="m 223.8169,282.51076 0,-29.24619"
       id="path9325-4-4"
       inkscape:connector-curvature="0" />
    <path
       style="fill:none;stroke:#000000;stroke-width:1px;stroke-linecap:butt;stroke-linejoin:miter;stroke-opacity:1"
       d="m 172.1805,414.19831 362.74578,0"
       id="path11913"
       inkscape:connector-curvature="0" />
  </g>
  <g
     inkscape:groupmode="layer"
     id="layer2"
     inkscape:label="Layer" />
</svg>
